<?xml version="1.0" encoding="UTF-8"?>
<svg id="Calque_2" data-name="Calque 2" xmlns="http://www.w3.org/2000/svg" xmlns:xlink="http://www.w3.org/1999/xlink" viewBox="0 0 1446.72 1333.57">
  <defs>
    <style>
      .cls-1 {
        fill: url(#linear-gradient-3);
      }

      .cls-1, .cls-2 {
        mix-blend-mode: multiply;
      }

      .cls-1, .cls-2, .cls-3, .cls-4, .cls-5, .cls-6, .cls-7, .cls-8, .cls-9, .cls-10, .cls-11, .cls-12, .cls-13, .cls-14, .cls-15, .cls-16, .cls-17, .cls-18, .cls-19, .cls-20, .cls-21, .cls-22, .cls-23, .cls-24 {
        stroke-width: 0px;
      }

      .cls-25 {
        filter: url(#luminosity-noclip-3);
      }

      .cls-26 {
        mask: url(#mask);
      }

      .cls-27 {
        filter: url(#luminosity-noclip);
      }

      .cls-2 {
        fill: url(#linear-gradient);
      }

      .cls-28 {
        opacity: .25;
      }

      .cls-29 {
        opacity: .35;
      }

      .cls-30 {
        opacity: .6;
      }

      .cls-31 {
        opacity: .5;
      }

      .cls-32 {
        mask: url(#mask-3);
      }

      .cls-33 {
        mask: url(#mask-2);
      }

      .cls-34 {
        mask: url(#mask-1);
      }

      .cls-3 {
        fill: #33aef2;
      }

      .cls-4 {
        fill: #28dddd;
      }

      .cls-5 {
        fill: #0bcbff;
      }

      .cls-6 {
        fill: #371a45;
      }

      .cls-7 {
        fill: #220f2d;
      }

      .cls-8 {
        fill: #21cc49;
      }

      .cls-9 {
        fill: #22a7f0;
      }

      .cls-10 {
        fill: #d1d1d1;
      }

      .cls-11 {
        fill: #c93535;
      }

      .cls-12 {
        fill: #9d91ff;
      }

      .cls-13 {
        fill: #fff;
      }

      .cls-14 {
        fill: #e2e8e8;
      }

      .cls-15 {
        fill: #fffd01;
      }

      .cls-16 {
        fill: #e81818;
      }

      .cls-17 {
        fill: #e791fe;
      }

      .cls-18 {
        fill: #ffb720;
      }

      .cls-19 {
        fill: #ffd403;
      }

      .cls-20 {
        fill: #ffd215;
      }

      .cls-21 {
        fill: #e5e5e5;
      }

      .cls-22 {
        fill: #e7a900;
      }

      .cls-23 {
        fill: url(#linear-gradient-4);
      }

      .cls-23, .cls-24 {
        opacity: .7;
      }

      .cls-24 {
        fill: url(#linear-gradient-2);
      }
    </style>
    <filter id="luminosity-noclip" x="368.19" y="887.22" width="30.02" height="16.74" color-interpolation-filters="sRGB" filterUnits="userSpaceOnUse">
      <feFlood flood-color="#fff" result="bg"/>
      <feBlend in="SourceGraphic" in2="bg"/>
    </filter>
    <filter id="luminosity-noclip-2" x="368.19" y="-8998.56" width="30.02" height="32766" color-interpolation-filters="sRGB" filterUnits="userSpaceOnUse">
      <feFlood flood-color="#fff" result="bg"/>
      <feBlend in="SourceGraphic" in2="bg"/>
    </filter>
    <mask id="mask-1" x="368.19" y="-8998.56" width="30.02" height="32766" maskUnits="userSpaceOnUse"/>
    <linearGradient id="linear-gradient" x1="1627.26" y1="-487.95" x2="1627.21" y2="-472.35" gradientTransform="translate(1386.04 -474.66) rotate(109.71) scale(1 -1)" gradientUnits="userSpaceOnUse">
      <stop offset="0" stop-color="#fff"/>
      <stop offset="1" stop-color="#000"/>
    </linearGradient>
    <mask id="mask" x="368.19" y="887.22" width="30.02" height="16.74" maskUnits="userSpaceOnUse">
      <g class="cls-27">
        <g class="cls-34">
          <path class="cls-2" d="m368.19,893.3l29.77,10.66c.53-2.92.22-5.86-.79-8.52l-22.95-8.22c-2.47,1.42-4.57,3.49-6.02,6.08Z"/>
        </g>
      </g>
    </mask>
    <linearGradient id="linear-gradient-2" x1="1627.26" y1="-487.95" x2="1627.21" y2="-472.35" gradientTransform="translate(1386.04 -474.66) rotate(109.71) scale(1 -1)" gradientUnits="userSpaceOnUse">
      <stop offset="0" stop-color="#fff"/>
      <stop offset="1" stop-color="#fff"/>
    </linearGradient>
    <filter id="luminosity-noclip-3" x="366.14" y="897.37" width="30.46" height="17.04" color-interpolation-filters="sRGB" filterUnits="userSpaceOnUse">
      <feFlood flood-color="#fff" result="bg"/>
      <feBlend in="SourceGraphic" in2="bg"/>
    </filter>
    <filter id="luminosity-noclip-4" x="366.14" y="-8998.56" width="30.46" height="32766" color-interpolation-filters="sRGB" filterUnits="userSpaceOnUse">
      <feFlood flood-color="#fff" result="bg"/>
      <feBlend in="SourceGraphic" in2="bg"/>
    </filter>
    <mask id="mask-3" x="366.14" y="-8998.56" width="30.46" height="32766" maskUnits="userSpaceOnUse"/>
    <linearGradient id="linear-gradient-3" x1="1639.38" y1="-487.98" x2="1639.33" y2="-472.25" xlink:href="#linear-gradient"/>
    <mask id="mask-2" x="366.14" y="897.37" width="30.46" height="17.04" maskUnits="userSpaceOnUse">
      <g class="cls-25">
        <g class="cls-32">
          <path class="cls-1" d="m366.8,905.69l24.35,8.72c2.29-1.54,4.19-3.67,5.45-6.28l-30.02-10.75c-.68,2.82-.57,5.68.21,8.31Z"/>
        </g>
      </g>
    </mask>
    <linearGradient id="linear-gradient-4" x1="1639.38" y1="-487.98" x2="1639.33" y2="-472.25" xlink:href="#linear-gradient-2"/>
  </defs>
  <g id="Layer_1" data-name="Layer 1">
    <g>
      <g>
        <g>
          <path class="cls-13" d="m1276.17,535.44l26.98-75.17c2.39-6.65,9.49-10.34,16.3-8.48h0c6.97,1.9,11.22,8.94,9.65,15.99l-15.04,67.66h-37.9Z"/>
          <path class="cls-6" d="m1314.07,542.13h-37.9c-2.18,0-4.22-1.06-5.47-2.84-1.25-1.78-1.56-4.06-.82-6.11l26.98-75.17c3.54-9.87,14.25-15.43,24.35-12.68,10.43,2.85,16.77,13.34,14.42,23.9l-15.04,67.66c-.68,3.06-3.39,5.24-6.53,5.24Zm-28.39-13.38h23.03l13.87-62.42c.79-3.57-1.35-7.13-4.88-8.09-3.43-.93-7.05.95-8.25,4.29l-23.77,66.22Z"/>
          <path class="cls-13" d="m1439.25,590.51c-.02.09-.04.16-.09.25-1.65,4.3-5.64,7.27-10.19,8.03l-28.29,4.7c-4.08.69-7.74,2.92-10.28,6.2-20.15,25.97-42.07,47.84-67.42,61.75-64.65,95.86-149.44,149.1-251.92,122.62l-38.43-70.94-48.51-89.58c43.03-6.53,100.32,20.06,164.98,8.92,31.84-11.19,55.85-32.08,75.8-57.96,2.97-34.51,12.69-60.53,40.15-64.21,3.99-.54,8.05-.16,11.88,1.07,9.74,3.1,18.57,7.54,25.99,14.09,9.39-12.4,19.37-20.51,31.21-15.61,14.49,7.25,27.71,19.04,35.4,31.41,1.27,2.03,2.39,4.08,3.32,6.13,2.16,4.66,3.46,9.3,3.63,13.73l50.41,1.87c4.84.18,8.99,2.85,11.24,6.62,1.92,3.17,2.52,7.09,1.11,10.9Z"/>
          <path class="cls-6" d="m1122.45,807.48c-17.39,0-35.08-2.31-53.06-6.95-1.8-.47-3.32-1.66-4.21-3.29l-86.95-160.52c-1.04-1.91-1.08-4.22-.11-6.17.97-1.95,2.83-3.31,4.98-3.63,20.05-3.04,42.77.69,66.83,4.63,29.38,4.82,62.66,10.28,97.46,4.4,26.74-9.53,49.98-27.22,71-54.02,2.58-27.61,10.43-63.56,45.75-68.28,4.89-.66,10.01-.2,14.79,1.32,8.84,2.81,16.39,6.46,22.89,11.09,7.01-8.17,19.22-18.89,34.86-12.4.14.06.29.12.43.19,20.16,10.08,40.95,30.12,45.27,50.78l44.77,1.66c6.5.24,12.56,3.62,16.2,9.05,3.53,5.26,4.32,11.63,2.18,17.47l-.13.34c-2.45,6.37-8.33,11.05-15.34,12.22l-28.28,4.71c-2.39.4-4.55,1.71-6.09,3.68-22.63,29.16-44.91,49.69-68.07,62.73-58.73,86.48-128.85,130.97-205.19,130.97Zm-46.9-19.2c113.85,27.84,194.31-50.02,241.9-120.59.6-.88,1.39-1.61,2.33-2.13,22.03-12.09,43.41-31.72,65.36-60,3.6-4.64,8.74-7.72,14.45-8.68l28.28-4.71c2.36-.39,4.29-1.86,5.05-3.83.95-2.58-.02-4.58-.67-5.55-1.26-1.88-3.35-3.05-5.58-3.13l-50.42-1.87c-3.49-.13-6.29-2.92-6.43-6.41-.62-14.97-17.49-34.9-38.44-45.46-4.92-1.97-11.53-1.76-23.11,13.55-1.12,1.49-2.81,2.43-4.67,2.62-1.85.2-3.7-.41-5.09-1.64-6.23-5.5-13.95-9.66-23.6-12.73-2.91-.93-6.01-1.21-8.96-.81-20.56,2.75-31.16,20.69-34.38,58.15-.11,1.28-.58,2.5-1.37,3.51-23.1,29.95-48.9,49.64-78.88,60.19-.35.12-.72.22-1.08.28-37.23,6.41-71.88.73-102.46-4.29-19.78-3.25-37.34-6.12-52.96-5.51l80.73,149.03Z"/>
          <path class="cls-6" d="m1296.39,522.6c12.99,9.09,23.2,24.03,23.07,40.47.07,5.97-2.04,12.36-6.63,16.37-8.39,7.93-22.48,7.19-29.77-1.6,0,0-1.16-1.35-1.16-1.35l-18.52-21.67c-.81-.94-.7-2.36.25-3.17.91-.78,2.2-.67,3.05.09,7.69,5.81,14.86,12.1,21.87,18.55,2.29,2.36,5.21,4.12,8.54,4.15,12.76-.21,11.27-13.58,7.5-22.18-3.24-7.18-8.74-13.54-15.53-18.47-7.57-5.02-.27-16.18,7.34-11.18h0Z"/>
          <path class="cls-6" d="m1347.51,604.56c-18.51,0-36.8-14.5-42.26-28.05-1.38-3.43.28-7.32,3.7-8.71,3.43-1.38,7.32.28,8.71,3.7,3.7,9.18,17,19.44,29.42,19.67,8.3-1.29,15.57-9.74,22.85-26.55,1.47-3.39,5.41-4.95,8.8-3.48,3.39,1.47,4.95,5.41,3.48,8.8-5.96,13.75-15.95,32.29-33.85,34.56-.28.04-.56.05-.84.05Z"/>
          <path class="cls-6" d="m1345.34,664.96c-14.24,9.41-33.26,11.78-47.93,1.85-2.36-1.47-.47-5.17,2.1-4.12,13.63,5.76,27.63,1.45,37.8-8.43,7.43-6.33,16.2,5.33,8.02,10.71h0Z"/>
          <path class="cls-6" d="m1233.7,568.52c-1.84,12.51-3.71,24.85-2.45,37.58.22,1.2-.58,2.4-1.84,2.48-.84.06-1.59-.4-1.94-1.11-3.08-6.22-5.12-13.06-6.21-20.08-1.09-7.02-1.24-14.21-.71-21.34.27-3.67,3.47-6.42,7.14-6.14,4.36.32,6.89,4.49,6.01,8.61h0Z"/>
          <path class="cls-6" d="m1235.28,770.76c-.78,0-1.58-.14-2.36-.43-55.2-20.83-85.26-88.76-75.25-135.58.77-3.61,4.34-5.91,7.94-5.14,3.61.77,5.92,4.33,5.14,7.94-8.69,40.66,18.64,102.06,66.9,120.27,3.46,1.3,5.2,5.16,3.9,8.62-1.01,2.68-3.56,4.33-6.26,4.33Z"/>
          <g class="cls-28">
            <path class="cls-6" d="m1274.28,563.71c3.75,3.43,7.51,6.93,11.15,10.55-4.08-3.01-7.85-6.84-11.15-10.55Z"/>
          </g>
          <g class="cls-28">
            <path class="cls-6" d="m1439.25,590.51c-.02.09-.04.16-.09.25-1.65,4.3-5.64,7.27-10.19,8.03l-28.29,4.7c-4.08.69-7.74,2.92-10.28,6.2-20.15,25.97-42.07,47.84-67.42,61.75-64.65,95.86-149.44,149.1-251.92,122.62l-38.43-70.94c.54-9.27,2.14-18.48,5.13-27.47l-.6-3.57c31.68,13.78,66.59,17.95,100.97,21.25,12.37,1.2,24.84,2.3,37.23,1.29,40.42-3.25,75.46-28,108.24-51.9,8.94-6.49,18.19-13.38,23.1-23.27,6.58-13.24,3.88-29.58-3.28-42.54-4.7-8.47-11.08-15.81-17.99-22.65,5.51,4.04,11.64,6.51,18.13,5.02,1.76-.4,3.54-1.09,5.31-.78,2.23.42,3.81,2.3,5.24,4.06,9.07,11.21,22.85,23.1,36.18,17.57,7.58-3.14,11.91-10.99,17.37-17.1,5.48-6.13,14.96-10.88,21.63-6.06-2.32,4.04-.18,9.52,3.63,12.17,3.84,2.65,8.76,3.08,13.4,2.83,11.57-.62,22.81-5.11,31.84-12.35,1.92,3.17,2.52,7.09,1.11,10.9Z"/>
          </g>
          <g class="cls-28">
            <path class="cls-6" d="m1308.05,533.08c2.44,4.17,4.88,8.34,7.33,12.51,5.02,8.56,10.32,17.44,18.65,22.84,8.33,5.4,20.62,6.08,27.36-1.2,4.34-4.68,5.47-11.4,6.41-17.71,6,5.13,7.33,14.29,4.87,21.79-2.47,7.5-8.07,13.56-14.16,18.59-1.66,1.37-3.42,2.71-5.51,3.23-1.57.39-3.21.3-4.83.18-8.66-.63-17.68-1.84-24.84-6.76-3.66-2.52-6.64-5.88-9.58-9.21-.76-.86-1.55-1.76-1.86-2.87-.37-1.3-.03-2.69.25-4.01,2.75-12.64,1-26.21-4.87-37.74l.76.37Z"/>
          </g>
          <g class="cls-28">
            <path class="cls-6" d="m1289.84,495.89c1.24,6.56,6.73,12.1,13.28,13.41,6.55,1.3,13.74-1.72,17.39-7.31,1.64.39,2.01,2.53,2.03,4.22.03,2,.06,4.01.09,6.01.03,1.8,0,3.76-1.11,5.18-1.06,1.36-2.85,1.87-4.45,2.5-3.86,1.54-7.23,4.26-9.55,7.7-.84,1.25-1.82,2.75-3.32,2.78-.78.01-1.49-.4-2.15-.81-6.42-4.03-12.78-9.98-20.29-8.99,3.68-6.49,7.35-12.98,11.03-19.46.57-1,1.06-2.43.15-3.14l-3.11-2.09Z"/>
          </g>
        </g>
        <g>
          <path class="cls-13" d="m1115.41,1289.6c-3.43,10.21-10.06,19.02-19.82,23.9-66.88,6.69-148.59-12.89-171.66-26.75-36.5,8.69-62.13-5.64-68.51-38.77-1.81-9.39-2.07-20.27-.6-32.57-76.58-36.32-120.39-82.49-124.85-214.02-.51-33.2-.69-66.06-.47-98.54.09-16.14.29-32.19.58-48.15.76-43.92,2.21-87.17,4.35-129.75l-127.08-51.28c24.52-26.75,86.95-31.21,158.29-28.98l225.17-6.69,42.36,53.51c42.54,57.99,73.1,128.86,75.8,229.63,17.59,106.99,14.96,210.17-17.84,307.66,23.97,9.1,31.84,38.35,24.28,60.82Z"/>
          <path class="cls-6" d="m1034.93,690.21c54.75,63.18,77.53,148.58,80.33,230.75,17.4,98.23,16.51,211.78-17.79,309.96,0,0-3.99-8.42-3.95-8.38,29.21,10.95,38.54,48.85,25.7,75.38-4.2,8.92-11.37,16.99-20.64,21.56-.74.37-1.54.6-2.33.67-14.96,1.43-29.91,1.61-44.79.99-29.76-1.28-59.18-5.74-88.05-13.05-12.71-3.25-25.57-7.21-37.56-12.75,0,0-5.38-2.87-5.38-2.87l4.99.77c-56.69,13.48-84.42-25.47-77.3-78.64,0,0,3.77,6.84,3.77,6.84-39.28-18.32-76.84-44.3-97.96-83.5-23.88-43.45-29.36-93.78-30.79-142.32-1.3-90.42.01-180.73,4.55-271.03l4.18,6.54-127.08-51.28c-3.43-1.34-5.12-5.25-3.73-8.67,20.19-25.63,66.66-30.29,96.93-32.58,22.52-1.43,44.99-1.26,67.43-.62,14.52-.44,205.18-6.07,225.13-6.68,8.85.1,9.24,12.79.4,13.37-20.91.6-210.1,6.26-225.55,6.69-37.85-.89-76.7-1.36-113.62,7.09-14.37,3.6-29.38,9.1-39.56,19.73,0,0-2.43-10.72-2.43-10.72l127.08,51.28c2.71,1.09,4.31,3.77,4.18,6.54-4.4,99.6-7.35,199.66-3.18,299.27,3.66,41.92,11.71,85.83,36.37,120.59,0,0,4.71,6.59,4.71,6.59,6.91,8.16,14.31,16.46,22.69,23.13,16.65,13.98,35.92,24.97,55.97,34.51,2.65,1.26,4.09,4.04,3.78,6.8-5.62,43.58,13.05,75.54,60.92,64.08,3.28-.94,6.56,1.77,9.3,3.06,11.22,5.14,23.08,8.77,35.08,11.84,27.83,7.05,56.59,11.41,85.28,12.64,14.35.59,28.71.41,42.89-.94l-2.33.67c20.29-10.41,23.85-40.54,12.46-58.84-3.87-6.27-9.54-11.08-16.29-13.64-3.36-1.31-5.07-5.03-3.97-8.39,32.75-97.78,34.23-203.35,17.96-304.5-1.08-40.72-6.37-81.44-18.71-120.22-12.05-38.85-31.57-74.37-52.63-109.14-.63-1.03-.3-2.38.73-3.01.92-.56,2.1-.35,2.79.43h0Z"/>
          <path class="cls-6" d="m924.67,1294.29c-14.45-14.64-8.04-58.37-6.84-78.05,1.16-13.08,4.12-42.74,4.89-55.38.85-18.29-.39-36.7-1.12-54.85-1.73-22.65-3.38-49.22-24.41-62.14-9.88-6.41-22.09-9.35-33.61-11.93-.85-.2-1.37-1.06-1.16-1.9.17-.71.79-1.19,1.49-1.21,6.33-.47,12.72-.26,19.15.68,41.23,5.65,48.72,40.37,51.45,75.55,1.21,15.79,2.04,31.13,2.59,46.81.17,9.79-.91,18.95-1.62,28.57,0,0-3.33,37.04-3.33,37.04-1.01,12.28-2.2,24.51-2.61,36.54-.16,5.99-.16,11.96.43,17.57.49,4.53,1.38,10.18,3.93,13.29,6.17,6.21-2.79,15.56-9.22,9.42h0Z"/>
          <path class="cls-6" d="m904.69,1034.75c47.09,13.69,101.29,5.09,142.6-22.03,2.65-1.87,5.64,2.08,2.96,4.09-21.05,15.27-45.63,25.18-71.04,30.18-25.42,4.91-52,4.96-77.35-1.47-3.05-.69-4.95-3.78-4.18-6.81.77-3.07,3.98-4.88,7-3.97h0Z"/>
          <path class="cls-6" d="m854.38,1207.82c14.73,6.75,32.8,6.77,48.79,3.21,2.66-.65,3.94,3.29,1.39,4.31-17.21,6.9-36.12,9.93-54.69,5.07-9.29-2.81-4.48-16.32,4.51-12.59h0Z"/>
          <path class="cls-6" d="m821,1194.05c-6.69,0-13.14-.8-19.18-2.48-3.56-.99-5.64-4.68-4.65-8.24.99-3.56,4.67-5.64,8.24-4.65,36.72,10.21,93.53-19.44,116.91-61.01,1.81-3.22,5.89-4.36,9.11-2.55,3.22,1.81,4.36,5.89,2.55,9.11-22.74,40.44-72.38,69.82-112.98,69.82Z"/>
          <path class="cls-6" d="m1091.47,1236.12c-17.66-6.35-36.61-9.68-55.83-9.27-1.4.03-2.56-1.08-2.59-2.49-.03-1.28.9-2.36,2.13-2.56,19.57-3.24,40.02-2.67,59.87,1.42,3.65.72,6.02,4.29,5.27,7.94-.78,3.97-5.05,6.35-8.84,4.96h0Z"/>
          <path class="cls-6" d="m1057.01,1171.33c-46.08,0-101.09-10.8-129.51-25.8-3.27-1.72-4.52-5.77-2.79-9.04,1.72-3.27,5.77-4.52,9.04-2.79,38.09,20.1,134.3,32.5,173.59,17.41,3.44-1.33,7.32.4,8.64,3.84,1.33,3.45-.4,7.32-3.84,8.64-14.01,5.38-33.59,7.74-55.11,7.74Z"/>
          <g class="cls-28">
            <path class="cls-6" d="m1115.41,1289.6c-3.43,10.21-10.06,19.02-19.82,23.9-66.88,6.69-148.59-12.89-171.66-26.75-36.5,8.69-62.13-5.64-68.51-38.77,3.79,4.08,8.2,7.6,13.06,10.34,15.07,8.47,36.38,8.4,47.69-4.7,9.23-10.7,9.34-26.31,8.76-40.44-1.81-44.48-6.02-90.45-27.62-129.37-21.6-38.93-64.99-69.02-108.95-61.95,3.5-8.47,12.46-13.98,21.54-14.33,20.31-3.79,41.58-2.43,61.24,3.95,12.4,4.04,24.12,9.99,36.56,13.89,48.91,15.29,101.33-2.85,149.33-20.82-25.24,22.32-51.28,45.68-64.63,76.62-13.13,30.36-12.6,64.63-11.84,97.71.27,11.62.6,23.52,5.06,34.24,4.46,10.72,14.05,20.13,25.64,20.84,12.69.78,24.21-8.63,36.92-8.27-8.23,4.3-15.98,10.03-20.73,17.99-4.73,7.96-6,18.41-1.43,26.49,4.37,7.74,13.02,11.93,21.38,15,17.59,6.42,36.56,9.92,55.11,7.33,4.37-.6,8.69-1.56,12.91-2.9Z"/>
          </g>
          <g class="cls-28">
            <path class="cls-6" d="m1045.05,929.78c-43.43,12.06-89.6,5.48-134.52,8.85-21,1.58-41.91,5.35-62.96,4.46-21.02-.89-42.89-7.11-57.38-22.36-1.9-1.98-3.7-4.17-6.15-5.42-2.63-1.34-5.71-1.47-8.67-1.58-15.81-.67-32.77-2.79-45.86-10.88.09-16.14.29-32.19.58-48.15,13.73-1.03,28.05,2.83,41.98,4.64,12.73,1.65,25.62,1.54,38.46,1.45,15.07-.11,30.14-.25,45.21-.36,14.51-.11,29.09-.22,43.43,1.96,31.84,4.84,60.8,20.62,89.02,36.14,18.95,10.41,37.9,20.84,56.87,31.26Z"/>
          </g>
        </g>
        <g>
          <ellipse class="cls-13" cx="1083.65" cy="837.22" rx="25.32" ry="23.09"/>
          <g class="cls-28">
            <path class="cls-6" d="m1108.96,837.22c0,12.75-11.33,23.1-25.31,23.1s-25.33-10.35-25.33-23.1c0-3.52.87-6.88,2.43-9.87,4.06,7.8,12.8,13.21,22.9,13.21s18.83-5.41,22.88-13.21c1.57,2.99,2.43,6.35,2.43,9.87Z"/>
          </g>
          <path class="cls-6" d="m1083.64,865.89c-17.04,0-30.9-12.86-30.9-28.67s13.86-28.67,30.9-28.67,30.9,12.86,30.9,28.67-13.86,28.67-30.9,28.67Zm0-46.19c-10.89,0-19.75,7.86-19.75,17.52s8.86,17.52,19.75,17.52,19.75-7.86,19.75-17.52-8.86-17.52-19.75-17.52Z"/>
          <path class="cls-13" d="m1036.05,930.54l-184.16,3.94c-21.8.47-40.03-16.98-40.5-38.81l-2.09-98c-.41-19.11,12.93-35.45,30.9-39.53,2.54-.6,5.19-.91,7.91-.97l184.13-3.94c21.82-.47,40.06,16.98,40.5,38.81l1.68,77.62.44,20.38c.47,21.82-17.01,40.03-38.81,40.5Z"/>
          <g class="cls-28">
            <path class="cls-6" d="m1036.05,930.54l-184.16,3.94c-21.8.47-40.03-16.98-40.5-38.81l-2.09-98c-.41-19.11,12.93-35.45,30.9-39.53,10.61,6.72,17.34,11.02,17.34,11.02,10.65,78.47,33.89,117.22,131.61,116.72,42.18-.23,68.66-7.23,85.27-16.24l.44,20.38c.47,21.82-17.01,40.03-38.81,40.5Z"/>
          </g>
          <path class="cls-6" d="m851.03,941.19c-11.96,0-23.3-4.56-32.01-12.92-8.96-8.59-14.04-20.11-14.31-32.44l-2.1-98.02c-.27-12.34,4.32-24.06,12.91-33.03,8.59-8.96,20.11-14.04,32.44-14.31l184.15-3.95c25.57-.54,46.79,19.8,47.33,45.35l2.1,98.01c.55,25.55-19.8,46.79-45.35,47.34l-184.15,3.95c-.34,0-.68.01-1.01.01Zm182.07-181.29c-.24,0-.48,0-.72,0l-184.15,3.95c-8.76.19-16.96,3.81-23.07,10.19s-9.38,14.72-9.19,23.48l2.1,98.02c.19,8.76,3.81,16.96,10.19,23.07s14.76,9.35,23.48,9.19h0l184.15-3.95c18.18-.39,32.65-15.5,32.26-33.68l-2.1-98.01c-.39-17.94-15.1-32.27-32.96-32.27Z"/>
          <path class="cls-13" d="m1043.43,929.66c-2.38.55-4.83.84-7.38.88l-184.16,3.94c-15.97.34-30.03-8.93-36.58-22.53-2.39-4.94-3.79-10.45-3.9-16.27l-.95-43.54-.31-14.37-.86-40.1c-.47-21.82,17.01-40.03,38.81-40.5l39.79-.84c-18.27,3.85-31.89,20.32-31.49,39.62l1.12,52.94.97,45.09c.47,21.8,18.71,39.28,40.5,38.81l144.42-3.13Z"/>
          <g class="cls-28">
            <path class="cls-6" d="m1043.43,929.66c-2.38.55-4.83.84-7.38.88l-184.16,3.94c-21.8.47-40.03-16.98-40.48-38.81l-1.26-57.9c4.85,10.13,13.44,22.51,26.79,23.55,7.32.58,14.4-4.83,20.59-12.43l.97,45.09c.47,21.8,18.71,39.28,40.5,38.81l144.42-3.13Z"/>
          </g>
          <path class="cls-6" d="m851,941.19c-11.95,0-23.27-4.56-31.98-12.91-8.97-8.59-14.05-20.12-14.3-32.45l-2.1-98.01c-.27-12.33,4.31-24.06,12.9-33.03,8.59-8.96,20.11-14.04,32.44-14.31l39.78-.85,1.53,13.23c-15.5,3.28-26.51,17.14-26.17,32.96l2.1,98.01c.18,8.77,3.8,16.96,10.18,23.08,6.38,6.12,14.68,9.33,23.47,9.19l144.44-3.11,1.6,13.22c-2.86.64-5.8.98-8.73,1.03l-184.13,3.95c-.34,0-.69.01-1.03.01Zm11.15-177.64l-13.9.29c-8.76.19-16.96,3.81-23.07,10.2-6.12,6.38-9.38,14.72-9.19,23.48l2.1,98.02c.18,8.76,3.8,16.95,10.18,23.07,6.38,6.12,14.71,9.33,23.47,9.19l15.36-.33c-.33-.3-.66-.6-.98-.91-8.97-8.59-14.05-20.12-14.3-32.45l-2.1-98.01c-.27-12.41,4.43-23.96,12.42-32.55Z"/>
          <g>
            <path class="cls-3" d="m933.55,844.34c.06,3.62-4.58,32.96-4.58,32.96,0,0-9.27.15-20.65.32-14.22.22-25.98-14.32-26.26-32.48-.28-18.16,11.01-33.06,25.23-33.29,9.6-.15,20.65-.32,20.65-.32,0,0,5.52,26.9,5.61,32.8Z"/>
            <g class="cls-28">
              <path class="cls-6" d="m933.55,844.34c.06,3.62-4.58,32.96-4.58,32.96,0,0-9.27.15-20.65.32-14.22.22-25.98-14.32-26.26-32.48-.28-18.16,11.01-33.06,25.23-33.29,9.6-.15,20.65-.32,20.65-.32,0,0,5.52,26.9,5.61,32.8Z"/>
            </g>
            <path class="cls-6" d="m908.01,883.2c-17.09,0-31.19-16.93-31.52-37.97-.33-21.2,13.45-38.68,30.71-38.95l20.65-.32c2.68-.04,5.01,1.83,5.55,4.45.58,2.81,5.63,27.59,5.73,33.84h0c.06,3.81-3.54,26.93-4.65,33.92-.42,2.68-2.71,4.66-5.42,4.7l-20.65.32c-.13,0-.27,0-.4,0Zm15.39-66.02l-16.02.25c-11.12.17-19.98,12.57-19.75,27.63.24,15.06,9.37,27.16,20.6,26.99l15.96-.25c1.95-12.62,3.77-25.35,3.79-27.39-.06-3.41-2.56-17.02-4.59-27.23Z"/>
            <ellipse class="cls-3" cx="928.46" cy="844.42" rx="25.75" ry="32.89" transform="translate(-13.13 14.67) rotate(-.9)"/>
            <g class="cls-30">
              <path class="cls-13" d="m923.95,825.26c14.22-.22,25.98,14.32,26.26,32.48.03,1.69-.08,3.33-.25,4.95,2.77-5.34,4.35-11.77,4.24-18.68-.29-18.16-12.04-32.7-26.26-32.48-12.9.2-23.36,12.5-24.99,28.34,4.51-8.69,12.19-14.47,20.99-14.6Z"/>
            </g>
            <g class="cls-28">
              <path class="cls-6" d="m936.7,856.77c-14.22.22-25.98-14.32-26.26-32.48-.02-1.22.02-2.43.11-3.62-4.94,6.08-7.98,14.66-7.83,24.15.29,18.16,12.04,32.7,26.26,32.48,13.26-.21,23.97-13.19,25.12-29.67-4.51,5.55-10.62,9.03-17.4,9.13Z"/>
            </g>
            <path class="cls-6" d="m928.64,882.88c-8.47,0-16.4-4.04-22.36-11.42-5.74-7.1-8.99-16.53-9.14-26.55-.33-21.2,13.44-38.68,30.71-38.95,17.3-.18,31.59,16.76,31.92,37.97.33,21.2-13.44,38.68-30.71,38.95-.14,0-.28,0-.42,0Zm-.38-65.77c-.08,0-.16,0-.24,0-11.12.17-19.98,12.57-19.74,27.63.12,7.54,2.49,14.55,6.67,19.72,3.86,4.77,8.8,7.41,13.93,7.28,11.12-.17,19.98-12.57,19.75-27.63h0c-.23-14.95-9.35-27-20.37-27Z"/>
          </g>
          <path class="cls-6" d="m978.79,936.64h-.01c-3.08,0-5.57-2.51-5.56-5.58l.14-61.56c.01-5.91,2.97-11.38,7.9-14.63l20.23-13.33c1.85-1.22,2.92-3.26,2.88-5.47l-1.48-82.16c-.06-3.08,2.39-5.62,5.47-5.67,3.09-.01,5.62,2.39,5.67,5.47l1.48,82.16c.11,6.05-2.84,11.65-7.9,14.98l-20.23,13.33c-1.8,1.19-2.88,3.19-2.89,5.34l-.14,61.56c0,3.08-2.5,5.56-5.57,5.56Z"/>
          <path class="cls-13" d="m835.91,884.94c-76.89,19.36-114.75-6.38-114.75-6.38,0,0-11.1-7.14-13.33-25.22-.04-.29-.07-.55-.07-.81-1.54-15.2,7.76-25.19,7.76-25.19,41.89,38.5,110.85,11.43,110.85,11.43,10.72,6.85,14.11,16.11,14.42,24.54.47,11.59-4.88,21.63-4.88,21.63Z"/>
          <g class="cls-28">
            <path class="cls-6" d="m835.91,884.94c-76.89,19.36-114.75-6.38-114.75-6.38,0,0-11.1-7.14-13.33-25.22-.04-.29-.07-.55-.07-.81.56-.6.89-.94.89-.94,46.46,37.17,125.49,7.19,125.49,7.19,2.59,1.39,4.79,2.93,6.64,4.53.47,11.59-4.88,21.63-4.88,21.63Z"/>
          </g>
          <path class="cls-6" d="m781.45,897.81c-41.35,0-62.3-13.8-63.46-14.59-.43-.27-13.22-8.73-15.76-29.2-.54-4.33-.35-8.67.54-12.91,1.34-6.35,5.24-11.4,10.42-13.49,4.54-1.83,9.58-1.23,13.82,1.64h0c33.31,22.6,79.83,10.04,93.29,5.65,5.15-1.67,10.78-.3,15.06,3.67,14.44,13.4,11.7,31.31,8.78,40.79-1.97,6.39-6.53,10.99-12.2,12.3-19.31,4.45-36.14,6.12-50.5,6.12Zm-62.9-59.95c-.38,0-.76.08-1.14.23-1.67.67-3.05,2.73-3.61,5.36-.64,3.02-.77,6.11-.39,9.19,1.86,14.99,10.48,20.96,10.84,21.21.39.26,35.46,22.93,105.15,6.85,1.68-.39,3.2-2.16,3.96-4.63,2.62-8.5,3.75-20.46-5.67-29.21-.74-.68-2.23-1.76-3.91-1.21-14.69,4.79-65.56,18.42-103.11-7.04h0c-.74-.5-1.44-.75-2.13-.75Z"/>
        </g>
        <g>
          <g>
            <path class="cls-13" d="m1152.21,482.91c-17.25,46.92-46.28,89.73-85.94,123.63-8.09,6.91-16.59,13.44-25.52,19.56-4.34,2.99-8.82,5.87-13.38,8.69-13.8,8.42-28.01,15.58-42.51,21.52-12.49,5.15-25.21,9.37-38.03,12.71-15.48,4.05-31.14,6.78-46.83,8.28-5.72.53-11.44.9-17.16,1.12-104.61,3.82-208.15-47.43-266.54-143.15-86.04-140.99-41.47-325.02,99.5-411.06,27.16-16.55,55.93-28.32,85.29-35.4,3.42-.86,6.88-1.63,10.36-2.32,9.27-1.91,18.59-3.37,27.91-4.38,21.57-2.32,43.22-2.25,64.53.09,21.31,2.32,42.33,6.93,62.63,13.72,6.45,2.16,12.84,4.52,19.15,7.13,9.46,3.91,18.73,8.28,27.8,13.18,45.2,24.27,84.75,60.53,113.4,107.5,49.5,81.1,55.76,176.43,25.35,259.17Z"/>
            <path class="cls-6" d="m871.89,679.42c-104.33,0-201.76-54.36-256.28-143.73-86.12-141.13-41.37-326.02,99.76-412.15,26.78-16.32,55.55-28.26,85.51-35.5,3.25-.82,6.74-1.6,10.39-2.32,9.24-1.91,18.66-3.38,27.98-4.39,21.41-2.3,43.18-2.28,64.71.09,21.32,2.32,42.45,6.95,62.79,13.76,6.53,2.18,12.99,4.59,19.2,7.15,9.66,3.99,19.04,8.44,27.87,13.21,46.65,25.05,85.97,62.32,113.7,107.79,47.97,78.59,57.23,173.31,25.42,259.86-17.64,47.98-47.44,90.85-86.17,123.96-8.2,7-16.81,13.6-25.59,19.61-4.02,2.77-8.41,5.62-13.41,8.71-13.65,8.32-27.99,15.58-42.63,21.58-12.26,5.05-25.09,9.34-38.13,12.75-15.26,3.99-31.05,6.78-46.95,8.3-5.74.53-11.53.9-17.2,1.12-3.66.13-7.33.2-10.98.2Zm-.74-598.21c-10.61,0-21.21.57-31.73,1.7-9.27,1-18.63,2.47-27.84,4.37-3.62.72-7.09,1.5-10.32,2.31-29.81,7.2-58.42,19.08-85.06,35.31-140.38,85.68-184.89,269.59-99.23,409.96,56.12,92.01,157.96,146.75,265.83,142.77,5.64-.21,11.4-.59,17.11-1.12,15.81-1.51,31.52-4.29,46.7-8.26,12.98-3.39,25.74-7.66,37.93-12.68,14.56-5.96,28.83-13.18,42.4-21.46,4.98-3.07,9.34-5.91,13.35-8.67,8.74-5.98,17.3-12.54,25.46-19.51,38.53-32.93,68.17-75.57,85.71-123.3h0c31.64-86.1,22.43-180.31-25.28-258.48-27.58-45.22-66.69-82.3-113.1-107.21-8.79-4.75-18.11-9.17-27.72-13.14-6.18-2.55-12.6-4.94-19.1-7.11-20.24-6.77-41.26-11.38-62.46-13.69-10.84-1.19-21.75-1.79-32.63-1.79Z"/>
          </g>
          <path class="cls-6" d="m1116.77,550.86c-155.79,146.33-404.2,94.2-447.01-113.13-29.13-141.05,86.49-278.47,223.75-297.77,99.9-14.05,203.58,15.94,267.76,165.04,0,0,18.22,70.39,5.75,120.82-12.47,50.44-33.12,97.38-33.12,97.38l-17.14,27.66Z"/>
          <g class="cls-28">
            <path class="cls-6" d="m616.3,535.26c58.38,95.73,161.94,146.99,266.54,143.15,5.72-.21,11.43-.59,17.14-1.12,15.69-1.49,31.35-4.23,46.83-8.27,12.82-3.36,25.55-7.57,38.03-12.71,14.51-5.93,28.71-13.1,42.53-21.52,4.55-2.83,9.03-5.7,13.38-8.69,8.94-6.12,17.42-12.67,25.52-19.58,39.66-33.9,68.7-76.7,85.95-123.64,9.48-25.78,15.4-52.79,17.55-80.21-17.48,44.41-45.65,84.84-83.49,117.19-8.08,6.93-16.58,13.45-25.52,19.58-4.33,2.99-8.81,5.86-13.38,8.69-13.81,8.42-28.01,15.58-42.51,21.52-12.5,5.14-25.21,9.35-38.03,12.71-15.48,4.04-31.16,6.78-46.83,8.27-5.73.53-11.45.9-17.16,1.11-104.61,3.84-208.15-47.41-266.54-143.15-34.08-55.84-47.65-118.43-42.87-179-33.21,84.23-27.93,182.45,22.86,265.66Z"/>
          </g>
          <path class="cls-6" d="m871.9,684.76c-106.19,0-205.36-55.33-260.84-146.29-87.66-143.64-42.11-331.83,101.54-419.5,27.26-16.61,56.54-28.77,87.04-36.13,3.28-.83,6.87-1.63,10.6-2.37,9.37-1.93,18.96-3.44,28.45-4.46,21.8-2.35,43.96-2.32,65.86.09,21.69,2.36,43.2,7.07,63.91,14,6.64,2.22,13.22,4.67,19.54,7.28,9.83,4.06,19.38,8.59,28.37,13.45,47.48,25.49,87.5,63.43,115.72,109.71,48.82,79.99,58.25,176.39,25.87,264.49h0c-17.95,48.84-48.28,92.48-87.71,126.18-8.35,7.13-17.11,13.84-26.05,19.96-4.08,2.81-8.55,5.71-13.63,8.85-13.91,8.49-28.51,15.87-43.41,21.98-12.47,5.14-25.53,9.5-38.8,12.97-15.53,4.06-31.61,6.91-47.8,8.45-5.85.54-11.74.92-17.5,1.14-3.73.13-7.46.2-11.17.2Zm-.74-598.22c-10.42,0-20.83.56-31.15,1.67-9.1.98-18.29,2.43-27.33,4.29-3.57.71-6.96,1.47-10.1,2.26-29.32,7.08-57.42,18.75-83.59,34.69-137.86,84.14-181.58,264.75-97.45,402.62,55.12,90.36,155.17,144.09,261.08,140.21,5.54-.21,11.2-.58,16.82-1.1,15.51-1.48,30.94-4.21,45.83-8.11,12.74-3.33,25.27-7.52,37.24-12.45,14.32-5.86,28.32-12.95,41.65-21.08,4.88-3.01,9.17-5.8,13.1-8.51,8.59-5.88,17.01-12.33,25.02-19.17,37.83-32.34,66.94-74.21,84.17-121.08h0c31.08-84.56,22.03-177.08-24.83-253.86-27.09-44.41-65.49-80.82-111.07-105.29-8.64-4.67-17.8-9.01-27.24-12.91-6.06-2.5-12.37-4.85-18.75-6.98-19.88-6.65-40.52-11.18-61.35-13.44-10.65-1.17-21.36-1.76-32.06-1.76Zm281.05,396.36h.02-.02Z"/>
          <path class="cls-6" d="m871.9,685.31c-106.39,0-205.73-55.43-261.31-146.56-87.81-143.9-42.18-332.42,101.72-420.25,27.31-16.64,56.65-28.82,87.2-36.2,3.29-.83,6.88-1.63,10.62-2.38,9.39-1.94,18.99-3.44,28.5-4.47,21.84-2.35,44.03-2.32,65.98.09,21.73,2.37,43.27,7.09,64.02,14.03,6.66,2.22,13.24,4.67,19.58,7.29,9.85,4.07,19.41,8.6,28.43,13.48,47.56,25.54,87.66,63.55,115.93,109.9,48.91,80.13,58.35,176.71,25.92,264.96h0c-17.98,48.93-48.37,92.64-87.87,126.41-8.36,7.14-17.14,13.87-26.09,20-4.09,2.82-8.56,5.72-13.65,8.86-13.94,8.5-28.56,15.9-43.49,22.02-12.49,5.15-25.57,9.52-38.87,13-15.56,4.07-31.67,6.92-47.88,8.47-5.87.54-11.76.92-17.53,1.14-3.73.13-7.48.2-11.19.2Zm-.74-598.21c-10.4,0-20.79.55-31.09,1.66-9.08.98-18.26,2.42-27.28,4.28-3.57.71-6.94,1.46-10.07,2.25-29.27,7.07-57.32,18.71-83.44,34.63-137.6,83.98-181.24,264.26-97.27,401.86,55.01,90.19,154.86,143.82,260.59,139.95,5.53-.21,11.18-.58,16.79-1.1,15.48-1.48,30.88-4.2,45.75-8.09,12.72-3.32,25.23-7.5,37.17-12.43,14.29-5.85,28.27-12.93,41.58-21.04,4.87-3,9.15-5.79,13.07-8.49,8.58-5.87,16.98-12.31,24.98-19.14,37.76-32.28,66.81-74.07,84.01-120.86h0c31.02-84.4,21.98-176.75-24.78-253.38-27.04-44.33-65.37-80.67-110.86-105.09-8.62-4.66-17.77-8.99-27.19-12.89-6.05-2.5-12.35-4.84-18.72-6.97-19.85-6.64-40.45-11.16-61.23-13.42-10.63-1.17-21.33-1.75-32-1.75Zm281.05,395.81h.02-.02Z"/>
          <path class="cls-7" d="m669.77,437.73c42.8,207.32,291.21,259.45,447,113.14l3.47-5.61c-185.84,61.75-392.53-24.87-439.71-233.68-14.96,39.45-19.74,82.63-10.76,126.16Z"/>
          <path class="cls-6" d="m912.43,671.23c-57.01,0-112.34-15.33-158.57-44.85-63.22-40.36-105.15-102.94-121.27-180.96-14.82-71.77,2.12-146.93,47.71-211.65,49.63-70.45,127.85-119.35,209.23-130.79,45.7-6.43,88.01-4.06,125.75,7.03l.65.19.59.32c47.55,25.53,87.62,63.51,115.87,109.84,48.87,80.08,58.32,176.59,25.9,264.79h0c-17.97,48.9-48.34,92.58-87.81,126.33-8.36,7.14-17.13,13.86-26.07,19.98-4.09,2.82-8.55,5.72-13.64,8.86-13.93,8.5-28.54,15.89-43.46,22l-.97.31c-24.55,5.77-49.38,8.6-73.9,8.6Zm25.86-558.8c-15.16,0-30.82,1.13-46.95,3.4-77.9,10.95-152.83,57.84-200.44,125.42-43.5,61.75-59.7,133.33-45.61,201.55,15.4,74.52,55.35,134.22,115.55,172.65,63.04,40.25,143.94,52.87,222.02,34.67,14.12-5.81,27.95-12.82,41.12-20.86,4.87-3.01,9.16-5.79,13.08-8.5,8.59-5.88,16.99-12.32,24.99-19.15,37.79-32.3,66.86-74.13,84.07-120.94h0c31.04-84.46,22-176.87-24.8-253.56-26.94-44.17-65.08-80.41-110.34-104.85-22.55-6.55-46.88-9.84-72.69-9.84Zm213.92,370.48h.02-.02Z"/>
          <ellipse class="cls-13" cx="614.46" cy="440.93" rx="77.71" ry="106.95" transform="translate(-53.9 86.99) rotate(-7.76)"/>
          <g class="cls-28">
            <path class="cls-6" d="m623.32,547.37c40.1-1.46,69.67-44.14,69.48-97.58-7.31,3.66-15.27,5.8-23.7,6.11-42.99,1.56-101.42-38.29-106.32-97.07-.33-3.95,19.11-14.38,19.11-18.23-30.01,15.03-49.2,55.91-45.28,103.16,4.9,58.8,43.72,105.18,86.71,103.62Z"/>
          </g>
          <path class="cls-6" d="m621.24,554.1c-45.51,0-86.19-48.62-91.28-109.79-3.01-36.21,6.66-69.83,26.53-92.23,13.5-15.22,30.41-23.62,48.88-24.3,46.41-1.6,88.43,47.54,93.6,109.75,3.01,36.21-6.66,69.83-26.53,92.23-13.5,15.22-30.41,23.62-48.88,24.3-.77.03-1.55.04-2.32.04Zm-13.51-212.98c-.63,0-1.25.01-1.88.03-14.73.54-28.34,7.38-39.36,19.8-17.2,19.39-25.87,50.13-23.2,82.24,4.59,55.19,40.47,98.93,79.79,97.49,14.73-.54,28.34-7.38,39.36-19.8,17.2-19.39,25.87-50.13,23.2-82.24-4.52-54.31-39.25-97.52-77.9-97.52Z"/>
          <g>
            <ellipse class="cls-13" cx="590.24" cy="451.89" rx="63.32" ry="84.88" transform="translate(-67.83 106.16) rotate(-9.72)"/>
            <path class="cls-6" d="m596.66,537.11c-5.09,0-10.27-.81-15.46-2.43-19.82-6.19-36.95-23.43-47.01-47.3-17.96-42.63-7.5-93.25,23.31-112.85,12.75-8.11,27.2-9.99,41.79-5.43,19.82,6.19,36.95,23.43,47.01,47.3,17.96,42.63,7.5,93.25-23.31,112.85-8.21,5.22-17.12,7.86-26.33,7.86Zm-60.95-50.38c9.87,23.42,26.63,40.32,45.98,46.36,14.11,4.41,28.08,2.59,40.41-5.25,30.16-19.18,40.33-68.89,22.67-110.8-9.87-23.42-26.63-40.32-45.98-46.36-14.11-4.41-28.08-2.59-40.41,5.25-30.16,19.18-40.34,68.89-22.67,110.8Z"/>
          </g>
          <g class="cls-28">
            <path class="cls-6" d="m652.83,482.76c2.61-15.87.89-32.51-4.18-47.85-9.01,35.68-39.38,52.46-70.54,37.64-20.14-9.57-35.97-30.14-43.79-53.88-.58,2.25-1.06,4.6-1.46,7-6.64,40.41,14.84,85.95,47.97,101.71,33.14,15.76,65.36-4.23,72-44.62Z"/>
          </g>
          <path class="cls-6" d="m596.16,543.18c-35.39,0-67.48-40.53-71.9-91.21-2.67-30.67,5.3-59.72,21.33-77.71,10.13-11.38,22.72-17.6,36.39-17.99,35.93-1.08,68.75,39.89,73.22,91.19,2.67,30.67-5.3,59.72-21.33,77.71-10.14,11.38-22.72,17.6-36.39,17.99-.44.01-.88.02-1.32.02Zm-12.81-173.55c-.33,0-.66,0-.99.01-9.9.28-19.16,4.95-26.78,13.51-13.62,15.29-20.35,40.59-17.99,67.66,3.82,43.87,29.96,78.99,58.52,78.99.33,0,.66,0,.99-.01,9.9-.28,19.16-4.95,26.78-13.51,13.62-15.29,20.35-40.59,17.99-67.65-3.82-43.87-29.96-79-58.52-79Z"/>
          <g class="cls-31">
            <path class="cls-13" d="m830.57,214.87s126.55-9.63,205.69,52.87c.08.07.17.13.25.2,16.65,13.17,29.43,30.61,37.13,50.39,10.19,26.15,13.38,45.67,15.53,62.96,6.5,52.59-.29,78.44-.29,78.44,26.47-31.48,39.43-65.11,34.45-108.96-.5-4.32-1.18-8.76-2.02-13.29-.19-1.05-.4-2.08-.63-3.11.02-.01,0-.03-.02-.06-2.35-9.06-5.88-20.85-10.97-33.82-15.35-39.12-44.8-88.99-98.5-107.18-100.41-34.01-185.62,16.61-180.61,21.57Z"/>
          </g>
          <g class="cls-31">
            <ellipse class="cls-13" cx="756.69" cy="359.98" rx="46.58" ry="39.97" transform="translate(295.77 1059.78) rotate(-82.07)"/>
          </g>
          <g class="cls-31">
            <ellipse class="cls-13" cx="745.02" cy="443.8" rx="19.24" ry="16.51" transform="translate(147.51 1072.29) rotate(-77.23)"/>
          </g>
        </g>
        <g class="cls-29">
          <path class="cls-6" d="m821.52,1044.37c.88,4.64,1.69,9.19,2.44,13.67-.73-4.49-1.54-9.04-2.44-13.67Z"/>
        </g>
        <g>
          <g>
            <path class="cls-19" d="m559.06,868.35c36.17,29.41,71.98-30.09,28.73-55.13,7.67-40.89,58.78-28.11,61.33,15.33,2.56,74.11-89.44,84.33-104.38,126.16-14.94,42.8-5.18,86.23,25.29,92.87,3.14.68,6.39.79,9.59.62,39.55-2.1,48.78-31.38,41.39-53.55-9.39-27.75-43.44-17.89-38.33,12.78-13.26.29-21.84-15.08-12.26-31.81,3.72-6.5,9.54-11.54,16.23-14.91,73.93-37.21,137.32-74.52,105.91-160.28-43.79-102.17-166.31-53.82-150.23,38.51,1.99,11.44,7.71,22.07,16.72,29.39Z"/>
            <g class="cls-30">
              <path class="cls-13" d="m544.74,954.72c14.94-41.83,106.94-52.05,104.38-126.16-.22-3.71-.81-7.17-1.68-10.41,3.74,6.05,6.27,13.51,6.79,22.25,2.56,73.56-89.44,83.71-104.38,125.23-8.39,23.87-8.99,47.93-2.5,65.61-11.49-17.91-12.79-47.35-2.61-76.52Z"/>
              <path class="cls-13" d="m571.65,1003.17c2.87,2.76,6.69,4.37,11.03,4.28-5.11-30.67,28.94-40.53,38.33-12.78.24.71.45,1.42.65,2.14-10.24-13.17-28.87-8.72-33.39,7.47-2.47,8.85-15.14,8.5-16.55-.57-.03-.18-.05-.36-.08-.54Z"/>
              <path class="cls-13" d="m547.45,850.72c.34,1.93.83,3.83,1.38,5.71-3.2-5.33-5.41-11.27-6.49-17.47-16.08-92.33,106.44-140.68,150.23-38.51.54,1.47.98,2.89,1.46,4.32-46.54-91.11-162.24-43.28-146.58,45.95Z"/>
              <path class="cls-13" d="m606.86,837.69c-3.18-4.63-7.73-8.94-13.96-12.52.48-2.54,1.13-4.88,1.93-7.01,6.78,5.76,10.56,12.59,12.03,19.52Z"/>
            </g>
            <g class="cls-28">
              <path class="cls-6" d="m559.06,868.35c-3.09-2.51-5.76-5.44-8.06-8.63,30.2,21.66,59.01-17.02,40.53-44.11,37.32,26.2,2.6,81.25-32.47,52.74Z"/>
              <path class="cls-6" d="m559.81,1037.37c3.14.68,6.39.79,9.59.62,39.55-2.1,48.78-31.38,41.39-53.55-.56-1.65-1.21-3.15-1.92-4.54,5.04,2.27,9.54,7.06,12.15,14.76,7.39,22.16-1.84,51.44-41.39,53.55-3.21.17-6.46.07-9.59-.62-9.24-2.02-16.56-7.43-21.88-15.17,3.47,2.31,7.35,4.01,11.66,4.95Z"/>
              <path class="cls-6" d="m570.42,975.63c-4.43,7.74-4.95,15.16-2.95,20.9-10.23-3.13-15.59-16.6-7.28-31.12,3.72-6.5,9.54-11.54,16.23-14.91,73.93-37.21,137.32-74.52,105.91-160.28-5.01-11.68-11.05-21.37-17.79-29.27,10.89,9.19,20.58,22.17,28.01,39.49,31.41,85.75-31.98,123.07-105.91,160.28-6.69,3.37-12.51,8.41-16.23,14.91Z"/>
            </g>
            <path class="cls-6" d="m577.05,1054.67c-3.05,0-5.81-.28-8.38-.84-12-2.62-21.82-10.2-28.38-21.93-11.12-19.87-11.72-50.25-1.58-79.29,6.63-18.58,25.6-30.86,45.68-43.87,29.39-19.03,59.77-38.71,58.35-79.97-1.23-20.92-15.32-33.14-27.94-33.94-9.36-.64-16.55,5.11-19.73,15.46,12.81,8.96,19.63,21.98,18.86,36.33-.79,14.7-9.42,27.8-21.99,33.37-11.8,5.23-25.26,2.79-36.92-6.69h0c-9.91-8.06-16.65-19.86-18.98-33.25-8.97-51.48,22.67-89.19,58.55-99.85,32.38-9.61,78.99-.26,103.84,57.73.05.11.09.21.13.32,35.04,95.68-44.85,135.88-109.04,168.18-5.95,3-10.64,7.27-13.56,12.37-3.71,6.47-4.28,13.09-1.53,17.72.42.7.89,1.33,1.42,1.87,1.08-14.43,10.31-23.3,19.98-25.72,10.87-2.72,25.27,2.35,31.22,19.94,4.82,14.45,3.02,29.91-4.8,41.39-5.91,8.68-18.05,19.3-42.3,20.58-1,.05-1.97.08-2.92.08Zm36.4-272.66c.72,0,1.43.02,2.16.07,18.09,1.15,38.22,17.69,39.89,46.1,1.68,48.65-34.83,72.29-64.17,91.29-18.21,11.79-35.41,22.93-40.57,37.39-8.95,25.65-8.7,52.03.69,68.8,4.79,8.56,11.5,13.84,19.95,15.68,2.23.48,4.81.64,7.89.48,15.06-.8,26.27-5.99,32.42-15.02,5.59-8.2,6.8-19.46,3.25-30.13-3.6-10.63-10.87-12.9-16-11.62-6.25,1.57-12.04,8.91-9.97,21.33.31,1.83-.2,3.7-1.38,5.13-1.18,1.43-2.93,2.27-4.78,2.31-7.96.22-15.25-3.86-19.37-10.78-5.13-8.64-4.6-20.08,1.43-30.6,4.17-7.28,10.71-13.31,18.91-17.44,78.36-39.43,131.61-73.43,102.84-152.21-21.56-50.14-61.08-58.47-88.39-50.35-29.53,8.77-57.64,39.24-49.6,85.41,1.8,10.35,6.94,19.42,14.45,25.53h0c8.03,6.53,16.22,8.23,23.68,4.92,8.09-3.59,13.88-12.58,14.41-22.38.34-6.37-1.36-18.37-16.59-27.18-2.34-1.36-3.58-4.04-3.08-6.71,3.46-18.47,15.88-30.04,31.94-30.04Z"/>
          </g>
          <g>
            <path class="cls-19" d="m148.06,868.35c-36.17,29.41-71.98-30.09-28.73-55.13-7.67-40.89-58.78-28.11-61.33,15.33-2.56,74.11,89.44,84.33,104.38,126.16,14.94,42.8,5.18,86.23-25.29,92.87-3.14.68-6.39.79-9.59.62-39.55-2.1-48.78-31.38-41.39-53.55,9.39-27.75,43.44-17.89,38.33,12.78,13.26.29,21.84-15.08,12.26-31.81-3.72-6.5-9.54-11.54-16.23-14.91-73.93-37.21-137.32-74.52-105.91-160.28,43.79-102.17,166.31-53.82,150.23,38.51-1.99,11.44-7.71,22.07-16.72,29.39Z"/>
            <g class="cls-30">
              <path class="cls-13" d="m162.37,954.72c-14.94-41.83-106.94-52.05-104.38-126.16.22-3.71.81-7.17,1.68-10.41-3.74,6.05-6.27,13.51-6.79,22.25-2.56,73.56,89.44,83.71,104.38,125.23,8.39,23.87,8.99,47.93,2.5,65.61,11.49-17.91,12.79-47.35,2.61-76.52Z"/>
              <path class="cls-13" d="m135.47,1003.17c-2.87,2.76-6.69,4.37-11.03,4.28,5.11-30.67-28.94-40.53-38.33-12.78-.24.71-.45,1.42-.65,2.14,10.24-13.17,28.87-8.72,33.39,7.47,2.47,8.85,15.14,8.5,16.55-.57.03-.18.05-.36.08-.54Z"/>
              <path class="cls-13" d="m159.66,850.72c-.34,1.93-.83,3.83-1.38,5.71,3.2-5.33,5.41-11.27,6.49-17.47,16.08-92.33-106.44-140.68-150.23-38.51-.54,1.47-.98,2.89-1.46,4.32,46.54-91.11,162.24-43.28,146.58,45.95Z"/>
              <path class="cls-13" d="m100.26,837.69c3.18-4.63,7.73-8.94,13.96-12.52-.48-2.54-1.13-4.88-1.93-7.01-6.78,5.76-10.56,12.59-12.03,19.52Z"/>
            </g>
            <g class="cls-28">
              <path class="cls-6" d="m148.06,868.35c3.09-2.51,5.76-5.44,8.06-8.63-30.2,21.66-59.01-17.02-40.53-44.11-37.32,26.2-2.6,81.25,32.47,52.74Z"/>
              <path class="cls-6" d="m147.3,1037.37c-3.14.68-6.39.79-9.59.62-39.55-2.1-48.78-31.38-41.39-53.55.56-1.65,1.21-3.15,1.92-4.54-5.04,2.27-9.54,7.06-12.15,14.76-7.39,22.16,1.84,51.44,41.39,53.55,3.21.17,6.46.07,9.59-.62,9.24-2.02,16.56-7.43,21.88-15.17-3.47,2.31-7.35,4.01-11.66,4.95Z"/>
              <path class="cls-6" d="m136.69,975.63c4.43,7.74,4.95,15.16,2.95,20.9,10.23-3.13,15.59-16.6,7.28-31.12-3.72-6.5-9.54-11.54-16.23-14.91-73.93-37.21-137.32-74.52-105.91-160.28,5.01-11.68,11.05-21.37,17.79-29.27-10.89,9.19-20.58,22.17-28.01,39.49-31.41,85.75,31.98,123.07,105.91,160.28,6.69,3.37,12.51,8.41,16.23,14.91Z"/>
            </g>
            <path class="cls-6" d="m130.07,1054.67c-.94,0-1.91-.03-2.91-.08-24.25-1.29-36.39-11.91-42.3-20.58-7.82-11.48-9.62-26.94-4.81-41.36,5.96-17.62,20.37-22.69,31.23-19.97,9.67,2.43,18.9,11.29,19.98,25.72.53-.55,1.01-1.17,1.42-1.87,2.75-4.63,2.18-11.25-1.53-17.72-2.92-5.1-7.61-9.38-13.56-12.37-64.19-32.3-144.08-72.5-109.04-168.18.04-.11.08-.21.13-.32,24.85-57.99,71.47-67.33,103.84-57.73,35.88,10.66,67.52,48.38,58.55,99.85-2.33,13.39-9.07,25.2-18.98,33.25-11.66,9.48-25.12,11.92-36.92,6.69-12.56-5.57-21.2-18.67-21.99-33.37-.77-14.35,6.05-27.37,18.86-36.33-3.18-10.35-10.34-16.09-19.73-15.46-12.62.8-26.7,13.02-27.94,34.1-1.42,41.11,28.97,60.78,58.36,79.82,20.08,13,39.04,25.28,45.66,43.82,10.15,29.09,9.55,59.47-1.57,79.34-6.56,11.73-16.37,19.31-28.37,21.93-2.57.56-5.33.84-8.38.84Zm-24.55-69.93c-4.75,0-10.34,3.05-13.36,11.97-3.54,10.64-2.33,21.9,3.26,30.1,6.15,9.02,17.36,14.22,32.42,15.02,3.07.16,5.66,0,7.89-.48,8.44-1.84,15.16-7.12,19.95-15.68,9.38-16.77,9.64-43.15.67-68.85-5.15-14.42-22.35-25.56-40.56-37.35-29.34-19-65.85-42.64-64.17-91.13,1.68-28.56,21.81-45.11,39.9-46.26,17.12-1.07,30.48,10.68,34.1,29.97.5,2.66-.73,5.35-3.08,6.71-15.23,8.82-16.93,20.82-16.59,27.18.53,9.8,6.32,18.79,14.41,22.38,7.47,3.31,15.66,1.61,23.68-4.92h0c7.52-6.11,12.65-15.18,14.45-25.53,8.04-46.17-20.07-76.64-49.6-85.41-27.32-8.11-66.83.22-88.39,50.36-28.76,78.78,24.49,112.78,102.84,152.21,8.2,4.12,14.73,10.15,18.91,17.44,6.03,10.52,6.56,21.96,1.43,30.6-4.12,6.92-11.41,10.99-19.37,10.78-1.85-.04-3.6-.88-4.78-2.31-1.18-1.43-1.69-3.3-1.38-5.13,2.07-12.42-3.72-19.76-9.97-21.33-.84-.21-1.73-.32-2.65-.32Z"/>
          </g>
          <path class="cls-19" d="m543.66,944.25c-.13,4.63-.41,9.2-.87,13.75-8.48,86.27-73.7,156.55-157.7,170.48v134.52c.95.26,1.92.54,2.89.82,15.67,4.47,35.21,11.7,56.22,23.48,23.33,13.11,40.94,27.68,53.33,39.58H208.76c33.17-30.74,70.71-53.51,115-63.89v-134.34c-88.78-14.21-156.68-91.15-159.33-183.28-1.89-65.52-.74-130.33,3.71-194.37,1.18-17.1,15-30.61,32.12-31.51,3.94-.2,7.85-.41,11.78-.59,98.74-4.88,197.56-4.68,296.51.59,17.12.92,30.97,14.44,32.12,31.56,4.04,61.66,4.83,126.24,2.99,193.19Z"/>
          <g class="cls-28">
            <path class="cls-6" d="m391.67,1128.47v134.52c.91.26,1.84.54,2.77.82-20.72-1.23-41.61,1.38-60.41,10.2-21.62,10.15-39.99,29.46-46.77,52.87h-64.55c31.79-30.74,67.76-53.51,110.2-63.89v-134.34c-85.07-14.21-150.14-91.15-152.69-183.28-1.81-65.52-.71-130.33,3.55-194.37,1.13-17.1,14.37-30.61,30.78-31.51,3.77-.2,7.52-.41,11.29-.59l-.27,3.07c-15.92,10.17-17.88,33.09-18.07,52.59-.47,45.74-.91,91.49-1.37,137.23-.17,16.61-.29,33.48,3.65,49.58,12.54,50.96,62.96,82.18,112.18,93.63,46.75,10.89,97.22,8.64,140.64-12.5,35.19-17.12,65.09-47.51,80.2-84.51-8.13,86.27-70.63,156.55-151.12,170.48Z"/>
          </g>
          <g>
            <g class="cls-30">
              <path class="cls-13" d="m210.93,1326.88c29.1-23.61,61.55-41.11,98.77-49.83v-10.25c-38.25,11.59-71.34,32.65-100.94,60.08h2.17Z"/>
            </g>
            <g class="cls-30">
              <path class="cls-13" d="m540.67,751.05c-1.15-17.12-15-30.64-32.12-31.56-98.95-5.26-197.77-5.47-296.51-.59-3.94.18-7.85.38-11.78.59-12.25.64-22.78,7.76-28.23,18,4.27-2.27,9.07-3.68,14.17-3.95,3.94-.2,7.85-.41,11.78-.59,81.47-4.03,163-4.54,244.61-1.65v185.62c0,14,11.35,25.35,25.35,25.35h2.97c14,0,25.35-11.35,25.35-25.35v-183.21c16.3,1.72,29.25,14.86,30.36,31.38,4.04,61.66,4.83,126.24,2.99,193.19-.13,4.63-.41,9.2-.87,13.75-4.16,42.26-21.95,80.66-48.87,110.5,34.74-31.32,58.09-75.32,62.93-124.56.46-4.55.74-9.12.87-13.75,1.84-66.95,1.05-131.53-2.99-193.19Z"/>
            </g>
            <g class="cls-30">
              <path class="cls-13" d="m387.98,1263.81c-.97-.28-1.94-.56-2.89-.82v-123.39c-4.62,1.14-9.3,2.13-14.06,2.92v134.52c.95.26,1.92.54,2.89.82,15.67,4.47,35.21,11.7,56.22,23.48,14.73,8.28,27.16,17.13,37.46,25.53h29.93c-12.39-11.91-30-26.47-53.33-39.58-21.01-11.78-40.56-19.01-56.22-23.48Z"/>
            </g>
          </g>
          <g class="cls-30">
            <circle class="cls-13" cx="470.7" cy="975.5" r="25.55"/>
          </g>
          <path class="cls-6" d="m497.54,1333.57H208.76c-2.75,0-5.22-1.69-6.23-4.25-1-2.56-.34-5.48,1.68-7.35,35.28-32.7,72.25-53.75,112.85-64.22v-123.48c-90-17.12-156.65-95.58-159.33-188.71-1.91-66.32-.66-131.93,3.72-195.03,1.41-20.43,17.93-36.65,38.45-37.73,102.4-5.45,206.36-5.45,309,0,20.54,1.11,37.07,17.35,38.44,37.79,3.89,59.47,4.9,124.68,3,193.83-2.55,93.19-68.87,172.04-158.56,189.63v123.89c19.38,5.73,38.09,13.63,55.7,23.52,19.85,11.15,38.25,24.81,54.68,40.59,1.97,1.89,2.59,4.79,1.57,7.32-1.02,2.53-3.48,4.19-6.21,4.19Zm-271.03-13.38h253.57c-12.17-10.21-25.29-19.28-39.14-27.06-18.15-10.2-37.53-18.17-57.61-23.69-2.9-.8-4.92-3.44-4.92-6.45v-134.52c0-3.27,2.37-6.06,5.59-6.6,86.21-14.3,150.55-89.08,152.98-177.81,1.89-68.74.89-133.53-2.98-192.58-.92-13.69-12.02-24.58-25.81-25.32-102.16-5.43-205.65-5.43-307.58,0-13.77.72-24.86,11.59-25.81,25.29-4.35,62.66-5.59,127.84-3.69,193.72,2.56,88.64,67.2,163.02,153.71,176.87,3.24.52,5.63,3.32,5.63,6.6v134.34c0,3.11-2.14,5.8-5.16,6.51-35.29,8.27-67.75,24.9-98.78,50.69Z"/>
          <path class="cls-6" d="m292.15,1265.72c19.91-6.19,40.46-7.41,60.11-5.24,4.11.49,3.8,6.59-.34,6.65-19.02.11-37.9,3.56-55.1,11.15-8.69,3.39-13.48-9.44-4.67-12.56h0Z"/>
          <path class="cls-6" d="m286.47,1111.43c23.59,8.61,48.32,13.94,73.24,14.55,1.84.05,3.3,1.58,3.25,3.42-.04,1.87-1.61,3.29-3.43,3.27-25.79,1.61-52.18-1.73-77.64-8.67-3.57-.97-5.68-4.65-4.7-8.23,1.05-3.99,5.55-6.03,9.28-4.34h0Z"/>
          <g>
            <g class="cls-28">
              <path class="cls-6" d="m276.07,1020.86c-4.82-1.62-7.51-6.72-6.13-11.62.76-2.72,1.61-5.24,2.55-7.57-4.89,1.23-10.7,1.66-17.28,1.22-.79-.05-1.62-.21-2.41-.48-4.75-1.6-7.45-6.65-6.15-11.5,1.65-5.93,3.73-10.92,6.22-14.94-2.09.05-4.28,0-6.56-.15-.79-.05-1.62-.21-2.41-.47-4.75-1.6-7.45-6.65-6.15-11.51,3.49-12.53,8.88-20.83,16.03-24.73.63-.34,1.25-.64,1.86-.9l-.05-.45,3.55-2.6c.28-.21,1.18-.84,2.57-1.55.66-2.11,1.77-4.08,3.33-5.84,3.26-3.72,11.76-9.64,20.65-13.82-.87-.33-1.76-.64-2.66-.95-3.83-1.29-7.88-2.33-12.05-3.09-.51-.09-1-.22-1.47-.38-3.46-1.16-6.03-3.99-6.87-7.55-.84-3.56.21-7.23,2.8-9.83,1.29-1.29,2.63-2.54,3.97-3.71,12.85-11.27,27.21-16.16,43.85-14.91,3.21.24,6.47.69,9.89,1.38,7.78-7.13,16.47-13.81,25.89-19.87.91-.6,1.89-1.21,2.86-1.81,3.81-2.37,7.8-4.64,11.85-6.76,5.25-2.74,10.59-5.19,15.89-7.27,7.69-3.03,15.47-5.41,23.15-7.07,1.4-.31,2.83-.59,4.23-.85,24.76-4.56,43.55-1.05,52.55,1.45.26.07.5.15.74.23,6.15,2.07,10.2,7.81,10.08,14.29-.15,8.39-1.81,25.53-11.24,45.97-9.07,19.64-23.07,37.68-41.62,53.6-8.94,7.68-18.29,14.4-27.86,20.02-.66,4.41-1.58,8.45-2.77,12.26-4.95,15.93-14.75,27.49-29.98,35.33-1.65.86-3.27,1.63-4.92,2.33-2.35,1.02-5.03,1.14-7.49.32h0c-4.99-1.68-7.98-6.84-6.95-12,.92-4.69,1.46-9.38,1.6-13.87-6.61,6.82-14.36,12.56-18.48,14.34-2.13.93-4.35,1.38-6.55,1.36-1.09,1.09-1.96,1.75-2.24,1.96l-.91.66c-4.52,8.53-16.12,12.87-32.51,11.81-.86-.06-1.65-.22-2.41-.48Z"/>
            </g>
            <path class="cls-13" d="m277.53,1016.54c-4.82-1.62-7.51-6.72-6.13-11.62.76-2.72,1.61-5.24,2.55-7.57-4.89,1.23-10.7,1.66-17.28,1.22-.79-.05-1.62-.21-2.41-.48-4.75-1.6-7.45-6.65-6.15-11.5,1.65-5.93,3.73-10.92,6.22-14.94-2.09.05-4.28,0-6.56-.15-.79-.05-1.62-.21-2.41-.47-4.75-1.6-7.45-6.65-6.15-11.51,3.49-12.53,8.88-20.83,16.03-24.73.63-.34,1.25-.64,1.86-.9l-.05-.45,3.55-2.6c.28-.21,1.18-.84,2.57-1.55.66-2.11,1.77-4.08,3.33-5.84,3.26-3.72,11.76-9.64,20.65-13.82-.87-.33-1.76-.64-2.66-.95-3.83-1.29-7.88-2.33-12.05-3.09-.51-.09-1-.22-1.47-.38-3.46-1.16-6.03-3.99-6.87-7.55-.84-3.56.21-7.23,2.8-9.83,1.29-1.29,2.63-2.54,3.97-3.71,12.85-11.27,27.21-16.16,43.85-14.91,3.21.24,6.47.69,9.89,1.38,7.78-7.13,16.47-13.81,25.89-19.87.91-.6,1.89-1.21,2.86-1.81,3.81-2.37,7.8-4.64,11.85-6.76,5.25-2.74,10.59-5.19,15.89-7.27,7.69-3.03,15.47-5.41,23.15-7.07,1.4-.31,2.83-.59,4.23-.85,24.76-4.56,43.55-1.05,52.55,1.45.26.07.5.15.74.23,6.15,2.07,10.2,7.81,10.08,14.29-.15,8.39-1.81,25.53-11.24,45.97-9.07,19.64-23.07,37.68-41.62,53.6-8.94,7.68-18.29,14.4-27.86,20.02-.66,4.41-1.58,8.45-2.77,12.26-4.95,15.93-14.75,27.49-29.98,35.33-1.65.86-3.27,1.63-4.92,2.33-2.35,1.02-5.03,1.14-7.49.32h0c-4.99-1.68-7.98-6.84-6.95-12,.92-4.69,1.46-9.38,1.6-13.87-6.61,6.82-14.36,12.56-18.48,14.34-2.13.93-4.35,1.38-6.55,1.36-1.09,1.09-1.96,1.75-2.24,1.96l-.91.66c-4.52,8.53-16.12,12.87-32.51,11.81-.86-.06-1.65-.22-2.41-.48Z"/>
            <path class="cls-16" d="m334.8,881.14l-26.84,31.6c-8.25-7.01-20.75-12.15-34.14-14.61-2.32-.43-3.2-3.26-1.53-4.92,1.18-1.19,2.37-2.29,3.57-3.33,12.5-10.96,25.32-14.05,38.31-13.08,6.83.5,13.72,2.13,20.64,4.34Z"/>
            <path class="cls-6" d="m307.96,914.64c-.43,0-.87-.15-1.23-.45-7.73-6.56-19.86-11.74-33.27-14.2-1.77-.32-3.2-1.59-3.73-3.3-.53-1.71-.07-3.56,1.2-4.83,22.11-22.15,44.99-18.77,64.44-12.54.6.19,1.07.68,1.25,1.29.17.61.03,1.27-.38,1.75l-26.84,31.6c-.38.44-.91.67-1.45.67Zm2.01-36.12c-11.88,0-24.27,3.93-36.35,16.03-.4.4-.31.85-.26,1.02.05.17.24.59.79.69,13.23,2.42,25.33,7.43,33.56,13.84l23.78-28c-6.84-2.04-14.08-3.58-21.52-3.58Z"/>
            <g class="cls-28">
              <path class="cls-6" d="m334.8,881.14l-26.84,31.6c-8.25-7.01-20.75-12.15-34.14-14.61-2.32-.43-3.2-3.26-1.53-4.92,1.18-1.19,2.37-2.29,3.57-3.33,1.57,2.15,3.86,3.68,6.22,4.9,5.21,2.65,11.23,3.95,17.01,2.95,5.77-1.01,11.19-4.51,13.89-9.71,1.77-3.41,2.2-7.53,1.19-11.22,6.83.5,13.72,2.13,20.64,4.34Z"/>
            </g>
            <path class="cls-16" d="m384.64,951.73l-39.24,13.39c3.49,10.25,3.7,23.76,1.07,37.12-.45,2.32,1.86,4.17,4.02,3.23,1.54-.67,3.01-1.37,4.41-2.1,14.78-7.61,22.36-18.4,26.22-30.85,2.04-6.54,3.05-13.55,3.53-20.79Z"/>
            <path class="cls-6" d="m349.31,1007.62c-1.08,0-2.14-.36-3-1.06-1.39-1.12-2.04-2.91-1.7-4.68,2.63-13.37,2.26-26.55-1.01-36.15-.34-.99.19-2.07,1.18-2.41l39.24-13.38c.6-.21,1.26-.1,1.77.29.5.39.78,1,.74,1.63-1.34,20.39-6.58,42.91-35.29,55.36-.62.27-1.28.4-1.93.4Zm-1.54-41.31c2.94,10.01,3.16,23.11.57,36.3-.11.55.21.87.35.99.14.11.53.35,1.04.13,25.52-11.07,31.22-30.82,32.8-49.27l-34.76,11.86Z"/>
            <g class="cls-28">
              <path class="cls-6" d="m384.64,951.73l-39.24,13.39c3.49,10.25,3.7,23.76,1.07,37.12-.45,2.32,1.86,4.17,4.02,3.23,1.54-.67,3.01-1.37,4.41-2.1-1.42-2.25-2.01-4.94-2.27-7.58-.55-5.82.44-11.9,3.49-16.9,3.05-5,8.3-8.76,14.12-9.36,3.82-.4,7.81.72,10.87,3,2.04-6.54,3.05-13.55,3.53-20.79Z"/>
            </g>
            <path class="cls-16" d="m298.11,985.74s-12.43-3.83-19.41,21.25c-.33,1.18.5,2.36,1.72,2.44,6.56.43,24.88.57,26.4-11.34l-8.72-12.36Z"/>
            <path class="cls-22" d="m299.41,987.5s-8.82-2.72-13.75,15.13c-.22.78.34,1.57,1.15,1.62,4.54.31,17.69.47,18.77-8.01l-6.16-8.74Z"/>
            <path class="cls-15" d="m300.88,988.6s-5.95-1.83-9.28,10.21c-.15.53.23,1.06.77,1.09,3.07.21,11.93.32,12.66-5.4l-4.16-5.9Z"/>
            <path class="cls-6" d="m284.71,1011.01c-1.65,0-3.15-.06-4.38-.15-1.01-.07-1.93-.58-2.51-1.4-.59-.83-.77-1.87-.5-2.85,3-10.8,7.39-17.83,13.02-20.91,4.46-2.44,8.03-1.38,8.19-1.33.3.09.56.28.75.54l8.72,12.36c.21.29.29.65.25,1-1.39,10.88-14.69,12.73-23.53,12.73Zm11.58-24.05c-1.1,0-2.76.24-4.68,1.31-3.36,1.88-8.09,6.72-11.54,19.11-.06.2.02.35.07.43.05.07.17.19.37.21,5.4.36,22.91.7,24.81-9.56l-8.06-11.43c-.24-.04-.57-.07-.97-.07Z"/>
            <path class="cls-14" d="m313.85,991.49c-1.41,4.33-4.98,6.93-4.98,6.93,0,0-3.35-1.51-7.28-6.9-3.93-5.4-4.34-9.05-4.34-9.05,0,0,3.57-2.6,8.12-2.62"/>
            <path class="cls-6" d="m308.86,999.91c-.21,0-.42-.04-.61-.13-.15-.07-3.76-1.74-7.87-7.39-4.12-5.65-4.6-9.59-4.62-9.76-.06-.53.17-1.06.6-1.37.16-.12,4.02-2.89,9-2.91h0c.82,0,1.49.66,1.49,1.49,0,.82-.66,1.49-1.48,1.49-2.81,0-5.24,1.15-6.45,1.84.36,1.31,1.34,4,3.87,7.46,2.52,3.46,4.78,5.22,5.92,5.97,1.02-.94,2.86-2.91,3.73-5.58.25-.78,1.1-1.21,1.88-.96.78.26,1.21,1.1.96,1.88-1.54,4.73-5.36,7.55-5.52,7.67-.26.19-.57.29-.88.29Z"/>
            <path class="cls-16" d="m319.13,994.27c-7.02,3.05-12.03-4.2-13.25-5.88-1.22-1.67-6.58-8.66-1.53-14.42,5.11-5.82,32.79-22.88,39.7-13.39s-17.81,30.61-24.92,33.68Z"/>
            <g class="cls-30">
              <path class="cls-13" d="m304.76,986.79c-1.18-2.86-1.65-6.51,1.21-9.77,4.98-5.67,31.4-22.03,39.14-14.06-.18-.85-.52-1.65-1.06-2.38-6.92-9.49-34.6,7.57-39.71,13.39-4.04,4.6-1.42,9.99.42,12.82Z"/>
            </g>
            <g class="cls-28">
              <path class="cls-6" d="m317.44,991.84c-5.54,2.4-9.82-1.6-11.99-4.22,1.43.24,3,.1,4.69-.63,6.13-2.65,25.38-18.73,26.11-29.19,2.82-.18,5.22.32,6.89,1.79,3.8,10.04-18.94,29.31-25.7,32.24Z"/>
            </g>
            <path class="cls-6" d="m315.72,996.5c-3.18,0-7.01-1.65-10.95-7.09l1-1.15-1.2.88c-5.83-7.96-3.95-13.17-1.35-16.14,4.61-5.25,23.61-17.23,34.84-16.7,3.23.15,5.65,1.3,7.19,3.41,1.54,2.12,1.89,4.78,1.04,7.9-2.95,10.82-20.17,25.26-26.57,28.03h0c-1.16.5-2.51.86-4,.86Zm21.61-37.24c-10.11,0-27.86,11.14-31.87,15.7-2.78,3.17-2.29,7.23,1.51,12.42,0,0,.21.29.21.29,3.77,5.2,7.48,6.91,11.35,5.24h0c5.68-2.46,22.25-16.43,24.88-26.08.61-2.23.42-3.99-.58-5.36-1-1.37-2.61-2.09-4.92-2.19-.19,0-.39-.01-.59-.01Z"/>
            <path class="cls-6" d="m328.92,988.57c-.23,0-.46-.07-.66-.22-7.26-5.35-12.61-12.7-15.48-21.25-.2-.58.12-1.22.7-1.42.59-.19,1.22.12,1.41.7,2.73,8.12,7.81,15.09,14.69,20.17.5.37.6,1.07.24,1.56-.22.3-.56.45-.9.45Z"/>
            <path class="cls-16" d="m265.96,940.24s-12.43-3.83-19.41,21.25c-.33,1.18.5,2.36,1.72,2.44,6.56.43,24.88.57,26.4-11.34l-8.72-12.36Z"/>
            <path class="cls-22" d="m267.26,942.01s-8.82-2.72-13.75,15.13c-.22.78.34,1.57,1.15,1.62,4.54.31,17.69.47,18.77-8.01l-6.16-8.74Z"/>
            <path class="cls-15" d="m268.73,943.1s-5.95-1.83-9.28,10.21c-.15.53.23,1.06.77,1.09,3.07.21,11.93.32,12.66-5.4l-4.16-5.9Z"/>
            <path class="cls-6" d="m252.57,965.51c-1.65,0-3.15-.06-4.38-.15-1.01-.07-1.93-.58-2.51-1.41-.59-.83-.77-1.86-.49-2.84,3-10.79,7.38-17.83,13.02-20.91,4.45-2.43,8.04-1.38,8.19-1.33.3.09.56.28.75.54l8.72,12.36c.21.29.29.65.25,1-1.39,10.88-14.69,12.73-23.53,12.73Zm11.58-24.06c-1.1,0-2.76.24-4.68,1.31-3.36,1.88-8.09,6.72-11.54,19.11-.06.2.02.35.07.43.05.07.17.19.37.21,5.4.37,22.91.7,24.8-9.56l-8.06-11.43c-.24-.04-.57-.07-.97-.07Z"/>
            <path class="cls-14" d="m281.7,946c-1.41,4.33-4.98,6.93-4.98,6.93,0,0-3.35-1.51-7.28-6.9-3.93-5.4-4.34-9.05-4.34-9.05,0,0,3.57-2.6,8.12-2.62"/>
            <path class="cls-6" d="m276.72,954.41c-.21,0-.42-.04-.61-.13-.15-.07-3.76-1.74-7.87-7.39-4.12-5.65-4.6-9.59-4.62-9.76-.06-.53.17-1.06.6-1.37.16-.12,4.02-2.89,9-2.9h0c.82,0,1.49.66,1.49,1.49,0,.82-.66,1.49-1.48,1.49-2.83,0-5.25,1.15-6.45,1.83.36,1.31,1.34,4,3.87,7.47,2.52,3.46,4.78,5.22,5.92,5.97,1.02-.94,2.86-2.91,3.73-5.58.26-.78,1.1-1.21,1.88-.96.78.26,1.21,1.1.96,1.88-1.54,4.73-5.36,7.55-5.52,7.67-.26.19-.57.29-.88.29Z"/>
            <path class="cls-16" d="m286.98,948.77c-7.02,3.05-12.03-4.2-13.25-5.88-1.22-1.67-6.58-8.66-1.53-14.42,5.11-5.82,32.79-22.88,39.7-13.39s-17.81,30.61-24.92,33.68Z"/>
            <g class="cls-30">
              <path class="cls-13" d="m272.61,941.3c-1.18-2.86-1.65-6.51,1.21-9.77,4.98-5.67,31.4-22.03,39.14-14.06-.18-.85-.52-1.65-1.06-2.38-6.92-9.49-34.6,7.57-39.71,13.39-4.04,4.6-1.42,9.99.42,12.82Z"/>
            </g>
            <g class="cls-28">
              <path class="cls-6" d="m285.29,946.34c-5.54,2.4-9.82-1.6-11.99-4.22,1.43.24,3,.1,4.69-.63,6.13-2.65,25.38-18.73,26.11-29.19,2.82-.18,5.22.32,6.89,1.79,3.8,10.04-18.94,29.31-25.7,32.24Z"/>
            </g>
            <path class="cls-6" d="m283.57,951c-3.18,0-7.01-1.65-10.96-7.09l1-1.15-1.2.88c-5.83-7.97-3.95-13.18-1.35-16.14,4.61-5.25,23.57-17.26,34.84-16.7,3.23.15,5.65,1.3,7.19,3.41,1.54,2.12,1.9,4.78,1.04,7.9-2.95,10.82-20.17,25.26-26.58,28.03-1.16.5-2.51.86-4,.86Zm21.61-37.24c-10.11,0-27.86,11.14-31.87,15.7-2.78,3.17-2.29,7.23,1.51,12.42,0,0,.21.28.21.28,3.77,5.21,7.48,6.92,11.35,5.24h0c5.68-2.46,22.25-16.43,24.88-26.09.61-2.23.42-3.99-.58-5.36-1-1.37-2.61-2.09-4.92-2.19-.19,0-.39-.01-.59-.01Z"/>
            <path class="cls-6" d="m296.78,943.07c-.23,0-.46-.07-.66-.22-7.26-5.36-12.61-12.71-15.48-21.25-.2-.58.12-1.22.7-1.42.58-.19,1.22.12,1.41.7,2.72,8.11,7.8,15.09,14.69,20.17.5.37.6,1.07.24,1.56-.22.3-.56.45-.9.45Z"/>
            <path class="cls-14" d="m325.46,974.91l-8.11,3.62c-3.67,1.64-7.94,1.12-11.12-1.33h0c-9.47-7.32-16.76-17.08-21.08-28.25h0c-1.45-3.75-.72-7.99,1.89-11.04l5.78-6.75,32.65,43.76Z"/>
            <path class="cls-14" d="m287.02,953.31c2.25,4.76,5.06,9.22,8.36,13.29,3.18,3.92,6.81,7.48,10.84,10.59,3.18,2.45,7.46,2.97,11.12,1.33l8.12-3.62-14.75-19.77-17.9-23.98-5.78,6.75c-1.3,1.53-2.14,3.35-2.47,5.26-.33,1.91-.15,3.91.58,5.78.57,1.48,1.2,2.94,1.87,4.37Z"/>
            <path class="cls-13" d="m292.74,963.12c.39.55.78,1.09,1.19,1.63-2.57-3.89-4.72-8.06-6.42-12.45-.72-1.87-.91-3.87-.58-5.78.33-1.91,1.16-3.73,2.47-5.26l5.78-6.75-1.21-1.61-1.16-1.74-5.77,6.75c-1.31,1.53-2.14,3.35-2.47,5.26-.33,1.91-.15,3.91.58,5.78,1.95,5.04,4.5,9.8,7.59,14.17Z"/>
            <path class="cls-13" d="m464.25,842.78c-.14,7.9-1.72,23.81-10.54,42.93-7.25,15.72-19.39,33.62-39.66,51.03-13.15,11.29-25.81,19.26-37.25,24.87-29.84,14.64-51.33,13.29-51.33,13.29-.41-.27-.83-.54-1.23-.82-7.8-5.26-14.53-11.84-19.93-19.38-2.96-4.13-5.51-8.54-7.63-13.19-.06-.13-.12-.26-.17-.38-1.45-3.23-2.68-6.56-3.69-9.98,0,0,1.69-7.35,7.74-18.42.99-1.82,2.1-3.72,3.33-5.72,1.47-2.36,3.11-4.85,4.96-7.42.17-.24.35-.49.53-.73,2.38-3.28,5.08-6.69,8.15-10.2.85-.96,1.72-1.94,2.62-2.91,8.64-9.37,19.89-19.25,34.47-28.65.91-.58,1.82-1.16,2.73-1.71,3.85-2.4,7.65-4.56,11.39-6.5,5.18-2.7,10.24-5,15.14-6.93,7.72-3.05,15.07-5.22,21.97-6.72,1.36-.3,2.7-.57,4.03-.81,23.31-4.3,40.91-.97,49.11,1.3,3.15.87,5.31,3.77,5.25,7.05Z"/>
            <path class="cls-21" d="m331.47,896.4c.09-.25.18-.49.25-.73-.15.4-.22.64-.25.73Z"/>
            <path class="cls-11" d="m445.62,900.61c5.2-8.28,8.97-16.24,11.69-23.54.03-.09.06-.18.1-.27.38-1.02.74-2.03,1.08-3.03,0-.03.02-.06.03-.09.11-.34.23-.68.34-1.02.11-.34.22-.68.33-1.01.12-.36.23-.73.34-1.09.19-.63.38-1.26.56-1.88.28-.97.55-1.93.79-2.87.08-.32.16-.63.24-.93.31-1.24.59-2.44.85-3.62.06-.29.12-.59.19-.88.55-2.6.96-5.03,1.26-7.26.05-.37.1-.73.14-1.09.05-.38.09-.76.13-1.13s.08-.73.12-1.09c.03-.3.06-.6.09-.89.04-.44.08-.86.11-1.27.14-1.77.21-3.33.23-4.67-.43,1-.89,2-1.35,3.01-5.74,12.45-13.77,25.91-24.96,39.66,2.78,4.86,5.35,9.84,7.69,14.95Z"/>
            <path class="cls-10" d="m445.62,900.61c5.26-8.38,9.05-16.43,11.79-23.8.26-.7.51-1.4.75-2.09.12-.35.24-.69.36-1.03h0c.11-.35.22-.68.33-1.02.22-.68.44-1.35.64-2.01.19-.6.37-1.2.54-1.78.49-1.69.93-3.33,1.32-4.91.07-.27.13-.54.19-.8.74-3.13,1.29-6.05,1.69-8.71.03-.19.06-.39.09-.58.05-.31.09-.61.13-.91.11-.79.2-1.56.28-2.29.02-.19.04-.37.06-.55.04-.36.07-.72.1-1.07.02-.17.03-.35.05-.52.03-.34.06-.68.08-1.01.05-.66.09-1.29.12-1.89.06-1.05.09-2.01.1-2.87,0-.36-.01-.72-.06-1.07-.04-.26-.08-.52-.15-.78-.02-.08-.04-.17-.07-.25-5.83,8.11-16.19,21.55-30.88,36.98,4.69,7.33,8.87,15,12.52,22.95Z"/>
            <path class="cls-16" d="m398.25,837.13c8.06,7.06,15.48,14.76,22.2,23.03,10.03,12.34,18.5,25.92,25.17,40.45,16.03-25.55,18.45-47.95,18.63-57.83.06-3.27-2.1-6.17-5.26-7.05-.24-.07-.49-.14-.74-.2-9.9-2.63-31.67-6.29-60,1.6Z"/>
            <g class="cls-28">
              <path class="cls-6" d="m461.55,847.96s0,0,0,0c-1.01,8.64-3.61,20.71-9.94,34.44-7.25,15.71-19.39,33.61-39.66,51.03-13.15,11.29-25.81,19.26-37.25,24.87-29.84,14.65-51.34,13.29-51.34,13.29,0,0,0,0,0,0h0s-8.12,3.62-8.12,3.62c-3.67,1.64-7.94,1.12-11.12-1.33-3.11-2.41-5.99-5.08-8.6-7.98l11.1-8.3c-.28-.35-.56-.7-.84-1.06l15.62-14.9s8.61,7.54-.73,20.13c10.78-2.59,23.91-6.91,38.52-14.08,8.29-4.07,17.07-9.07,26.17-15.18-9.27-.48-17.98-5.91-22.23-14.89-6.15-13.01-.58-28.54,12.43-34.68,13.01-6.15,28.54-.58,34.68,12.43,2.5,5.29,3.06,11.01,1.97,16.33,24.54-21.74,39.83-43.94,49.33-63.73Z"/>
            </g>
            <g class="cls-30">
              <path class="cls-13" d="m463.3,846.46c.06-3.27-2.1-6.17-5.26-7.05-.24-.07-.49-.14-.74-.2-9.44-2.51-29.67-5.94-56.08.57-.98-.89-1.97-1.78-2.97-2.65,28.33-7.89,50.1-4.23,60-1.6.26.07.51.14.74.2,3.15.88,5.32,3.78,5.26,7.05-.1,5.18-.81,13.79-3.77,24.49,2.17-8.99,2.73-16.24,2.82-20.81Z"/>
            </g>
            <path class="cls-6" d="m445.62,902.51s-.08,0-.12,0c-.7-.05-1.31-.47-1.6-1.1-11.1-24.18-26.88-45.32-46.89-62.85-.52-.46-.76-1.17-.6-1.85.15-.68.67-1.22,1.34-1.41,28.71-7.99,50.74-4.38,61.32-1.51,4.28,1.16,7.19,5.06,7.08,9.49-.27,10.96-3.08,33.1-18.91,58.34-.35.56-.96.89-1.61.89Zm-43.47-64.45c18.29,16.62,32.97,36.29,43.69,58.55,13.75-23.22,16.26-43.29,16.51-53.42.07-2.68-1.69-5.04-4.28-5.74-9.78-2.65-29.74-5.96-55.92.61Z"/>
            <path class="cls-6" d="m327.26,976.85c-1.08,0-1.73-.04-1.91-.05-.33-.02-.64-.12-.91-.3-8.03-5.21-15.01-11.74-20.74-19.41-5.73-7.68-10-16.22-12.7-25.4-.09-.31-.1-.64-.03-.96.39-1.67,10.02-41.32,62.64-75.21,14.4-9.27,29.25-16.07,44.14-20.22.62-.17,1.28-.02,1.76.4,20.41,17.88,36.51,39.44,47.83,64.1.28.58.25,1.27-.1,1.83-8.22,13.1-18.97,25.4-31.95,36.56-42.29,36.33-79.24,38.67-88.02,38.67Zm-1.2-3.82c4.72.13,43.24-.34,86.75-37.72,12.41-10.66,22.72-22.37,30.66-34.83-10.93-23.48-26.3-44.08-45.69-61.24-14.2,4.06-28.36,10.61-42.12,19.47-48.32,31.13-59.64,67.88-60.87,72.41,2.58,8.56,6.6,16.53,11.95,23.7,5.35,7.17,11.85,13.3,19.32,18.21Z"/>
            <path class="cls-6" d="m312.9,980.99c-2.7,0-5.38-.88-7.6-2.6-9.69-7.49-17.15-17.48-21.56-28.9-1.65-4.28-.83-9.1,2.15-12.58l5.78-6.75c.55-.64,1.5-.71,2.14-.17.64.55.71,1.5.17,2.14l-5.78,6.75c-2.25,2.63-2.88,6.28-1.63,9.51,4.22,10.9,11.33,20.45,20.59,27.59,2.74,2.12,6.41,2.55,9.58,1.15l8.11-3.62c.77-.34,1.66,0,2.01.77.34.77,0,1.67-.77,2.01l-8.11,3.62c-1.62.72-3.35,1.08-5.07,1.08Z"/>
            <g class="cls-30">
              <path class="cls-13" d="m451.59,841.6c-7.09-3.12-28.18-2.87-30.24,3.67-1.96,6.22,37.33-.55,30.24-3.67Z"/>
            </g>
            <circle class="cls-16" cx="381.91" cy="900.89" r="25.69"/>
            <g class="cls-30">
              <path class="cls-13" d="m358.17,910.79c.32.68.67,1.35,1.05,1.99-4.59-12.37.98-26.4,13.12-32.14,12.15-5.74,26.52-1.13,33.16,10.27-.26-.7-.55-1.39-.87-2.07-6.06-12.83-21.38-18.32-34.21-12.25-12.83,6.06-18.31,21.37-12.25,34.2Z"/>
            </g>
            <g class="cls-28">
              <path class="cls-6" d="m358.68,911.86c6.06,12.83,21.38,18.32,34.2,12.26,12.83-6.06,18.32-21.38,12.25-34.21-.34-.72-.7-1.4-1.1-2.07,4.52,12.34-1.05,26.32-13.16,32.04-12.11,5.72-26.45,1.15-33.11-10.18.27.73.57,1.45.91,2.16Z"/>
            </g>
            <path class="cls-6" d="m381.92,928.11c-3.09,0-6.2-.53-9.19-1.61-6.84-2.45-12.32-7.42-15.43-13.99-3.11-6.57-3.47-13.96-1.01-20.8,2.45-6.84,7.42-12.32,13.99-15.43,13.57-6.41,29.82-.58,36.23,12.98,6.41,13.56.59,29.82-12.98,36.23-3.69,1.74-7.64,2.62-11.61,2.62Zm-.06-51.4c-3.46,0-6.96.74-10.29,2.31-5.84,2.76-10.25,7.63-12.43,13.7-2.18,6.08-1.86,12.64.9,18.48h0c2.76,5.84,7.62,10.25,13.7,12.43,6.08,2.18,12.64,1.86,18.48-.9,12.05-5.69,17.22-20.13,11.53-32.18-4.12-8.72-12.83-13.85-21.9-13.85Z"/>
            <path class="cls-9" d="m367.41,907.74c2.27,4.8,6.61,7.95,11.45,8.89,2.7.53,5.56.36,8.3-.59.54-.19,1.07-.4,1.59-.65.82-.39,1.59-.83,2.31-1.34,2.44-1.69,4.3-3.99,5.46-6.59,1.85-4.13,1.96-9.01-.12-13.42-2.08-4.41-5.93-7.44-10.29-8.62-2.75-.74-5.7-.77-8.56.04-.85.23-1.68.55-2.5.93-.53.25-1.03.52-1.52.82-2.48,1.51-4.42,3.61-5.73,6.03-2.35,4.33-2.67,9.69-.4,14.5Z"/>
            <g class="cls-26">
              <path class="cls-24" d="m368.19,893.3l29.77,10.66c.53-2.92.22-5.86-.79-8.52l-22.95-8.22c-2.47,1.42-4.57,3.49-6.02,6.08Z"/>
            </g>
            <g class="cls-33">
              <path class="cls-23" d="m366.8,905.69l24.35,8.72c2.29-1.54,4.19-3.67,5.45-6.28l-30.02-10.75c-.68,2.82-.57,5.68.21,8.31Z"/>
            </g>
            <path class="cls-6" d="m381.92,918.15c-1.96,0-3.93-.34-5.83-1.02-4.34-1.56-7.81-4.71-9.78-8.87-1.97-4.17-2.2-8.85-.64-13.19,1.56-4.34,4.71-7.81,8.87-9.78,8.6-4.07,18.91-.37,22.97,8.23,1.97,4.17,2.2,8.85.64,13.19-1.55,4.34-4.7,7.81-8.87,9.78-2.34,1.11-4.85,1.66-7.36,1.66Zm-.03-32.07c-2.12,0-4.27.46-6.3,1.42-3.58,1.69-6.28,4.67-7.62,8.4s-1.14,7.75.55,11.32c1.69,3.58,4.67,6.28,8.4,7.62,3.73,1.33,7.74,1.14,11.32-.55,3.58-1.69,6.28-4.67,7.62-8.4,1.33-3.72,1.14-7.75-.55-11.33-2.53-5.34-7.86-8.48-13.41-8.48Z"/>
            <path class="cls-16" d="m274.86,967.31s-12.43-3.83-19.41,21.25c-.33,1.18.5,2.36,1.72,2.44,6.56.43,24.88.57,26.4-11.34l-8.72-12.36Z"/>
            <path class="cls-22" d="m276.16,969.07s-8.82-2.72-13.75,15.13c-.22.78.34,1.57,1.15,1.62,4.54.31,17.69.47,18.77-8.01l-6.16-8.74Z"/>
            <path class="cls-15" d="m277.63,970.17s-5.95-1.83-9.28,10.21c-.15.53.23,1.06.77,1.09,3.07.21,11.93.32,12.66-5.4l-4.16-5.9Z"/>
            <path class="cls-6" d="m261.48,992.57c-1.66,0-3.16-.06-4.4-.15-1.01-.07-1.92-.58-2.51-1.41-.59-.83-.77-1.86-.49-2.85,3-10.79,7.38-17.83,13.02-20.91,4.45-2.43,8.04-1.38,8.19-1.33.3.09.56.28.75.54l8.71,12.36c.21.29.29.65.25,1-1.39,10.88-14.67,12.73-23.51,12.73Zm11.57-24.05c-1.1,0-2.76.24-4.68,1.31-3.36,1.88-8.09,6.72-11.54,19.11-.06.2.02.35.07.43.05.07.16.19.37.21,5.39.36,22.91.7,24.81-9.56l-8.06-11.43c-.24-.03-.57-.07-.97-.07Z"/>
            <path class="cls-14" d="m290.6,973.06c-1.41,4.33-4.98,6.93-4.98,6.93,0,0-3.35-1.51-7.28-6.9-3.93-5.4-4.34-9.05-4.34-9.05,0,0,3.57-2.6,8.12-2.62"/>
            <path class="cls-6" d="m285.61,981.48c-.21,0-.42-.04-.61-.13-.15-.07-3.76-1.74-7.87-7.39-4.12-5.65-4.6-9.59-4.62-9.76-.06-.53.17-1.06.6-1.37.16-.12,4.02-2.89,9-2.91h0c.82,0,1.49.66,1.49,1.48,0,.82-.66,1.49-1.48,1.5-2.81.01-5.24,1.16-6.45,1.84.36,1.31,1.34,4,3.87,7.46,2.52,3.46,4.78,5.22,5.92,5.97,1.02-.94,2.86-2.91,3.73-5.58.26-.78,1.1-1.21,1.88-.96.78.26,1.21,1.1.96,1.88-1.54,4.73-5.36,7.55-5.52,7.67-.26.19-.57.29-.88.29Z"/>
            <path class="cls-16" d="m295.88,975.83c-7.02,3.05-12.03-4.2-13.25-5.88-1.22-1.67-6.58-8.66-1.53-14.42,5.11-5.82,32.79-22.88,39.7-13.39,6.92,9.49-17.81,30.61-24.92,33.68Z"/>
            <g class="cls-30">
              <path class="cls-13" d="m281.51,968.36c-1.18-2.86-1.65-6.51,1.21-9.77,4.98-5.67,31.4-22.03,39.14-14.06-.18-.85-.52-1.65-1.06-2.38-6.92-9.49-34.6,7.57-39.71,13.39-4.04,4.6-1.42,9.99.42,12.82Z"/>
            </g>
            <g class="cls-28">
              <path class="cls-6" d="m294.19,973.4c-5.54,2.4-9.82-1.6-11.99-4.22,1.43.24,3,.1,4.69-.63,6.13-2.65,25.38-18.73,26.11-29.19,2.82-.18,5.22.32,6.89,1.79,3.8,10.04-18.94,29.31-25.7,32.24Z"/>
            </g>
            <path class="cls-6" d="m292.48,978.06c-3.18,0-7.01-1.65-10.96-7.09l1-1.15-1.2.88c-5.84-7.96-3.95-13.17-1.35-16.14,4.6-5.25,23.65-17.27,34.83-16.7,3.23.15,5.65,1.3,7.19,3.41,1.54,2.12,1.89,4.77,1.04,7.89-2.95,10.82-20.17,25.26-26.57,28.04h0c-1.16.5-2.51.86-4,.86Zm21.61-37.24c-10.11,0-27.86,11.14-31.87,15.7-2.78,3.17-2.29,7.23,1.51,12.42,0,0,.21.28.21.29,3.77,5.2,7.49,6.92,11.35,5.24h0c5.68-2.46,22.25-16.43,24.89-26.09.61-2.23.42-3.99-.58-5.35-1-1.37-2.61-2.09-4.92-2.19-.19,0-.39-.01-.59-.01Z"/>
            <path class="cls-6" d="m305.67,970.13c-.23,0-.46-.07-.66-.22-7.26-5.35-12.61-12.7-15.48-21.25-.2-.58.12-1.22.7-1.42.59-.19,1.22.12,1.41.7,2.72,8.11,7.8,15.08,14.69,20.16.5.37.6,1.07.24,1.56-.22.3-.56.45-.9.45Z"/>
          </g>
          <path class="cls-6" d="m166.32,768.29c52.21-2.93,104.53-4.11,156.82-3.54,52.3.49,104.61,2.7,156.7,7.33,1.55.14,2.69,1.5,2.55,3.05-.13,1.51-1.44,2.63-2.93,2.56-78.12-3.55-156.29-2.86-234.4.07-26.03.96-52.06,2.08-78.09,3.28-8.29.22-9.1-12.06-.65-12.76h0Z"/>
        </g>
        <path class="cls-13" d="m647.48,684.81l6.8,143.12c-87.06,12.94-127.95-103.69-35.79-163.18l28.98,20.06Z"/>
        <path class="cls-6" d="m641.21,835.6c-34.56,0-63.54-19.61-75.95-52.55-13.87-36.79-3.9-89.38,49.61-123.92,3.1-2,7.24-1.11,9.25,1.99,2,3.1,1.11,7.24-1.99,9.25-47.25,30.5-56.32,76.21-44.35,107.97,11.06,29.34,37.97,46.02,69.53,43.65l-6.51-136.85c-.18-3.69,2.67-6.82,6.36-7,3.7-.21,6.82,2.67,7,6.36l6.8,143.12c.16,3.43-2.3,6.43-5.7,6.93-4.77.71-9.46,1.06-14.06,1.06Z"/>
        <path class="cls-13" d="m858.21,782.26c-3.17,3.5-7.2,6.71-12.31,9.56,8.92,73.57-142.03,80.06-124.85,31.21-30.48,4.46-60.93,5.95-91.41,4.46-17.19-15.18-26.42-40.66-26.46-66.82-.04-31.5,13.27-63.92,42.07-80.33,49.07,2.54,95.84,7.07,138.8,14.91,10.39,1.89,20.31,5.89,29.05,11.82,17.1,11.59,32.48,24.99,45.55,40.86,2.16,2.63,3.77,5.6,4.79,8.69,2.9,8.69,1.23,18.5-5.24,25.62Z"/>
        <path class="cls-6" d="m764.6,861.17c-17.45,0-33.26-3.97-42.6-11.99-5.84-5.01-8.89-11.31-9-18.29-27.82,3.54-55.93,4.65-83.68,3.29-1.52-.07-2.96-.66-4.1-1.66-20.79-18.34-31.55-50.55-28.1-84.04,3.36-32.67,19.7-59.62,44.83-73.92,1.11-.63,2.4-.94,3.66-.87,53.93,2.79,99.62,7.7,139.66,15.02,11.49,2.1,22.12,6.42,31.6,12.86,18.67,12.66,34.02,26.44,46.95,42.15,10.58,12.86,10.31,30.97-.65,43.06-2.88,3.17-6.31,6.06-10.25,8.64,1.01,21.9-10.76,40.48-33.51,52.65-16.31,8.72-36.45,13.12-54.79,13.12Zm-43.55-44.82c1.98,0,3.88.88,5.16,2.44,1.49,1.81,1.92,4.26,1.14,6.47-2.01,5.71-.94,10.09,3.35,13.77,13.43,11.52,53.17,12.85,82.38-2.78,13.48-7.21,28.96-20.63,26.17-43.62-.33-2.69,1.01-5.32,3.37-6.64,4.27-2.39,7.84-5.16,10.62-8.22,6.46-7.12,6.56-17.88.23-25.57-12.1-14.7-26.53-27.65-44.13-39.58-7.94-5.38-16.86-9.01-26.5-10.77-38.98-7.12-83.46-11.94-135.95-14.71-20.39,12.38-33.65,35.12-36.49,62.7-2.87,27.88,5.72,55.47,21.96,71.09,29.11,1.28,58.6-.25,87.7-4.51.32-.05.65-.07.97-.07Z"/>
        <path class="cls-6" d="m713.6,817.42c7.5-1.95,14.7-4.49,18.62-8.96,0,0,1.31-1.36,1.31-1.36,3.03-3.38,9-.72,8.64,3.72-.26,4.81.74,9.25,4.55,12.57,1.81,1.57.04,4.6-2.2,3.82-6.33-1.88-11.23-8.14-13.36-14.24,0,0,9.94,2.36,9.94,2.36-5.93,8-14.91,11.7-23.54,14.87-8.76,2.85-12.81-10.17-3.95-12.78h0Z"/>
        <path class="cls-6" d="m838.96,805.72c1.15-15.82-.45-32-8.2-46.15-1.16-2.27,1.8-4.21,3.51-2.36,13.82,11.38,19.64,30.77,18.06,48.19.08,9.68-13.4,9.94-13.37.33h0Z"/>
        <g class="cls-28">
          <path class="cls-6" d="m858.21,782.26c-3.17,3.5-7.2,6.71-12.31,9.56,8.92,73.57-142.03,80.06-124.85,31.21-30.48,4.46-60.93,5.95-91.41,4.46-17.19-15.18-26.42-40.66-26.46-66.82l2.01-.4c11.97,11.3,29.23,14.69,45.57,16.9,24.57,3.3,49.36,5.02,74.17,5.15,9.63.04,20.35.25,27.38,6.87,6.82,6.47,8.05,17.23,14.78,23.81,4.06,3.97,9.7,5.93,15.29,6.93,16.32,2.94,34.24-1.76,45.75-13.71,11.26-11.7,15.16-30.43,8.11-45.01,4.01,7.49,16.25,7.49,22.63,1.52,1.87-1.76,3.37-3.83,4.57-6.09,2.9,8.69,1.23,18.5-5.24,25.62Z"/>
        </g>
        <g class="cls-28">
          <path class="cls-6" d="m571.64,721.2c-4.91,8.72-2.22,20.2,4.13,27.93,6.35,7.73,15.66,12.39,24.96,16.08,1.35.53,2.77,1.1,3.67,2.23.77.96,1.06,2.2,1.33,3.4,4.37,19.17,8.98,39.5,22.71,53.56-17.35-1.69-33.94-10.21-45.42-23.33-11.48-13.12-17.72-30.69-17.09-48.11"/>
        </g>
      </g>
      <g>
        <path class="cls-17" d="m391.51,563.58c6.22,11.28,18.86,30.8,38.98,47.06,4.52,3.66,4.82,10.44.56,14.41l-10.15,9.44c-3.24,3.01-8.1,3.39-11.78.94-9.72-6.46-28.52-22.22-45.64-55.34-2.2-4.27-.81-9.52,3.18-12.2l11.24-7.57c4.62-3.11,10.94-1.62,13.62,3.25Z"/>
        <path class="cls-5" d="m524,33.18c-10.75,7.18-29.2,21.47-43.76,42.98-3.27,4.84-10.04,5.71-14.36,1.78l-10.3-9.35c-3.29-2.98-4.08-7.81-1.94-11.7,5.64-10.27,19.8-30.41,51.48-50.34,4.08-2.57,9.45-1.61,12.47,2.14l8.52,10.6c3.5,4.36,2.55,10.8-2.1,13.9Z"/>
        <path class="cls-4" d="m1244,955.29c-9.37-8.91-27.37-23.76-51.55-33.23-5.44-2.13-7.78-8.54-4.9-13.62l6.85-12.11c2.19-3.86,6.73-5.7,10.99-4.47,11.26,3.24,34.02,12.62,60.44,39.13,3.4,3.41,3.65,8.86.65,12.63l-8.46,10.64c-3.48,4.38-9.97,4.87-14.02,1.01Z"/>
        <path class="cls-16" d="m1293.58,324.08c-7.12,6.02-19.19,17.78-27.87,34.38-1.95,3.73-6.73,4.91-10.15,2.45l-8.15-5.87c-2.6-1.87-3.56-5.27-2.35-8.23,3.21-7.83,11.72-23.42,32.8-40.3,2.72-2.17,6.64-1.93,9.11.52l6.97,6.9c2.87,2.84,2.71,7.53-.37,10.14Z"/>
        <circle class="cls-16" cx="172.03" cy="464.1" r="14.33" transform="translate(-313.64 559.56) rotate(-80.78)"/>
        <circle class="cls-18" cx="1373.85" cy="799.85" r="8.66" transform="translate(-201.51 586.63) rotate(-22.5)"/>
        <circle class="cls-16" cx="1028.83" cy="34.09" r="8.66" transform="translate(759.27 1027.57) rotate(-76.72)"/>
        <circle class="cls-12" cx="21.75" cy="664.81" r="8.66" transform="translate(-463.72 210.1) rotate(-45)"/>
        <path class="cls-8" d="m1265.51,143.01c-20.17,0-30.65-17.13-31.1-17.9-1.69-2.82-.77-6.48,2.06-8.17,2.81-1.69,6.46-.77,8.16,2.03.34.55,7.42,11.81,20.45,12.11-6.44-4.56-10.93-11.35-11.43-18-.48-6.3,2.57-11.77,8.38-14.99,4.07-2.26,8.83-1.73,12.72,1.43,5.95,4.81,9.75,15.6,9.4,24.91,2.63-.49,5.45-1.84,8.22-4.61-5.09-3.55-8.68-8.39-10.45-13.26-2.96-8.1-1.02-15.89,4.92-19.86,6.06-4.04,14.14-2.61,19.58,3.34-.57-3.53-.44-7.03.32-10.1,1.54-6.26,5.59-10.38,10.82-11.02,4.59-.57,8.9,1.51,12.13,5.83,4.23,5.66,6.27,14.53,5.83,23.14,5.29-1.31,11.55-4.39,18.52-9.19,2.71-1.87,6.42-1.18,8.29,1.52,1.87,2.71,1.19,6.42-1.52,8.29-11.48,7.92-20.67,11.22-27.93,11.89-.08.19-.16.39-.24.58-3.53,8.17-10,13.17-18.21,14.1-3.73.42-7.21.26-10.41-.36-.97,1.17-2.03,2.34-3.19,3.5-5.86,5.86-13.03,8.72-20.5,8.33-2.73,3.67-6.77,5.91-11.66,6.33-1.07.09-2.12.14-3.14.14Zm1.8-34.21c-1.7,1.11-1.87,2.27-1.79,3.37.22,2.84,2.73,6.7,6.72,9.4-.41-5.88-3.2-11.41-4.93-12.77Zm44.54-6.48c.37,3.44-.01,7.18-1.33,11.06.83,0,1.69-.05,2.57-.15,3.42-.39,5.73-2.23,7.29-4.56-1.5-.63-2.84-1.39-4.02-2.21-1.73-1.2-3.23-2.6-4.51-4.14Zm-17.4-6.01c-.36,0-.7.09-1.01.29-1.17.78-1.31,3.19-.34,5.86,1,2.74,3.03,5.46,5.95,7.5,1.75-4.79,1.03-8.91-1.14-11.56-.96-1.17-2.31-2.09-3.46-2.09Zm24.67-15.51c-1.22,1.44-2.24,8.2,1.47,13.34.85,1.17,1.86,2.11,3.03,2.82.35-8.73-2.78-15.28-4.5-16.16Z"/>
        <path class="cls-5" d="m443.15,365.87c-.82,0-1.65-.2-2.42-.62-10.46-5.69-16.51-11.41-19.83-16.67-.18.01-.36.03-.53.04-7.58.46-13.89-2.53-17.76-8.43-1.76-2.68-2.98-5.39-3.74-8.06-1.26-.28-2.56-.64-3.9-1.08-6.72-2.2-11.67-6.57-14.25-12.39-3.85-.66-7.11-2.87-9.32-6.44-10.03-16.18-.12-32.25.31-32.92,1.5-2.37,4.64-3.08,7.01-1.58,2.37,1.49,3.08,4.62,1.6,6.99-.29.47-6.13,10.2-1.33,20.24.98-6.66,4.43-12.7,9.29-15.65,4.61-2.8,9.95-2.58,14.65.59,3.29,2.23,4.72,6.05,3.82,10.24-1.37,6.39-8.11,13.43-15.34,16.77,1.39,1.81,3.5,3.44,6.68,4.48.74-5.24,3.04-9.84,6.06-13.07,5.02-5.37,11.71-6.91,17.02-3.91,5.41,3.05,7.44,9.76,5.01,16.2,2.46-1.79,5.19-3.04,7.81-3.65,5.36-1.24,10.06.25,12.56,3.99,2.2,3.28,2.29,7.36.24,11.48-2.68,5.41-8.64,10.38-15.37,13.36,3.03,3.52,7.79,7.1,14.14,10.55,2.47,1.34,3.38,4.43,2.04,6.9-.92,1.7-2.67,2.66-4.47,2.66Zm-33.15-33.16c.32.63.69,1.26,1.11,1.89,1.61,2.46,3.91,3.5,6.29,3.79-.1-1.39-.04-2.7.13-3.91.24-1.78.73-3.46,1.41-5.02-2.48,1.61-5.47,2.76-8.93,3.25Zm27.65-6.06c-2,0-6.85,1.9-9.12,6.31-.57,1.1-.89,2.23-.98,3.4,6.78-3.1,10.56-8.01,10.56-9.66-.13-.03-.29-.05-.47-.05Zm-22.26-13.6c-1.07,0-2.5.81-3.8,2.19-1.7,1.82-2.99,4.42-3.42,7.42,4.33-.52,7.18-2.66,8.36-5.33.68-1.55.78-3.46-.35-4.1-.23-.13-.49-.19-.79-.19Zm-20.32-15.54c-.59,0-1.08.21-1.52.48-2.08,1.26-4.05,4.67-4.56,8.74,4.32-2.58,7.45-6.84,7.82-8.68-.68-.39-1.25-.54-1.74-.54Z"/>
        <path class="cls-20" d="m80.28,90.4c-.58,0-1.16-.1-1.73-.31-2.64-.96-4-3.87-3.04-6.51,4.06-11.19,8.82-18.03,13.52-22.09-.04-.17-.08-.35-.12-.52-1.59-7.43.43-14.11,5.68-18.82,2.39-2.14,4.88-3.75,7.41-4.9.09-1.29.25-2.63.48-4.02,1.17-6.98,4.75-12.52,10.13-15.94.08-3.9,1.78-7.46,4.97-10.18,14.5-12.33,31.86-4.93,32.6-4.61,2.57,1.13,3.74,4.13,2.62,6.7-1.12,2.56-4.11,3.73-6.67,2.63-.47-.2-11-4.55-20.21,1.71,6.82-.08,13.22,2.48,16.86,6.85,3.46,4.14,4.04,9.45,1.6,14.57-1.71,3.59-5.28,5.56-9.55,5.31-6.52-.4-14.5-6.02-18.87-12.66-1.58,1.64-2.87,3.98-3.44,7.28,5.26-.1,10.19,1.54,13.83,4.04,6.06,4.16,8.58,10.54,6.41,16.24-2.21,5.8-8.54,8.81-15.26,7.38,2.14,2.17,3.79,4.67,4.78,7.18,2.03,5.11,1.25,9.98-2.07,13.02-2.92,2.66-6.94,3.36-11.32,1.96-5.75-1.84-11.55-6.99-15.51-13.2-3.03,3.53-5.86,8.77-8.32,15.56-.75,2.07-2.7,3.35-4.78,3.35Zm21.82-24.16c4.07,6.24,9.51,9.26,11.13,9,.13-1.6-2.5-6.81-7.62-8.54-1.17-.4-2.34-.55-3.51-.46Zm.63-10.2c1.7,0,3.34.23,4.9.65-1.96-2.21-3.55-5-4.55-8.35-.57.41-1.14.87-1.71,1.38-2.19,1.96-2.88,4.39-2.81,6.78,1.36-.3,2.67-.44,3.89-.46.09,0,.18,0,.28,0Zm10.01-11c1.16,4.2,3.7,6.7,6.52,7.47,1.64.45,3.53.26,4-.96.43-1.12-.67-2.87-2.66-4.24-2.02-1.39-4.73-2.27-7.72-2.27h-.13Zm12.89-21.34c3.2,3.88,7.87,6.35,9.75,6.44.63-1.62.18-2.51-.43-3.23-1.56-1.87-5.25-3.33-9.33-3.21Z"/>
      </g>
    </g>
  </g>
</svg>