<?xml version="1.0" encoding="UTF-8"?>
<svg id="Calque_2" data-name="Calque 2" xmlns="http://www.w3.org/2000/svg" xmlns:xlink="http://www.w3.org/1999/xlink" viewBox="0 0 1082.62 653.13">
  <defs>
    <style>
      .cls-1 {
        clip-path: url(#clippath);
      }

      .cls-2 {
        fill: none;
      }

      .cls-2, .cls-3, .cls-4, .cls-5, .cls-6, .cls-7, .cls-8, .cls-9, .cls-10, .cls-11, .cls-12, .cls-13, .cls-14, .cls-15, .cls-16, .cls-17, .cls-18, .cls-19, .cls-20, .cls-21 {
        stroke-width: 0px;
      }

      .cls-3 {
        fill: url(#linear-gradient);
      }

      .cls-22 {
        opacity: .2;
      }

      .cls-23 {
        opacity: .41;
      }

      .cls-24 {
        opacity: .35;
      }

      .cls-25 {
        opacity: .6;
      }

      .cls-4 {
        fill: #77e236;
      }

      .cls-5 {
        fill: #29b8ff;
      }

      .cls-6 {
        fill: #54a520;
      }

      .cls-7 {
        fill: #2c96ff;
      }

      .cls-8 {
        fill: #371a45;
      }

      .cls-9 {
        fill: #2276fc;
      }

      .cls-10 {
        fill: #2366f9;
      }

      .cls-11 {
        fill: #d66b09;
      }

      .cls-12 {
        fill: #ff9100;
      }

      .cls-13 {
        fill: #fff;
      }

      .cls-14 {
        fill: #ffec90;
      }

      .cls-15 {
        fill: #ffcf6e;
      }

      .cls-16 {
        fill: #ffaa39;
      }

      .cls-17 {
        fill: #ffd243;
      }

      .cls-18 {
        fill: #ffb200;
      }

      .cls-19 {
        fill: #ffa92c;
      }

      .cls-20 {
        fill: #fcac38;
      }

      .cls-21 {
        fill: #ffd766;
      }
    </style>
    <linearGradient id="linear-gradient" x1="30.8" y1="466.17" x2="138.26" y2="577.17" gradientTransform="translate(1.3 -2.15) rotate(.23)" gradientUnits="userSpaceOnUse">
      <stop offset="0" stop-color="#fff"/>
      <stop offset="0" stop-color="#27d6ff"/>
      <stop offset="1" stop-color="#29b3ff"/>
    </linearGradient>
    <clipPath id="clippath">
      <circle class="cls-2" cx="101.74" cy="538.59" r="97.5" transform="translate(-351.04 229.69) rotate(-45)"/>
    </clipPath>
  </defs>
  <g id="Layer_1" data-name="Layer 1">
    <g>
      <g>
        <path class="cls-3" d="m198.93,546.4c-.08.98-.17,1.96-.28,2.94-5.76,52.19-52.03,90.67-104.72,86.44-52.69-4.24-92.22-49.62-89.56-102.06.05-.98.12-1.96.2-2.94.99-12.29,4.22-23.86,9.25-34.35,16.74-34.89,53.47-57.78,94.25-55.13.5.03,1,.07,1.5.11.5.04,1.01.08,1.51.13,40.69,3.9,73.27,32.37,84.21,69.48,3.29,11.16,4.63,23.1,3.64,35.39Z"/>
        <g class="cls-1">
          <g>
            <g>
              <path class="cls-4" d="m148.59,596.69c-.07-4.83-2.38-9.54-6.15-12.52-4.84-3.82-5.4-11.37-5.68-16.78-.22-4.36-2.67-7.94-7.12-5.3-10.22,6.06-23.41-5.47-25.36-15.67-1.54-10.87,1.74-20,7.89-28.64,4.27-6,12.34-7.26,18.44-3.63,7.19,4.27,19.78-6.13,21.59-13.44.21-.83.39-1.97.15-2.67-2.48-7.05-12.83-8.33-16.81-2.29-2.58,3.91-7.34,5.02-11.31,2.48-7.3-4.68-9.97-1.48-13.17,5.8-1.03,2.35-1.39,6.71-4.23,4.61-2.79-2.06-5.02-5.9-3.21-9.24,4.4-8.14,8.59-16.83,11.55-25.74.19-.58.85-1.34,1.26-1.35,9.55-.23,9.54-12.52,11.94-19.17.85-2.35.44-3.48-1.04-4.56-1.5-1.1-2.32-.06-3.07,1.58-1.25,2.75-2.49,5.51-3.76,8.24-.65,1.4-1.02,3.59-2.61,3.22-1.86-.43-2.65-2.8-2.37-4.88.8-5.95,2.92-12.49,6.94-17.03,3.05-3.44,8.58-5.66,12.57-2.51,4.96,3.91,9.08,3.89,15.05,1.4,2.51-1.04,5.21-2.18,7.82-2.74,4.41-.95,7.77-4.17,9.21-8.47,1.51-4.28,5.28-7.14,9.73-7.62,2.81-.3,4.71-1.69,5.79-4.95,1.91-5.81,6.95-9.91,12.75-11.37,8.62-2.16,15.51-1.13,21.09,5.62,1.52,1.84,3.31,1.32,4.96,1.1,4.32-.57,8.9-.9,13.01-1.58,3.11-.52,7.38,1.28,9.16,3.89,1.2,1.76,2.73,2.06,4.27,1.97,2.12-.13,4.38.01,6.38-.06,4.83-.17,6.78.98,8.95,5.49.66,4.31-2.61,9.73-6.65,10.43-1.17.21-2.58.29-3.9.2-3.71-.24-4.51,2.04-3.64,6.82,1.85,10.25-2.66,24.77-13.67,27.63-2.67.69-4.19,1.6-3.31,5.82.46,2.21.62,4.79-.63,6.93-2.85,4.92-4.63,10.59-3.49,16.21.89,4.42-3.52,7.35-7.23,4.76-4.03-2.82-7.93-5.98-11.62-9.29-2.85-2.55-4.64-1.97-6.26,1.99-1.39,3.41-3.51,6.81-4.64,10.12-1.43,4.22-5.28,6.91-8.97,3.28-4.29-3.24-6.62-4.53-11.38-3.73-1.68.28-3.48-.51-4.98-1.85-1.52-1.36-3.29-2.88-4.41.39-1.06,3.08,1.56,3.09,2.65,4.14,1.98,1.9,4.18,3.46,6.29,5.05,3.7,2.79,3.82,6.76.99,10.25-2.76,3.4-7.66,5.99-11.73,2.66-2.75-2.08-5.45-4.24-8.19-6.32-1.3-.99-2.47-2.64-3.97.42-1.6,3.24.31,3.65,1.51,4.61,4.78,3.82,9.59,7.6,14.5,11.25,4.23,3.14,5.26,8.91,2.53,13.33-5.63,9.12-5.55,19.48-2.95,30.44,1.07,4.49,1.78,8.89,2.38,13.48,1.23,9.12-4.06,22.15-14.16,23.77-4.01.56-7.04-2.44-7.89-6.15-.73-3.2-1.24-6.59-1.79-9.88Z"/>
              <path class="cls-4" d="m-32.92,520.3c-3.45-8.83-2.28-15.44,7.49-18.33,14.49-4.96,28.83-10.34,42.99-16.11,2.39-.97,4.86-2.18,6.7.52,1.55,2.28,1.22,4.96.11,7.74-1.96,4.93,1.69,6.5,5.08,8.5,2.86,1.68,6.28.09,8.93-2.17,2.33-1.99.34-4.84.1-7.27-.17-1.7-.99-3.56.41-4.94,1.44-1.42,2.68.13,3.75,1.01,2.14,1.75,4.28,2.17,6.91.94,2.3-1.08,4.65-.81,6.14,1.86,1.47,2.65.96,5.71-.27,8.42-5.02,11.05-10.57,22.23-15.48,32.99-2.11,4.62-7.53,5.82-11.89,7.24-4.37,1.42-4.86,6.12-3.31,9.82.64,1.52,1.39,2.66,2.78,2.22,5.52-1.73,9.68,2.53,13.4,5.6,2.86,2.35,6.91,4,10.7,2.4,4.53-1.92,8.08-1.39,12.16,1.54,3.2,2.29,7.69,5.71,11.98,4.86,5.59-1.11,7.17,14.94,5.74,18.93-3.91,10.92-8.97,22.53-14.06,33.17-2.77,5.78-3.63,11.77-2.14,17.79.74,3.01,1.24,6.51,1.71,9.81.29,2.05,1.54,4.61.33,6.09-1.5,1.84-3.34-.36-4.82-1.41-5.01-3.58-7.83-9.77-8.91-15.63-.8-4.35-1.79-8.83-2.33-13.18-1.06-8.66-3.36-17.94-10.83-23.51-6.72-5.47-8.11-20.68-5.35-28.04.72-1.92,3.44-3.83,1.66-6.19-1.85-2.46-4.34-5.68-7.19-4.81-5.84,1.79-11.77-2.25-15.87-5.97-3.99-3.63-8.03-7.28-12.57-10.28-6.67-4.34-7.96-12.7-9.82-19.61-1.58-5.87-9.4-12.91-15.56-12.62-4.51.21-6.37,5.19-8.65,8.63Z"/>
              <path class="cls-4" d="m280.75,539.26c.04.18.12.35.12.53.01,2.71,2.84,5.71.22,7.89-2.5,2.08-7.33,4.06-10.5,2-4.91-2.02-6.92-1.86-11.47.2-3.66,1.66-8.17,1.23-10.6-2.41-2.83-3.97-2.13-9.06-.21-13.21,3-6.46,10.06-12.89,17.48-11.87,7.36,1.01,13.29,10.02,14.96,16.87Z"/>
              <path class="cls-4" d="m68.74,441.05c1.83-.82,3.78-1.7,5.5-2.44,3.68-1.58,10.22-6.34,12.98-.45,3.96,8.44,4.34,16.04.73,24.08-3.07,6.84-6.73,14.16-9.73,21.42-2.51,6.09-5.07,6.67-8.85,2.81-2.18-2.22-4.73-4.3-5.4-7.64-1.09-5.47-4.68-9.79-9.24-12.77-2.52-1.65-5.18-4.01-3.88-8.85,1.12-4.18,2.48-9.44,6.91-11.26,3.6-1.48,7.32-3.24,10.98-4.88,0-.01,0-.02,0-.03Z"/>
              <path class="cls-4" d="m37.28,478.57c-3.16,1.6-5.85,2.69-8.55,1.3-1.14-.59-2.05-1.62-2.16-3.08-.16-2,1.44-2.25,2.53-2.79,1.83-.9,3.71-1.62,5.56-2.47,3.29-1.52,6.95-2.18,7.62,2.64.61,4.44-3.73,2.75-4.99,4.4Z"/>
              <path class="cls-4" d="m225.93,510.68c4.34-.03,10.41,3.71,12.24,7.1,1.17,2.16-.82,3.2-1.91,3.31-3.28.3-10.54-4.32-12.21-7.42-.61-1.14.09-2.39,1.89-2.99Z"/>
              <path class="cls-4" d="m174.57,576.24c-.41-3.74-.32-8.57,3.36-10.63,2.75-1.54,2.81,2.33,3.16,4.5.6,3.73.57,8.57-3.25,10.64-3.07,1.65-2.4-2.53-3.26-4.51Z"/>
              <path class="cls-4" d="m260.3,448.62c.3,4.56-4.54,12.81-8.08,13.41-.93.16-2.42-1.03-1.84-2.2,1.84-4.09,3.5-9.11,7.44-11.44.71-.42,2.25-.99,2.48.23Z"/>
              <path class="cls-4" d="m252.95,516.91c-1.3-.16-3.98,2.81-4.47-1.4-.53-4.49,2.48-5.87,5.48-6.26,1.6-.21,4.16-2.38,4.73.7.93,3.91-2.09,6.62-5.73,6.95Z"/>
              <path class="cls-4" d="m290.74,541.73c-.33,1.39,2.41,3.55-.5,4.07-3.04.54-4.36-2.31-4.81-5.23-.26-1.68-2.12-4.47.28-5,4.14-.92,3.94,3.5,5.04,6.16Z"/>
              <path class="cls-4" d="m107.54,469.34c.56,3.16,1.61,7.9-1.91,9.71-2.22,1.14-2.24-2.25-2.44-4.05-.34-3.18-1.69-8.05,1.56-10.13,2.8-1.79,1.63,3.51,2.79,4.46Z"/>
              <path class="cls-4" d="m242.09,499.19c.53,3.24,1.1,6.52-2.17,7.31-2.61.63-2.11-2.62-2.62-4.39-.88-3.07-.03-5.9,2.22-6.8,2.73-1.09,1.85,2.59,2.57,3.87Z"/>
              <path class="cls-4" d="m101.25,476.84c.32,2.09-.06,3.69-1.83,4.34-1.2.44-2.06,0-2.35-1.62-.36-2.03.16-3.75,1.62-4.72,1.56-1.04,2.18.32,2.56,2.01Z"/>
            </g>
            <g>
              <path class="cls-6" d="m157.28,613.7c-4.09-.02-6.97-3.35-7.79-6.93-.6-2.65-1.06-5.45-1.51-8.15l-.31-1.92c-.06-4.58-2.23-9-5.81-11.81-4.93-3.89-5.7-11.04-6.03-17.45-.13-2.44-.98-4.38-2.24-5.05-.93-.5-2.11-.34-3.5.49-3.91,2.32-8.46,2.42-13.16.3-6.59-2.97-12.29-9.94-13.55-16.58-1.46-10.27,1.1-19.58,8.04-29.34,4.44-6.23,12.88-7.9,19.65-3.89,2.57,1.53,5.73.75,7.92-.16,5.54-2.32,11.19-8.14,12.32-12.71.28-1.13.27-1.85.17-2.15-1.04-2.95-3.79-5.04-7.18-5.46-3.29-.41-6.37.89-8,3.37-2.9,4.4-8.18,5.55-12.57,2.75-2.73-1.75-4.82-2.37-6.41-1.89-2.14.64-3.72,3.38-5.43,7.29-.22.5-.4,1.09-.59,1.69-.54,1.7-1.09,3.46-2.49,3.92-.77.25-1.62.04-2.53-.63-3.23-2.38-5.47-6.72-3.48-10.4,5.28-9.76,8.93-17.89,11.48-25.6.26-.79,1.16-1.95,2.11-1.97,6.63-.16,8.16-6.77,9.64-13.16.45-1.96.88-3.82,1.46-5.41.73-2.02.37-2.72-.71-3.51-.28-.21-.53-.3-.66-.27-.15.04-.5.29-1.05,1.49l-1.28,2.82c-.82,1.81-1.64,3.63-2.48,5.43-.13.27-.24.58-.36.89-.5,1.32-1.25,3.31-3.29,2.84-2.43-.56-3.39-3.45-3.07-5.89.56-4.15,2.22-11.95,7.16-17.52,3.42-3.85,9.42-6.08,13.82-2.62,4.39,3.46,8.09,3.79,14.14,1.27,2.66-1.11,5.32-2.21,7.98-2.79,3.98-.86,7.17-3.8,8.54-7.86,1.61-4.56,5.63-7.71,10.49-8.24,2.61-.28,4.11-1.58,5.02-4.33,1.93-5.88,6.94-10.35,13.39-11.97,9.81-2.45,16.6-.63,22.01,5.93.98,1.18,1.99,1.1,3.57.86l.57-.08c1.74-.23,3.53-.42,5.31-.61,2.58-.28,5.24-.56,7.67-.96,3.49-.58,8.09,1.38,10.06,4.27.83,1.22,1.83,1.67,3.46,1.57,1.23-.08,2.5-.06,3.73-.05.92,0,1.82.02,2.68,0,5.21-.2,7.5,1.22,9.81,6.01l.08.26c.75,4.91-2.98,10.7-7.39,11.47-1.29.23-2.75.31-4.12.22-1.17-.08-1.96.13-2.4.62-.68.77-.78,2.44-.29,5.13,2.04,11.27-3.35,25.81-14.34,28.67-2.27.59-3.41,1.07-2.65,4.75.65,3.13.41,5.6-.73,7.58-3.21,5.55-4.35,10.79-3.39,15.57.49,2.43-.39,4.71-2.3,5.96-1.9,1.24-4.33,1.14-6.35-.28-3.82-2.68-7.76-5.82-11.7-9.35-1.11-.99-1.99-1.43-2.62-1.28-.72.17-1.46,1.15-2.19,2.94-.62,1.51-1.38,3.03-2.11,4.49-.97,1.94-1.89,3.76-2.5,5.58-.98,2.89-2.89,4.94-5.11,5.47-1.29.31-3.26.24-5.36-1.82-4.03-3.04-6.15-4.23-10.59-3.48-1.86.31-3.9-.42-5.74-2.06-.57-.51-1.61-1.47-2.1-1.32-.21.05-.54.43-.85,1.33-.52,1.5-.01,1.76,1.1,2.33.46.24.93.48,1.32.85,1.6,1.54,3.39,2.88,5.12,4.17l1.09.82c1.9,1.44,3.03,3.25,3.27,5.24.25,2.1-.48,4.29-2.13,6.31-2.07,2.55-4.88,4.23-7.5,4.5-2,.21-3.87-.37-5.51-1.71-1.42-1.07-2.85-2.18-4.28-3.29-1.29-1.01-2.59-2.02-3.89-3-.19-.14-.37-.3-.56-.45-.35-.3-.91-.75-1.1-.7-.04,0-.39.11-.95,1.25-.98,1.98-.46,2.32.56,2.99.24.16.48.32.7.5,3.93,3.14,9.12,7.25,14.47,11.23,4.59,3.41,5.78,9.66,2.76,14.54-4.88,7.9-5.78,17.36-2.83,29.75.96,4.02,1.72,8.34,2.39,13.58,1.23,9.15-3.84,23.01-14.91,24.79-.39.05-.77.08-1.13.08Zm-7.78-17.09l.28,1.71c.44,2.68.9,5.45,1.49,8.04.68,3,3.12,5.98,6.87,5.45,9.82-1.57,14.49-14.53,13.38-22.75-.67-5.18-1.42-9.44-2.36-13.39-3.07-12.9-2.1-22.79,3.06-31.13,2.51-4.07,1.53-9.28-2.3-12.12-5.38-4-10.59-8.12-14.52-11.27-.18-.14-.37-.27-.57-.4-1.15-.76-2.88-1.9-1.19-5.32.66-1.34,1.36-2.05,2.21-2.23,1.07-.22,1.95.5,2.65,1.09.16.13.32.27.48.4,1.31.99,2.61,2,3.91,3.02,1.42,1.11,2.84,2.21,4.28,3.3,1.28,1.04,2.68,1.48,4.2,1.33,2.15-.22,4.5-1.65,6.27-3.84,1.33-1.63,1.93-3.34,1.73-4.94-.18-1.49-1.07-2.87-2.56-4l-1.08-.81c-1.77-1.32-3.61-2.69-5.29-4.31-.2-.19-.54-.36-.89-.55-1.13-.58-3.01-1.55-1.99-4.54.5-1.44,1.19-2.26,2.11-2.5,1.42-.37,2.73.79,3.77,1.73,1.4,1.25,2.94,1.83,4.22,1.63,5.1-.85,7.71.6,12.08,3.9,1.3,1.27,2.53,1.72,3.75,1.43,1.58-.38,3.04-2.02,3.81-4.28.65-1.93,1.64-3.91,2.6-5.81.72-1.43,1.46-2.92,2.05-4.36.99-2.43,2.09-3.71,3.47-4.02,1.28-.29,2.62.25,4.25,1.7,3.89,3.48,7.77,6.58,11.53,9.22,1.42.99,3.03,1.08,4.3.25,1.27-.83,1.85-2.39,1.51-4.08-1.06-5.24.16-10.91,3.6-16.85.91-1.57,1.08-3.63.52-6.29-.97-4.65.72-6.04,3.97-6.89,10.02-2.61,14.9-16.1,13-26.58-.61-3.36-.38-5.42.73-6.67.84-.94,2.1-1.34,3.87-1.23,1.21.08,2.55,0,3.69-.19,3.44-.6,6.44-5.33,5.92-9.27-1.97-4.05-3.57-5-8.04-4.85-.88.03-1.81.02-2.76.01-1.19-.01-2.43-.03-3.59.05-1.43.08-3.51-.06-5.08-2.37-1.56-2.29-5.5-3.95-8.25-3.5-2.48.41-5.17.7-7.77.98-1.77.19-3.54.38-5.27.61l-.53.08c-1.5.23-3.56.54-5.25-1.5-4.9-5.94-11.12-7.58-20.16-5.32-5.84,1.46-10.37,5.49-12.1,10.77-1.13,3.44-3.21,5.21-6.55,5.58-4.16.45-7.6,3.14-8.97,7.02-1.57,4.67-5.26,8.06-9.88,9.05-2.5.54-5.08,1.61-7.57,2.65-5.76,2.4-10.41,2.96-16.06-1.49-3.52-2.77-8.46-.84-11.33,2.39-4.62,5.21-6.19,12.6-6.72,16.55-.22,1.63.36,3.57,1.67,3.87.37.08.63-.28,1.17-1.71.13-.35.27-.7.41-1.01.83-1.8,1.65-3.61,2.47-5.42l1.28-2.82c.49-1.07,1.14-2.21,2.24-2.5.7-.18,1.44,0,2.2.56,1.9,1.39,2.29,3.01,1.36,5.6-.54,1.49-.95,3.29-1.4,5.2-1.48,6.41-3.33,14.38-11.38,14.57,0,.04-.33.44-.42.72-2.59,7.81-6.28,16.03-11.61,25.89-1.5,2.76.35,6.15,2.95,8.07.38.28.71.42.88.36.51-.16.99-1.71,1.31-2.73.21-.67.42-1.32.66-1.88,1.98-4.5,3.77-7.45,6.58-8.3,2.15-.65,4.67.02,7.92,2.1,3.5,2.25,7.73,1.32,10.06-2.21,2.02-3.07,5.76-4.67,9.75-4.18,4.08.5,7.41,3.05,8.68,6.67.26.75.22,1.82-.12,3.19-1.28,5.14-7.28,11.4-13.39,13.96-3.7,1.54-7,1.56-9.56.05-5.94-3.53-13.35-2.07-17.23,3.38-6.66,9.35-9.11,18.24-7.73,27.98,1.16,6.06,6.42,12.47,12.5,15.22,2.89,1.3,7.22,2.32,11.49-.2,2.47-1.46,4.24-1.09,5.29-.53,1.84.99,3.04,3.44,3.2,6.57.31,6,1,12.69,5.33,16.11,3.98,3.14,6.41,8.05,6.5,13.15Z"/>
              <path class="cls-6" d="m65.99,654.54c-1.2,0-2.27-.88-3.22-1.66-.28-.23-.55-.45-.81-.63-4.6-3.29-7.98-9.2-9.28-16.21-.22-1.17-.45-2.35-.67-3.53-.62-3.19-1.26-6.49-1.66-9.71-.95-7.73-3-17.31-10.47-22.89-7.26-5.9-8.43-21.71-5.66-29.09.25-.67.68-1.3,1.09-1.9,1.08-1.58,1.47-2.38.69-3.42-1.55-2.06-3.9-5.19-6.19-4.48-4.94,1.52-10.57-.56-16.75-6.16-3.89-3.53-7.91-7.19-12.45-10.19-6.11-3.98-7.91-11.13-9.5-17.44-.23-.92-.46-1.82-.7-2.7-1.47-5.45-8.8-12.22-14.64-11.95-3.14.15-4.89,3.14-6.59,6.03-.45.76-.88,1.5-1.34,2.19l-.97,1.46-.64-1.64c-2.15-5.5-2.4-9.79-.77-13.11,1.45-2.95,4.42-5.11,8.85-6.43,14.19-4.86,28.64-10.27,42.91-16.07l.37-.15c2.22-.91,5.27-2.17,7.43,1,1.54,2.26,1.61,5.07.21,8.59-1.44,3.62.43,4.92,3.87,6.89l.83.48c2.8,1.66,6.14-.59,7.87-2.07,1.16-.99.87-2.23.31-4.18-.22-.76-.45-1.54-.52-2.31-.04-.36-.1-.73-.17-1.09-.26-1.42-.58-3.18.84-4.58,1.85-1.81,3.59-.26,4.52.57.15.13.3.26.44.38,1.96,1.6,3.74,1.85,5.94.82,3.02-1.41,5.76-.57,7.32,2.24,1.42,2.56,1.34,5.76-.24,9.24-2.59,5.7-5.36,11.5-8.03,17.12-2.5,5.24-5.08,10.66-7.45,15.87-2.04,4.48-6.79,5.96-10.98,7.26-.5.15-.98.31-1.46.46-1.4.46-2.4,1.31-2.97,2.55-.76,1.66-.68,3.92.21,6.06.82,1.97,1.31,1.81,1.66,1.7,5.42-1.7,9.67,1.89,13.08,4.78.4.34.79.67,1.17.98,3.22,2.65,6.87,3.49,9.76,2.26,4.74-2.01,8.64-1.52,13.05,1.64l.44.31c3.01,2.16,7.12,5.13,10.83,4.39.97-.19,2.42-.09,3.78,1.5,3.53,4.09,4.19,15.29,3,18.64-3.53,9.86-8.4,21.37-14.09,33.26-2.77,5.78-3.47,11.56-2.08,17.17.78,3.14,1.3,6.89,1.72,9.91.08.54.22,1.11.37,1.69.44,1.72.93,3.68-.23,5.1-.5.62-1.1.97-1.77,1.03-.09,0-.17.01-.26.01Zm-35.45-95.46c2.93.01,5.29,3.15,6.92,5.32,1.65,2.19.32,4.13-.64,5.54-.37.54-.72,1.05-.89,1.51-2.6,6.92-1.36,21.78,5.08,27.01,7.99,5.97,10.16,16.02,11.16,24.11.39,3.15,1.02,6.42,1.64,9.58.23,1.19.46,2.37.68,3.54,1.21,6.55,4.32,12.04,8.54,15.05.29.2.59.45.9.71.71.58,1.59,1.29,2.14,1.24.07,0,.26-.03.54-.37.58-.72.22-2.13-.12-3.5-.16-.65-.32-1.28-.41-1.88-.42-2.97-.93-6.67-1.69-9.72-1.49-6.03-.75-12.22,2.2-18.4,5.66-11.84,10.51-23.28,14.02-33.09,1.04-2.9.27-13.44-2.66-16.83-.86-1-1.58-.99-2.05-.9-4.48.88-8.97-2.34-12.25-4.7l-.44-.31c-3.87-2.78-7.14-3.2-11.27-1.44-3.53,1.5-7.88.56-11.63-2.53-.39-.32-.79-.66-1.19-1-3.39-2.87-6.89-5.83-11.36-4.43-2.41.76-3.49-1.78-3.89-2.74-1.09-2.6-1.16-5.41-.19-7.52.77-1.69,2.18-2.91,4.06-3.52.48-.16.98-.31,1.48-.47,4.01-1.25,8.15-2.54,9.86-6.28,2.38-5.22,4.97-10.65,7.47-15.9,2.67-5.61,5.43-11.4,8.01-17.09.93-2.05,1.74-5.03.31-7.6-1.11-2-2.78-2.49-4.96-1.48-2.85,1.33-5.35,1-7.87-1.06-.16-.13-.33-.28-.5-.43-1.24-1.1-1.53-1.12-2.03-.63-.7.69-.58,1.57-.33,2.96.08.42.15.83.19,1.24.06.61.25,1.28.46,1.99.55,1.9,1.24,4.27-.87,6.07-3.59,3.06-7.22,3.88-9.98,2.26l-.82-.47c-3.16-1.82-6.75-3.88-4.65-9.15,1.18-2.96,1.17-5.14-.02-6.89-1.27-1.86-2.74-1.37-5.23-.34l-.37.15c-14.3,5.82-28.78,11.24-43.04,16.12-4.01,1.19-6.54,2.98-7.77,5.49-1.22,2.5-1.16,5.75.2,9.89.1-.17.21-.35.31-.53,1.85-3.16,3.96-6.73,8.08-6.93,6.78-.29,14.84,7.17,16.49,13.29.24.89.47,1.8.7,2.73,1.58,6.28,3.22,12.76,8.74,16.36,4.66,3.09,8.74,6.79,12.68,10.37,5.66,5.14,10.7,7.08,14.99,5.77.43-.13.85-.19,1.26-.19Z"/>
              <path class="cls-6" d="m254.86,551.73c-2.67-.01-5.32-1.08-7.1-3.76-2.62-3.67-2.73-8.82-.28-14.09,3.23-6.97,10.61-13.45,18.43-12.39,8.16,1.12,14.11,10.94,15.72,17.56h0s-.89.22-.89.22l.92-.1c.05.15.11.37.11.62,0,.78.3,1.64.62,2.56.65,1.87,1.47,4.2-.74,6.04-2.5,2.08-7.85,4.48-11.58,2.07-4.63-1.89-6.34-1.66-10.6.27-1.42.64-3.03,1.02-4.63,1.02Zm9.42-28.53c-6.39-.03-12.46,5.66-15.15,11.45-1.02,2.21-3.06,7.82.12,12.29,2.27,3.41,6.39,3.51,9.48,2.11,4.61-2.09,6.89-2.39,12.19-.21,2.9,1.86,7.31.02,9.57-1.86,1.18-.98.85-2.11.18-4.03-.35-1.02-.72-2.07-.73-3.15l-.09-.31c-1.73-7.09-7.65-15.29-14.2-16.18-.46-.06-.92-.1-1.38-.1Z"/>
              <path class="cls-6" d="m73.5,489.82c-1.45,0-2.98-.88-4.77-2.71-.3-.31-.61-.61-.92-.92-2.01-1.98-4.09-4.04-4.72-7.18-1.22-6.09-5.48-9.99-8.84-12.18-2.74-1.78-5.7-4.52-4.26-9.85l.05-.19c1.16-4.33,2.61-9.72,7.39-11.68,2.51-1.03,5.14-2.23,7.68-3.39.88-.4,1.76-.8,2.63-1.2h0s1.15-.55,1.15-.55c1.68-.75,3.43-1.54,5-2.21.59-.25,1.26-.6,1.98-.96,2.74-1.39,6.16-3.12,9.01-2.15,1.37.47,2.44,1.52,3.19,3.11,4.14,8.84,4.38,16.73.74,24.84-1.12,2.49-2.31,5.03-3.52,7.62-2.11,4.51-4.3,9.17-6.2,13.78-1.47,3.56-3.01,5.38-4.87,5.74-.23.04-.47.07-.7.07Zm-3.74-48.23v.02s-.64.3-.64.3c-1.08.49-2.17.98-3.26,1.48-2.55,1.17-5.2,2.37-7.74,3.42-3.94,1.62-5.26,6.53-6.32,10.47l-.05.19c-1.06,3.93.63,5.98,3.5,7.85,3.66,2.38,8.3,6.64,9.64,13.35.52,2.59,2.31,4.36,4.21,6.24.32.31.63.63.94.94,1.59,1.62,2.84,2.32,3.83,2.13,1.16-.23,2.35-1.79,3.53-4.65,1.92-4.65,4.11-9.33,6.23-13.86,1.21-2.58,2.4-5.12,3.51-7.59,3.41-7.59,3.18-15-.72-23.32-.54-1.14-1.23-1.85-2.13-2.16-2.11-.73-5.15.81-7.59,2.05-.75.38-1.46.74-2.08,1.01-1.52.65-3.21,1.41-4.85,2.14Z"/>
              <path class="cls-6" d="m31.3,481.42c-1,0-1.99-.22-2.98-.73-1.56-.8-2.52-2.19-2.66-3.82-.19-2.33,1.5-3.03,2.51-3.45.18-.07.36-.15.52-.23,1.08-.53,2.17-1,3.27-1.47.77-.33,1.54-.66,2.31-1.01,2.87-1.32,5.02-1.55,6.58-.69,1.26.69,2.05,2.05,2.32,4.04.51,3.71-2.04,4.2-3.56,4.5-.67.13-1.37.26-1.61.58l-.31.26c-2.15,1.09-4.28,2.04-6.39,2.03Zm7.43-10.09c-.96,0-2.19.34-3.69,1.03-.78.36-1.57.7-2.35,1.03-1.07.46-2.13.91-3.18,1.43-.2.1-.41.19-.63.28-1.11.46-1.47.69-1.39,1.62.11,1.35,1.09,2.05,1.67,2.35,2.12,1.09,4.22.45,7.56-1.22.67-.72,1.67-.91,2.56-1.08,1.58-.31,2.38-.46,2.1-2.46-.19-1.38-.66-2.29-1.39-2.69-.34-.19-.76-.28-1.25-.28Z"/>
              <path class="cls-6" d="m235.93,522.01c-3.84-.02-10.98-4.73-12.7-7.91-.38-.7-.43-1.48-.15-2.19.37-.93,1.28-1.68,2.55-2.1l.28-.05s.06,0,.08,0c4.5.02,10.9,3.75,12.96,7.58.71,1.32.48,2.32.15,2.92-.57,1.07-1.81,1.64-2.79,1.73-.13.01-.26.02-.4.02Zm-9.86-10.42c-.66.24-1.14.61-1.29.99-.08.21-.07.42.06.65,1.57,2.92,8.54,7.22,11.33,6.94.47-.04,1.12-.35,1.35-.77.06-.11.25-.46-.15-1.19-1.57-2.9-7.15-6.56-11.29-6.62Z"/>
              <path class="cls-6" d="m176.62,582.05c-.31,0-.6-.07-.87-.2-1.13-.56-1.36-2-1.59-3.39-.11-.68-.22-1.38-.43-1.85l-.07-.26c-.24-2.19-.96-8.85,3.82-11.52.94-.53,1.78-.61,2.5-.25,1.38.7,1.65,2.72,1.88,4.51.04.32.08.62.13.9,1.17,7.28-1.38,10.32-3.72,11.58-.61.33-1.16.49-1.65.49Zm-1.15-6.03c.25.65.38,1.41.5,2.15.11.67.31,1.91.59,2.05.06.03.31.03.84-.26,2.65-1.43,3.59-4.69,2.79-9.69-.05-.29-.09-.62-.13-.95-.13-1-.37-2.85-.89-3.11-.13-.06-.44.02-.79.21-2.49,1.39-3.44,4.53-2.91,9.6Z"/>
              <path class="cls-6" d="m252.03,462.95c-.8,0-1.67-.46-2.21-1.19-.54-.73-.63-1.58-.26-2.33.25-.56.51-1.16.78-1.78,1.59-3.7,3.39-7.9,7.02-10.04.4-.23,1.77-.96,2.86-.46.52.24.86.7.98,1.31v.11c.33,4.73-4.64,13.67-8.83,14.37-.11.02-.22.03-.33.03Zm7.36-14.22c-.06.02-.6.15-1.11.44-3.12,1.84-4.72,5.58-6.27,9.19-.27.63-.53,1.24-.8,1.84-.04.09-.11.22.08.47.24.32.65.48.78.45,3-.5,7.55-8.22,7.33-12.38,0-.01,0-.01,0-.01Z"/>
              <path class="cls-6" d="m249.98,518.7c-.34,0-.69-.08-1.02-.27-.76-.43-1.21-1.35-1.38-2.8-.34-2.9.47-6.51,6.27-7.27.31-.04.75-.22,1.19-.38,1.05-.41,2.23-.87,3.28-.29.66.37,1.09,1.08,1.27,2.12.44,1.82.12,3.58-.92,5.04-1.2,1.68-3.25,2.77-5.62,2.99h-.1s-.1,0-.1,0h0c-.16,0-.61.19-.91.32-.59.26-1.27.55-1.95.55Zm7.23-9.47c-.39,0-1.05.26-1.52.44-.53.21-1.09.42-1.62.49-3.56.46-5.06,2.13-4.69,5.25.14,1.21.44,1.41.47,1.43.21.12.92-.19,1.34-.37.57-.25,1.17-.51,1.74-.47,1.79-.19,3.36-1.02,4.23-2.23.73-1.01.94-2.26.62-3.6-.13-.72-.32-.87-.38-.9-.05-.03-.13-.04-.21-.04Z"/>
              <path class="cls-6" d="m289.49,546.78c-.87,0-1.65-.25-2.35-.75-1.67-1.2-2.35-3.55-2.62-5.32-.05-.36-.21-.82-.38-1.31-.41-1.19-.87-2.54-.27-3.6.32-.57.87-.94,1.64-1.11,4.03-.89,4.91,2.5,5.49,4.76.18.71.36,1.39.59,1.95l.11.27-.07.29c-.05.19.21.75.36,1.08.34.74.77,1.67.32,2.53-.31.59-.93.97-1.91,1.14-.31.06-.62.08-.91.08Zm-2.74-10.43c-.25,0-.53.03-.85.11-.14.03-.37.1-.44.22-.2.36.16,1.42.41,2.12.19.55.38,1.11.46,1.63.31,2.01.98,3.47,1.88,4.11.52.37,1.13.49,1.87.36.51-.09.63-.21.63-.21,0-.11-.24-.61-.37-.9-.27-.59-.58-1.25-.53-1.94-.23-.62-.41-1.3-.58-1.95-.61-2.38-1.07-3.53-2.48-3.54Z"/>
              <path class="cls-6" d="m104.81,480.19c-.38,0-.67-.11-.9-.23-1.26-.7-1.44-2.67-1.58-4.26l-.06-.6c-.05-.48-.13-1-.21-1.54-.45-3.11-1.06-7.38,2.19-9.45.83-.53,1.56-.65,2.18-.35,1.05.5,1.21,1.88,1.36,3.21.06.55.17,1.48.34,1.69l.26.21.13.8c.58,3.25,1.47,8.16-2.48,10.19-.47.24-.88.33-1.23.33Zm.83-14.77s-.17.08-.4.23c-2.26,1.44-1.78,4.74-1.36,7.65.08.57.16,1.11.21,1.61l.06.63c.06.71.23,2.6.64,2.83.01,0,.14.01.41-.13,2.54-1.3,2.19-4.51,1.52-8.25l-.04-.23c-.48-.62-.59-1.58-.7-2.59-.06-.52-.17-1.47-.35-1.76Z"/>
              <path class="cls-6" d="m239.3,507.49c-.49,0-.93-.13-1.3-.39-1.02-.71-1.19-2.12-1.34-3.37-.06-.49-.11-.97-.23-1.37-1.03-3.59.1-6.84,2.76-7.9.88-.35,1.63-.35,2.22,0,.97.59,1.11,1.84,1.23,2.95.05.48.12,1.09.25,1.33l.1.29-.9.15.92-.02c.52,3.22,1.18,7.24-2.87,8.22-.3.07-.58.11-.84.11Zm1.1-11.47c-.08,0-.25.02-.54.13-1.75.7-2.44,3.04-1.68,5.7.15.51.22,1.09.28,1.65.09.78.22,1.85.57,2.09.16.11.49.05.67.01,2.17-.53,2.12-2.37,1.5-6.15-.24-.54-.32-1.2-.39-1.85-.05-.47-.16-1.45-.36-1.58,0,0-.02,0-.07,0Z"/>
              <path class="cls-6" d="m98.61,482.25c-.4,0-.77-.1-1.1-.29-.68-.39-1.13-1.15-1.33-2.25-.44-2.44.3-4.49,2.01-5.64.78-.52,1.52-.65,2.18-.38,1.09.44,1.52,1.81,1.77,2.95v.06c.43,2.8-.38,4.59-2.4,5.33-.4.15-.78.22-1.13.22Zm1.07-6.87s-.2.03-.47.21c-1.48.99-1.41,2.81-1.23,3.8.09.51.26.88.44.99.18.11.52,0,.7-.06.81-.3,1.6-.93,1.24-3.32-.33-1.47-.65-1.62-.67-1.62,0,0,0,0-.01,0Z"/>
            </g>
          </g>
        </g>
        <g class="cls-22">
          <path class="cls-8" d="m94.13,584.71c-42.26-3.4-76.04-33.27-86.4-72.02-1.59,5.81-2.67,11.85-3.17,18.07-.08.98-.15,1.96-.2,2.94-2.65,52.44,36.87,97.83,89.56,102.06,52.69,4.24,98.96-34.24,104.72-86.44.11-.97.2-1.95.28-2.94.92-11.41-.17-22.52-2.97-32.99-12.14,44.28-54.38,75.11-101.83,71.3Z"/>
        </g>
        <g class="cls-23">
          <path class="cls-13" d="m4.52,540.5c.99-12.29,4.22-23.86,9.25-34.35,16.74-34.89,53.47-57.78,94.25-55.13.5.03,1,.07,1.5.11.5.04,1.01.08,1.51.13,40.69,3.9,73.27,32.37,84.21,69.48,2.18,7.38,3.49,15.09,3.85,23.03.61-11.36-.76-22.4-3.81-32.76-10.94-37.11-43.53-65.58-84.21-69.48-.5-.05-1.01-.09-1.51-.13-.5-.04-1-.08-1.5-.11-40.78-2.66-77.51,20.23-94.25,55.13-5.03,10.49-8.26,22.06-9.25,34.35-.08.98-.15,1.96-.2,2.94-.16,3.18-.16,6.34-.02,9.46.05-.89.11-1.78.18-2.67Z"/>
        </g>
        <circle class="cls-2" cx="101.74" cy="538.59" r="97.5" transform="translate(-351.04 229.69) rotate(-45)"/>
        <path class="cls-8" d="m101.47,640.33c-2.62-.01-5.25-.12-7.88-.33-26.55-2.14-50.84-14.35-68.38-34.39C7.69,585.61-1.21,560,.13,533.5c.05-1.02.12-2.05.21-3.07,1.01-12.54,4.26-24.6,9.65-35.84,18.07-37.66,56.66-60.25,98.34-57.52.46.03.97.07,1.47.11.63.05,1.17.09,1.7.15,41.54,3.98,76.03,32.44,87.84,72.5,3.53,11.96,4.81,24.38,3.8,36.92h0c-.08,1.02-.18,2.05-.29,3.06-2.91,26.38-15.79,50.24-36.27,67.18-18.48,15.29-41.36,23.44-65.12,23.35Zm.53-195.01c-35.98-.14-68.64,20.17-84.36,52.93-4.95,10.3-7.92,21.36-8.85,32.86-.08.94-.14,1.88-.19,2.82-2.57,50.67,35.06,93.56,85.67,97.63,50.61,4.07,94.61-32.25,100.18-82.68.1-.93.19-1.87.26-2.81h0c.92-11.5-.25-22.89-3.48-33.85-10.83-36.72-42.45-62.81-80.56-66.46-.5-.05-.97-.09-1.45-.13-.53-.04-.97-.08-1.4-.1-1.95-.13-3.9-.19-5.83-.2Z"/>
      </g>
      <g>
        <path class="cls-5" d="m1077.3,544.63c.78,4.99,1.14,9.95,1.09,14.83-.06,7.63-1.1,15.11-3,22.27-1.95,7.38-4.84,14.44-8.53,21.02-13.09,23.31-36.34,40.6-64.8,45.06-25.33,3.97-49.84-3-68.72-17.4-6.65-5.06-12.59-11.03-17.63-17.78h0c-1.75-2.34-3.38-4.76-4.9-7.27-1.81-2.99-3.46-6.09-4.91-9.31-1.33-2.91-2.51-5.91-3.52-8.99-1.54-4.65-2.72-9.48-3.5-14.47-.25-1.6-.45-3.19-.62-4.78-.34-3.38-.5-6.75-.47-10.08.03-4.55.41-9.03,1.12-13.42,2.19-13.68,7.5-26.5,15.28-37.57,13.58-19.36,34.71-33.38,59.92-37.33,26.64-4.17,52.37,3.76,71.62,19.71,5.49,4.55,10.45,9.75,14.75,15.51,1.74,2.32,3.37,4.74,4.88,7.24,1.95,3.22,3.71,6.59,5.26,10.09,1.63,3.68,3.03,7.5,4.18,11.43.62,2.14,1.16,4.31,1.63,6.52.32,1.57.62,3.15.87,4.74Z"/>
        <path class="cls-7" d="m1072.5,564.26c-3.17,37.92-31.87,70.2-71.13,76.35-46.09,7.22-89.32-24.28-96.57-70.36,25.29,23.55,61.41,30.35,98.94,24.46,27.63-4.33,51.49-12.31,68.76-30.46Z"/>
        <path class="cls-7" d="m1072.5,564.26c-3.17,37.92-31.87,70.2-71.13,76.35-46.09,7.22-89.32-24.28-96.57-70.36,25.29,23.55,61.41,30.35,98.94,24.46,27.63-4.33,51.49-12.31,68.76-30.46Z"/>
        <path class="cls-10" d="m925.65,599.12c-6.15,1.77-10.88,4.19-14.84,6.24-1-1.65-1.96-3.34-2.85-5.07-.31-.6-.62-1.2-.92-1.81-.39-.8-.78-1.61-1.15-2.43,4.99-1.61,10.87-4.1,17.45-5.88,2.28-.62,4.82-.71,7.54-.64,4.14,2.23,8.43,4.21,12.84,5.92-8.72,3.11-11.78,1.87-18.08,3.67Z"/>
        <path class="cls-10" d="m1075.39,581.73c-.18.7-.38,1.41-.59,2.11-.12.44-.26.87-.39,1.31-.22.71-.44,1.42-.68,2.12-.21.63-.43,1.26-.66,1.89-.45,1.23-.92,2.46-1.42,3.68-.01.04-.02.07-.04.11-.24.58-.48,1.15-.73,1.72-.53,1.23-1.09,2.44-1.69,3.64-.29.59-.59,1.19-.89,1.77-.3.59-.61,1.17-.93,1.75-.17.31-.34.62-.51.92-9.51.36-19.09,1.6-28.14,4.08-15.85,4.34-19.99,17.35-46.39,12.53-22.04-4.03-40.64-1.38-56.98,9.75-.65.44-1.32.88-2,1.3-.3-.22-.59-.45-.89-.69-.38-.3-.77-.61-1.16-.92-.38-.3-.76-.61-1.13-.93-.75-.62-1.48-1.24-2.19-1.89-.47-.41-.92-.82-1.37-1.24-.04-.04-.08-.07-.12-.12-.48-.45-.97-.91-1.44-1.37-.03-.03-.06-.06-.08-.08-.52-.51-1.03-1.02-1.53-1.54-.41-.42-.82-.85-1.22-1.27-.66-.7-1.31-1.4-1.93-2.12-.42-.47-.83-.95-1.24-1.43-.32-.38-.64-.76-.95-1.15-.48-.59-.95-1.18-1.42-1.78-.33-.41-.64-.84-.96-1.26,6.33.73,13.24.82,20.34-.29,10.72-1.68,18.78-6.32,26.44-11.34h0c13.23,2.71,27.17,3.15,41.29.93,13.57-2.13,26.22-6.52,37.62-12.74,6.04.28,12.69-.24,20.61-2.3,5.09-1.33,9.53-3.13,13.37-5.15Z"/>
        <path class="cls-9" d="m952.82,591.55c-16.33,7.96-19.07,5.25-27.16,7.57-6.15,1.77-10.88,4.19-14.84,6.24-1.81-2.99-3.46-6.09-4.91-9.31,4.99-1.61,10.87-4.1,17.45-5.88,7.56-2.05,17.98,1.63,28.67-1.96,12.78-4.29,7.35.15.8,3.35Z"/>
        <path class="cls-10" d="m943.73,595.45c-8.72,3.11-11.78,1.87-18.08,3.67-6.15,1.77-10.88,4.19-14.84,6.24-1-1.65-1.96-3.34-2.85-5.07-.31-.6-.62-1.2-.92-1.81-.39-.8-.78-1.61-1.15-2.43,4.99-1.61,10.87-4.1,17.45-5.88,2.28-.62,4.82-.71,7.54-.64,4.14,2.23,8.43,4.21,12.84,5.92Z"/>
        <path class="cls-9" d="m1070.62,521.94c-1.1.39-2.22.8-3.39,1.25-26.04,9.92-48.2.06-50.09-.72-2.83-1.17,13.44,0,23.99-2.33,8.38-1.84,16.81-4.61,24.23-8.29,1.95,3.22,3.71,6.59,5.26,10.09Z"/>
        <path class="cls-9" d="m1075.39,581.73c-1.95,7.38-4.84,14.44-8.53,21.02-9.51.36-19.1,1.6-28.15,4.08-15.85,4.34-19.99,17.35-46.39,12.53-22.04-4.03-40.64-1.38-56.98,9.75-.65.44-1.32.88-2,1.3-6.65-5.06-12.59-11.03-17.63-17.78,6.33.73,13.24.82,20.34-.3,27.41-4.29,37.44-27.92,67.73-27.98,20.7-.05,33.08,9.1,58.24,2.53,5.09-1.33,9.53-3.13,13.37-5.15Z"/>
        <path class="cls-9" d="m1075.39,581.73c-1.95,7.38-4.84,14.44-8.53,21.02-9.51.36-19.1,1.6-28.15,4.08-15.85,4.34-19.99,17.35-46.39,12.53-22.04-4.03-40.64-1.38-56.98,9.75-.65.44-1.32.88-2,1.3-6.65-5.06-12.6-11.03-17.63-17.78,6.33.73,13.24.82,20.34-.29,27.41-4.29,37.44-27.92,67.73-27.98,20.7-.05,33.08,9.1,58.24,2.53,5.09-1.33,9.53-3.13,13.37-5.15Z"/>
        <path class="cls-10" d="m1075.39,581.73c-.18.7-.38,1.41-.59,2.11-.12.44-.26.87-.39,1.31-.22.71-.44,1.42-.68,2.12-.21.63-.43,1.26-.66,1.89-.45,1.23-.92,2.46-1.42,3.68-.01.04-.02.07-.04.11-.24.58-.48,1.15-.73,1.72-.53,1.23-1.09,2.44-1.69,3.64-.29.59-.59,1.19-.89,1.77-.3.59-.61,1.17-.93,1.75-.16.3-.33.62-.5.92h0c-9.51.36-19.09,1.6-28.14,4.08-15.85,4.34-19.99,17.35-46.39,12.53-22.04-4.03-40.64-1.38-56.98,9.75-.65.44-1.32.88-2,1.3-.3-.22-.59-.45-.89-.69-.38-.3-.77-.61-1.16-.92-.38-.3-.76-.61-1.13-.93-.75-.62-1.48-1.24-2.19-1.89-.47-.41-.92-.82-1.37-1.24-.04-.04-.08-.07-.12-.12-.48-.45-.97-.91-1.44-1.37-.03-.03-.06-.06-.08-.08-.52-.51-1.03-1.02-1.53-1.54-.41-.42-.82-.85-1.22-1.27-.66-.7-1.31-1.4-1.93-2.12-.42-.47-.83-.95-1.24-1.43-.32-.38-.64-.76-.95-1.15-.48-.59-.95-1.18-1.42-1.78-.33-.41-.64-.84-.96-1.26,6.33.73,13.24.82,20.34-.29,10.72-1.68,18.78-6.32,26.44-11.34h0c13.23,2.71,27.17,3.15,41.29.93,13.57-2.13,26.22-6.52,37.62-12.74,6.04.28,12.69-.24,20.61-2.3,5.09-1.33,9.53-3.13,13.37-5.15Z"/>
        <path class="cls-9" d="m1077.3,544.63c.78,4.99,1.14,9.95,1.09,14.83-11.08,5.44-26.99,7.35-42.6,6.33-17.91-1.16-35.18-4.8-50.69,4.06-28.06,16.02-38.79,1.67-58.09,6-10.76,2.42-18.35,7.15-24.63,11.2-1.54-4.65-2.72-9.48-3.5-14.47-.25-1.6-.45-3.19-.62-4.78-.34-3.38-.5-6.75-.47-10.08,8.61,1.95,19.04,3.07,29.93,1.36,27.41-4.29,37.43-27.93,67.73-27.99,20.7-.04,36.2,14.34,59.31,10.94,8.43-1.24,15.02-4.64,20.05-8.67.62,2.14,1.16,4.31,1.63,6.52.32,1.57.62,3.15.87,4.74Z"/>
        <path class="cls-9" d="m1060.48,504.61c-5.28-.8-11.68-.8-19.57,1.73-16.47,5.28-34.14,12.96-64.12,10.54-24.62-1.99-38.79,5-53.46,15.81-8.31,6.13-16.01,10.17-24.42,11.61,2.19-13.68,7.5-26.5,15.28-37.57,1.72-.14,3.47-.34,5.22-.62,27.41-4.29,43.94-15.37,69.86-19.69,20.14-3.37,38.77,3.59,56.46,2.68,5.49,4.55,10.45,9.75,14.75,15.51Z"/>
        <circle class="cls-2" cx="988.09" cy="558.61" r="90.3" transform="translate(-105.59 862.3) rotate(-45)"/>
        <path class="cls-5" d="m1017.07,546.81c-8.45-4.2-16.17-7.68-23.87-7.07-6.2.49-8.6,1.13-20.3,9.36-9.46,6.66-22.64,13.69-15.23,16.96,6.21,2.75,14.96-7.52,29.24-9.31,15.33-1.92,22.75.73,29.51-1,9.91-2.54,9.11-4.74.66-8.95Z"/>
        <g class="cls-23">
          <path class="cls-13" d="m898.25,567.81c.18.87.37,1.73.58,2.59-2.65-40.97,30.78-78.76,77.62-86.09,46.84-7.34,90.22,18.41,100.23,58.23-.07-.88-.14-1.76-.24-2.65-9.86-46.67-54.64-77.96-102.32-70.49-47.67,7.47-80.75,50.96-75.86,98.41Z"/>
        </g>
        <g class="cls-25">
          <path class="cls-13" d="m1024.6,509.3c2.1,10.56,20.85,16.56,31.92,43.13,4.7,11.27,12.16-3.61-.69-24.12-11.91-19.01-32.72-26.46-31.23-19.01Z"/>
        </g>
        <g class="cls-25">
          <path class="cls-13" d="m996.28,499.02c2.96,2.73,10.82,2.61,18.37,6.09,8.07,3.73,12.64-1.27,0-9.88-13.47-9.18-23.95-1.36-18.38,3.79Z"/>
        </g>
        <path class="cls-10" d="m915.54,579.65c-5.14,2.28-9.39,4.96-13.17,7.4-.15-.45-.29-.9-.43-1.35-.12-.36-.23-.72-.33-1.09-.12-.36-.22-.72-.32-1.09-.17-.59-.34-1.19-.49-1.79-.08-.27-.14-.53-.2-.79-.13-.48-.25-.96-.36-1.44-.03-.12-.06-.25-.08-.37-.12-.52-.25-1.04-.35-1.56-.05-.24-.1-.47-.14-.71-.14-.66-.27-1.32-.39-1.99-.14-.76-.27-1.52-.39-2.3-.25-1.6-.45-3.19-.62-4.78-.07-.71-.14-1.42-.19-2.13-.02-.16-.03-.32-.03-.48-.06-.7-.1-1.39-.13-2.09,5.3,6.13,11.22,11.67,17.65,16.55Z"/>
        <path class="cls-10" d="m915.54,579.65c-5.14,2.28-9.39,4.96-13.17,7.4-.15-.45-.29-.9-.43-1.35-.12-.36-.23-.72-.33-1.09-.12-.36-.22-.72-.32-1.09-.17-.59-.34-1.19-.49-1.79-.08-.27-.14-.53-.2-.79-.13-.48-.25-.96-.36-1.44-.03-.12-.06-.25-.08-.37-.12-.52-.25-1.04-.35-1.56-.05-.24-.1-.47-.14-.71-.14-.66-.27-1.32-.39-1.99-.14-.76-.27-1.52-.39-2.3-.25-1.6-.45-3.19-.62-4.78-.07-.71-.14-1.42-.19-2.13-.02-.16-.03-.32-.03-.48-.06-.7-.1-1.39-.13-2.09,5.3,6.13,11.22,11.67,17.65,16.55Z"/>
        <path class="cls-8" d="m987.66,653.13c-45.56-.18-85.67-33.47-92.95-79.89h0c-.26-1.66-.47-3.33-.65-4.98-5.15-50,29.72-95.24,79.4-103.03,49.68-7.78,96.72,24.63,107.1,73.79.34,1.65.65,3.3.91,4.96,3.91,24.94-2.13,49.91-17,70.31-14.87,20.4-36.8,33.79-61.74,37.7-5.06.79-10.09,1.17-15.06,1.15Zm-84.61-81.2c7.35,46.89,51.47,79.07,98.37,71.72,22.72-3.56,42.69-15.75,56.23-34.33,13.55-18.58,19.05-41.32,15.49-64.03-.24-1.53-.52-3.05-.83-4.54-9.45-44.75-52.29-74.26-97.53-67.17-45.24,7.09-77,48.29-72.31,93.8.16,1.5.36,3.03.6,4.56h0Z"/>
      </g>
      <g>
        <path class="cls-17" d="m340.97,292.03c-1.51,3.6-3.25,7.13-5.21,10.56-4.49,7.9-10.15,15.32-16.97,21.99-39.35,38.5-102.46,37.81-140.96-1.54-30.65-31.33-36.46-77.73-17.69-114.77,4.81-9.48,11.21-18.34,19.23-26.19,12.52-12.24,27.43-20.52,43.2-24.85,2.53-.7,5.1-1.3,7.67-1.79,13.86-2.66,28.17-2.35,41.92.91.12.03.24.06.36.09.84.2,1.68.41,2.52.64,1.66.45,3.31.94,4.95,1.47,11.13,3.62,21.75,9.25,31.27,16.88,3.15,2.51,6.18,5.25,9.07,8.2.62.64,1.23,1.27,1.83,1.93.36.39.72.79,1.07,1.18,26.46,29.41,32.3,70.66,17.73,105.29Z"/>
        <path class="cls-20" d="m156.84,215.52c-.42,1.03-.83,2.08-1.22,3.11.35-1.05.75-2.09,1.22-3.11Z"/>
        <path class="cls-20" d="m336.66,290.9c-1.1,2.38-2.31,4.72-3.62,7.02-4.29,7.55-9.7,14.64-16.23,21.02-37.63,36.81-97.97,36.16-134.79-1.47-21.15-21.62-29.94-50.74-26.44-78.59,14.8,52.87,134.69,112.96,181.07,52.02Z"/>
        <path class="cls-20" d="m161.94,214.66c-.4.98-.79,1.97-1.16,2.96.33-1,.71-1.99,1.16-2.96Z"/>
        <path class="cls-20" d="m336.66,290.9c-1.1,2.38-2.31,4.72-3.62,7.02-4.29,7.55-9.7,14.64-16.23,21.02-37.63,36.81-97.97,36.16-134.79-1.47-21.15-21.62-29.94-50.74-26.44-78.59,14.8,52.87,134.69,112.96,181.07,52.02Z"/>
        <path class="cls-20" d="m304.09,281.09c-6.07,10.87-5.3,21.35,1.72,23.42,7.02,2.07,18.18-4.57,24.25-15.44,6.07-10.87,4.76-21.84-2.26-23.91-7.02-2.07-17.63,5.06-23.7,15.93Z"/>
        <path class="cls-8" d="m301.13,271.77c-7.85,8.92-11.62,27.12-1.33,35.47.6.36.15,1.35-.52,1.12-14.75-6.01-11.48-30.76.88-37.79.74-.45,1.56.57.97,1.19h0Z"/>
        <ellipse class="cls-20" cx="222.7" cy="183.32" rx="8.45" ry="9.91" transform="translate(-5.71 359.48) rotate(-77.1)"/>
        <ellipse class="cls-17" cx="223.99" cy="186.67" rx="7.44" ry="6.01" transform="translate(-11.72 15.03) rotate(-3.75)"/>
        <path class="cls-8" d="m220.26,192.61c-7.73-.67-12.97-10.08-7.37-16.4,5.13-5.78,15.1-4.76,19.46,1.34,3.06,3.76,2.49,10.19-1.71,12.75-.59.4-1.28-.42-.81-.93,5.63-6.61-2.52-14.44-9.64-12.72-8.67,1.92-7.09,11.61.45,14.48.83.31.48,1.61-.38,1.49h0Z"/>
        <path class="cls-8" d="m236.97,181.13c2.11,4.09,1.07,9.5-2.14,12.82-6.53,6.98-18.62,5.93-24.64-1.08-3-3.31-4.4-8.4-2.66-12.58.13-.32.49-.47.81-.34.27.11.42.38.38.65-.83,7.86,6.5,13.66,13.73,13.93,7.24.61,14.61-5.01,13.07-12.93-.19-.86,1.1-1.27,1.46-.48h0Z"/>
        <path class="cls-8" d="m190.58,197.31c19.71,8.94,12.72,36.41-5.13,43.36-5.56,2.39-12.05,2.73-17.57.55-.32-.13-.47-.49-.35-.8.11-.28.42-.43.7-.38,5.48,1.04,11.04-.03,15.78-2.46,14.54-6.95,20.96-28.98,5.86-38.9-.78-.46-.13-1.73.7-1.36h0Z"/>
        <ellipse class="cls-20" cx="177.51" cy="218.61" rx="17.19" ry="14.24" transform="translate(-97.46 279.36) rotate(-63.38)"/>
        <path class="cls-17" d="m172.84,232.52c4.84,1.5,10.76-.33,14.95-5.13,5.58-6.39,5.97-15.63.88-20.63-.72-.71-1.51-1.29-2.35-1.75-4,.39-8.1,2.49-11.3,6.16-5.66,6.5-6.48,15.65-2.18,21.36Z"/>
        <path class="cls-8" d="m165.95,208.55c10.82-13.45,32-4.75,26.82,12.87-4.29,14.72-27.34,19.32-31.16,2.26-.11-.73.98-.98,1.2-.29,1.86,5.89,8.09,9,13.91,7.73,8.31-1.56,15.01-10.81,11.99-19-3.39-8.76-15.15-8.59-21.65-2.52-.67.64-1.7-.35-1.12-1.05h0Z"/>
        <path class="cls-8" d="m292.28,247.88c-.79,12.11-10.95,23.09-23.07,25.28-16.4,3.47-33.61-7.74-38.02-23.63-1.09-3.84-1.49-7.86-1.07-11.75.05-.45.46-.78.91-.73.4.04.71.37.74.76.68,7.27,3.6,14.17,8.35,19.61,15.2,17.57,43.45,13.24,50.15-9.9.29-1.17,2.15-.82,2.01.37h0Z"/>
        <ellipse class="cls-20" cx="261.41" cy="240.27" rx="19.98" ry="21.92" transform="translate(17.29 498.09) rotate(-89.15)"/>
        <path class="cls-17" d="m242.61,240.43c-.17,7.08,4.16,14.07,11.55,17.42,9.83,4.46,21.36.78,25.76-8.22.62-1.27,1.07-2.58,1.34-3.9-1.88-5.1-5.9-9.57-11.53-12.13-9.99-4.53-21.57-1.44-27.11,6.83Z"/>
        <path class="cls-8" d="m269.8,220.49c11.11,4.28,17.05,18.73,11.52,29.55-5.31,11.86-21.43,14.92-31.49,7.34-12.19-8.11-13.75-28.27-.29-35.77.86-.48,1.68.77.92,1.37-13.69,11.22-4.08,33.77,12.9,33.09,18.26-1.28,20.08-24.96,5.51-33.76-1.06-.62-.18-2.31.93-1.83h0Z"/>
        <g>
          <path class="cls-17" d="m191.33,277.82c-5.2,1.03-9.74,3.44-13.01,7.26-5.93,6.93-6.04,16.51-1.85,26.21,2.75,6.37,7.48,12.61,13.95,17.78,16.33,13.05,37.54,14.32,47.36,2.85,3.65-4.27,5.22-9.71,4.9-15.52-.54-9.81-10.68-15.73-20.94-23.93"/>
          <path class="cls-8" d="m179.1,285.75c-4.9,6.76-4.23,15.4-1.16,22.77,6.27,14.77,20.88,26.03,36.68,28.69,7.93,1.26,16.56-.04,22.55-5.83.67-.71,1.84.3,1.25,1.07-2.6,3.66-6.57,6.35-10.87,7.84-21.96,6.71-46.77-9.18-54.09-30.1-3.05-8.39-2.72-19.29,4.09-25.77.87-.86,2.27.35,1.55,1.33h0Z"/>
          <ellipse class="cls-20" cx="208.11" cy="308.34" rx="20.9" ry="28.75" transform="translate(-163.49 325.43) rotate(-58.62)"/>
          <ellipse class="cls-17" cx="207.77" cy="314.32" rx="15.37" ry="24.37" transform="translate(-166.41 358.56) rotate(-63.28)"/>
          <path class="cls-8" d="m220.62,330.8c17.97-5.12,12.46-25.78.9-34.95-9.49-9-30.89-14.54-36.71.88-2.89,9.64,3.3,20.21,10.38,26.74.77.66-.23,1.88-1.03,1.29-24.62-17.12-16.12-50.45,16.14-41.54,10.93,3.58,20.49,11.8,24.62,22.63,3.35,8.14,2.02,18.99-5.86,24.02-1.28,1.02-8.84,4.5-9.18,2.04-.06-.51.27-.98.75-1.12h0Z"/>
        </g>
        <g>
          <path class="cls-17" d="m301.08,211.73c4.01-1.21,7.39-3.45,9.67-6.71,4.13-5.91,3.48-13.45-.56-20.76-2.65-4.8-6.85-9.34-12.34-12.91-13.85-9.01-30.62-8.38-37.46,1.4-2.55,3.64-3.36,8.03-2.66,12.58,1.18,7.67,6.87,15.43,15.56,21.09"/>
          <path class="cls-8" d="m310.13,204.58c3.39-5.69,2.19-12.48-.78-18.06-6.07-11.18-18.46-18.94-31.13-19.8-6.35-.37-13.08,1.32-17.31,6.39-.22.26-.61.3-.87.08-.23-.19-.28-.53-.14-.78,1.77-3.07,4.7-5.43,7.95-6.95,19.73-8.18,46.51,8.39,47.12,29.97-.08,3.63-1.26,7.31-3.57,10.04-.59.7-1.72-.1-1.26-.88h0Z"/>
          <ellipse class="cls-20" cx="285.54" cy="189.02" rx="16.51" ry="22.72" transform="translate(-8.93 363.8) rotate(-64.19)"/>
          <ellipse class="cls-17" cx="285.35" cy="184.29" rx="12.14" ry="19.26" transform="translate(10.55 383.96) rotate(-68.86)"/>
          <path class="cls-8" d="m273.96,172.27c-13.83,5.38-7.92,21.32,1.93,27.69,8.2,6.4,25.57,9.08,28.95-3.58,1.51-7.87-4.12-15.62-10.29-20.28-.63-.43.03-1.43.67-1.04,12.36,6.36,20.07,25.43,4.23,32.76-16.47,6.87-41.36-9.95-36.03-28.41,1.59-4.41,5.61-7.67,10.09-8.61.92-.22,1.31,1.15.44,1.47h0Z"/>
        </g>
        <ellipse class="cls-17" cx="314.54" cy="283.43" rx="19.34" ry="10.08" transform="translate(-98.55 376.3) rotate(-54.69)"/>
        <path class="cls-8" d="m333.41,273.61c-4.12-13.21-19.96-4.16-25.2,3.62-5.59,6.58-11.46,23.59,1.05,25.58,7.28.36,14.11-4.9,18.79-10.32.47-.6,1.42.11,1,.73-3.23,5.06-7.87,9.6-13.62,11.83-6.39,2.83-14.66.56-16.77-6.67-4.55-15.06,12.09-36.76,28.12-34.24,2.17.49,4.24,1.65,5.67,3.35,1.45,1.69,2.21,3.78,2.47,5.83.05.42-.24.81-.67.86-.38.05-.73-.2-.84-.55h0Z"/>
        <g class="cls-25">
          <path class="cls-13" d="m318.64,206.33c-2.96,11.69,13.1,26.77,11.5,58.97-.68,13.66,14.03,2.21,10.92-24.71-2.89-24.95-20.33-42.5-22.42-34.26Z"/>
        </g>
        <g class="cls-25">
          <path class="cls-13" d="m294.97,182.31c1.67,4.19,9.69,7.85,15.64,15.01,6.36,7.65,13.39,4.8,4.76-9.99-9.2-15.77-23.56-12.91-20.4-5.02Z"/>
        </g>
        <path class="cls-8" d="m248.68,356.68c-26.72-.11-53.39-10.47-73.5-31.03-31-31.69-38.38-79.53-18.35-119.05,5.1-10.07,11.81-19.21,19.94-27.17,12.53-12.26,28.03-21.17,44.81-25.78,2.6-.72,5.28-1.35,7.96-1.86,14.29-2.74,29.32-2.41,43.47.95l.41.1c.84.2,1.72.42,2.59.66,1.67.45,3.4.96,5.12,1.52,11.83,3.85,22.75,9.74,32.45,17.51,3.28,2.62,6.45,5.48,9.4,8.5.65.67,1.29,1.33,1.91,2.01.36.39.74.81,1.11,1.23,26.62,29.58,33.84,72.45,18.38,109.2-1.56,3.71-3.38,7.4-5.4,10.96-4.76,8.36-10.68,16.04-17.6,22.81-20.19,19.75-46.48,29.54-72.71,29.44Zm.77-199.29c-6.21-.02-12.43.54-18.51,1.71-2.48.47-4.96,1.05-7.38,1.72-15.58,4.28-29.96,12.55-41.59,23.92-7.55,7.39-13.78,15.87-18.51,25.21-18.59,36.68-11.74,81.07,17.03,110.48,37,37.82,97.88,38.48,135.7,1.48,6.43-6.29,11.93-13.41,16.34-21.17,1.88-3.3,3.57-6.72,5.01-10.17h0c14.34-34.11,7.64-73.9-17.07-101.36-.35-.39-.68-.76-1.02-1.13-.6-.65-1.19-1.27-1.79-1.88-2.74-2.8-5.67-5.45-8.72-7.89-9.01-7.22-19.13-12.68-30.1-16.25-1.6-.52-3.21-1-4.77-1.41-.81-.22-1.62-.42-2.42-.62l-.41-.1c-7.09-1.68-14.44-2.54-21.8-2.57Z"/>
      </g>
      <g>
        <path class="cls-18" d="m650.83,89.9c.61,4.18.96,8.34,1.04,12.45-19.3,8.17-55.33,17.02-97.09,23.13-41.75,6.1-78.81,7.94-99.64,5.64-1.1-3.97-1.96-8.05-2.57-12.23-.03-.2-.06-.39-.08-.59-.26-1.84-.47-3.68-.62-5.51-.37-4.29-.45-8.54-.28-12.74,0-.17.01-.34.02-.51.3-6.24,1.17-12.36,2.59-18.3,2.69-11.3,7.32-21.96,13.56-31.53,15.15-23.24,39.83-40.11,69.45-44.44,29.37-4.29,57.63,4.62,78.74,22.26,8.67,7.24,16.14,15.95,21.99,25.82,3.13,5.28,5.79,10.89,7.93,16.79.18.47.34.95.51,1.43,1.37,3.98,2.51,8.08,3.38,12.29.33,1.56.62,3.14.87,4.73.07.43.14.87.2,1.31Z"/>
        <path class="cls-12" d="m645.1,140.66c-1.49,3.82-3.2,7.54-5.14,11.14-2.71,5.05-5.86,9.86-9.39,14.37-15.31,19.55-37.87,33.48-64.38,37.36-26.57,3.88-52.23-3.04-72.51-17.45-4.45-3.17-8.65-6.69-12.54-10.55-3.05-3.02-5.91-6.24-8.56-9.64,25.32.84,55.37-.9,87.29-5.57,31.91-4.67,61.2-11.6,85.23-19.65Z"/>
        <path class="cls-12" d="m651.87,102.35c-19.29,8.17-55.33,17.02-97.09,23.13-41.76,6.1-78.82,7.94-99.65,5.64-1.09-3.97-1.95-8.05-2.57-12.23-.03-.2-.05-.39-.08-.59-.26-1.85-.47-3.68-.62-5.51-.37-4.29-.45-8.54-.28-12.75,0-.17.01-.34.03-.51.3-6.24,1.17-12.36,2.58-18.3,2.69-11.3,7.32-21.95,13.56-31.53,12.26-18.79,30.74-33.42,53.03-40.61-30.28,15.96-69.43,82.07-4.17,107.81,39.36,15.53,121.3-12.78,135.04-17.66.3,2.84.14.3.2,3.11Z"/>
        <path class="cls-11" d="m559.88,160.31c31.91-4.67,61.2-11.6,85.23-19.65-1.49,3.82-3.2,7.54-5.14,11.14-18.65,6.78-47.29,13.55-79.74,18.29-31.08,4.54-59.34,6.31-79.08,5.43-3.05-3.02-5.91-6.24-8.56-9.64,25.32.84,55.37-.9,87.29-5.57Z"/>
        <path class="cls-11" d="m650.63,88.59c.07.43.14.87.2,1.31.61,4.18.96,8.34,1.04,12.45-19.3,8.17-55.33,17.02-97.09,23.13-41.75,6.1-78.81,7.94-99.64,5.64-1.1-3.97-1.96-8.05-2.57-12.23-.03-.2-.06-.39-.08-.59,19.42,3.32,56.98,2.04,99.55-4.19,44.25-6.47,81.79-16.5,98.59-25.52Z"/>
        <path class="cls-11" d="m453.11,84.42l2.2-6.39c12.93,4.45,50.38,3.4,91.09-2.55,48.56-7.1,81.67-17.77,89.28-24.64l4.53,5.01c-10.07,9.09-47.37,19.66-92.83,26.31-42.32,6.19-80.2,7.1-94.26,2.26Z"/>
        <path class="cls-11" d="m467.32,53.05l.89-6.69c15.39,2.04,43.5.6,73.38-3.77,31.3-4.58,59.23-11.51,72.9-18.11l2.93,6.08c-14.24,6.87-42.93,14.04-74.86,18.71-30.45,4.45-59.28,5.9-75.24,3.78Z"/>
        <path class="cls-11" d="m450.67,102.77l1.9-6.48c15.04,4.4,53.79,3.16,96.42-3.07,44.72-6.54,83.71-17.13,94.81-25.75l4.14,5.33c-12.12,9.41-51.49,20.3-97.98,27.1-44.19,6.46-83.16,7.59-99.29,2.87Z"/>
        <path class="cls-11" d="m493.33,187.71l.35-1.65-.34-1.66.34-.07.35.07c13.29,2.8,40.43,1.9,69.13-2.3,28.86-4.22,54.39-10.9,66.62-17.44l1.59,2.98c-12.55,6.71-38.5,13.54-67.72,17.81-29.51,4.31-56.45,5.18-70.32,2.26Z"/>
        <path class="cls-8" d="m551.35,208.76c-31.77-.13-62.23-14.81-82.08-40.31l-5.51-7.08,8.96.3c25.99.86,55.91-1.05,86.54-5.53,30.63-4.48,59.85-11.21,84.5-19.48l8.5-2.85-3.25,8.36c-13.61,34.97-45.11,60.07-82.22,65.49-5.16.75-10.32,1.11-15.45,1.09Zm-69.47-38.49c21.35,22.58,52.63,33.63,83.7,29.09,31.07-4.54,57.87-24.09,71.86-51.83-23.09,7.1-49.48,12.92-76.96,16.94-27.48,4.02-54.48,5.98-78.6,5.81Z"/>
        <path class="cls-21" d="m709.13,95.72c2.12,14.52-23.45,31.33-64.02,44.94-24.02,8.05-53.31,14.99-85.23,19.65-31.92,4.67-61.97,6.41-87.29,5.57-42.77-1.42-72.08-10.21-74.2-24.73-1.93-13.19,18.97-28.26,53.21-41.11-.18,4.2-.09,8.46.28,12.74-9.63,4.14-14.93,8.1-14.44,11.43.5,3.4,6.93,5.7,17.71,6.89,20.83,2.3,57.89.47,99.64-5.64,41.76-6.11,77.79-14.96,97.09-23.13,9.98-4.23,15.49-8.28,14.99-11.67-.49-3.33-6.69-5.61-17.1-6.82-.88-4.21-2.01-8.31-3.38-12.29,36.48,2.51,60.82,10.97,62.75,24.15Z"/>
        <path class="cls-16" d="m451.73,111.05c.04.58.09,1.16.14,1.74-9.64,4.14-14.93,8.09-14.44,11.42.5,3.4,6.94,5.71,17.71,6.9,13.81,1.53,34.78,1.24,59.52-.92-.92,1.84-1.46,3.67-1.59,5.46-9.52.72-18.66,1.14-27.26,1.26-37.36.53-55.2-4.83-55.96-10.04-.45-3.04,5.09-8.78,21.88-15.82Z"/>
        <path class="cls-12" d="m450.54,105.64l.52,1.27c-8.56,3.38-15.37,6.65-20.66,9.73,4.33-3.59,11.03-7.24,20.15-11Z"/>
        <path class="cls-12" d="m451.58,108.16l-.52-1.26c.15-.07.31-.13.48-.19l.05,1.44Z"/>
        <path class="cls-16" d="m430.4,116.64c-4.53,3.73-6.47,7.39-5.94,11.04.52,3.55,3.39,6.29,7.85,8.4,11.63,5.49,34.07,6.6,53.59,6.31,8.84-.12,18.25-.57,28.03-1.31,1.07,2.63,3.1,5.04,6.01,7.23-14.49,1.17-28.37,1.7-41.18,1.55-45.69-.51-63.12-9.04-64.17-16.19-.58-3.97,3.69-10,15.81-17.04Z"/>
        <path class="cls-16" d="m557.91,160.59c-31.19,4.46-60.52,6.11-85.33,5.29-42.77-1.42-72.08-10.21-74.2-24.73-1.93-13.18,18.98-28.25,53.21-41.1-.05,1.25-.08,2.5-.08,3.76l-.99-2.56c-19.95,7.72-43.32,19.75-41.34,33.22.76,5.21,5.02,9.15,11.3,12.11,14.79,6.97,40.75,8.56,58.2,8.75,15.32.18,32.12-.6,49.63-2.26,7.52,3.27,17.56,5.8,29.59,7.52Z"/>
        <g>
          <path class="cls-15" d="m513.93,141.08c-9.79.74-19.2,1.18-28.03,1.31-19.52.28-41.96-.83-53.59-6.31-4.46-2.1-7.32-4.85-7.85-8.4-.53-3.65,1.42-7.31,5.94-11.04,5.29-3.08,12.1-6.35,20.66-9.73l.52,1.26c.04.97.09,1.93.15,2.89-16.79,7.05-22.32,12.78-21.88,15.82.76,5.21,18.6,10.58,55.96,10.04,8.59-.12,17.74-.54,27.26-1.26-.07.89-.04,1.77.08,2.64.14.95.4,1.88.77,2.78Z"/>
          <path class="cls-14" d="m451.06,106.9c-8.56,3.38-15.37,6.65-20.66,9.73,4.33-3.59,11.03-7.24,20.15-11l.52,1.27Z"/>
          <path class="cls-14" d="m451.58,108.16l1.04,2.52c-.3.12-.6.24-.89.37-.06-.97-.11-1.93-.15-2.89Z"/>
          <path class="cls-14" d="m625.63,121.96c-20.33,5.75-44.28,10.73-69.27,14.38-14.53,2.12-28.85,3.72-42.44,4.74-.37-.9-.63-1.83-.77-2.78-.13-.87-.15-1.75-.08-2.64,13.59-.99,27.95-2.59,42.51-4.72,24.75-3.62,48.46-8.55,68.56-14.24,35.95-10.19,51.5-20.44,50.75-25.64-.46-3.11-7.64-7.1-26.45-8.99l.41-4.09.14-1.36c9.86.99,17.34,2.57,22.52,4.78,5.35,2.28,8.25,5.23,8.79,8.86,1.88,12.85-28.69,24.33-54.66,31.7Z"/>
        </g>
        <g>
          <path class="cls-15" d="m528.32,153.07c-17.51,1.66-34.31,2.44-49.63,2.26-17.45-.2-43.41-1.78-58.2-8.75-6.28-2.97-10.54-6.9-11.3-12.11-1.98-13.47,21.39-25.5,41.34-33.22l.99,2.56c0,.98,0,1.95.02,2.92-.16.06-.33.12-.48.19l-.52-1.27c-9.12,3.76-15.82,7.41-20.15,11-12.12,7.04-16.39,13.07-15.81,17.04,1.05,7.15,18.47,15.68,64.17,16.19,12.82.14,26.69-.38,41.18-1.55,2.27,1.72,5.08,3.31,8.39,4.76Z"/>
          <path class="cls-16" d="m450.54,105.64l.52,1.27c-8.56,3.38-15.37,6.65-20.66,9.73,4.33-3.59,11.03-7.24,20.15-11Z"/>
          <path class="cls-14" d="m451.51,103.8l.98,2.54c-.32.13-.65.25-.96.38-.03-.97-.03-1.94-.02-2.92Z"/>
          <path class="cls-14" d="m636.24,132.3c-22.81,7.11-49.77,13.04-77.95,17.16-10.12,1.49-20.15,2.69-29.97,3.62-3.31-1.44-6.12-3.03-8.39-4.76,12.19-.98,24.81-2.41,37.57-4.27,27.9-4.07,54.56-9.94,77.11-16.96,43.63-13.57,57.89-26.74,56.85-33.88-.58-3.96-6.38-8.52-19.96-11.8-5.97-1.44-13.45-2.63-22.66-3.42-.51-.04-1.02-.08-1.54-.13l.43-5.45c21.32,1.68,47.16,6.53,49.13,19.99,2.56,17.5-36.88,32.51-60.63,39.9Z"/>
        </g>
        <path class="cls-8" d="m483.55,170.28c-3.77-.02-7.47-.08-11.1-.2-27.8-.92-74.93-5.83-78.22-28.32-2.98-20.35,33.74-37.34,55.89-45.65l5.94-2.23-.27,6.34c-.17,4.05-.08,8.16.26,12.21l.26,3.02-2.78,1.2c-8.21,3.53-10.84,5.94-11.64,6.92,1.07.72,4.39,2.34,13.71,3.37,21.12,2.34,58.89.18,98.57-5.62,39.68-5.8,76.49-14.55,96.06-22.84,8.62-3.65,11.35-6.15,12.17-7.15-1.05-.71-4.26-2.27-13.13-3.3l-3.01-.35-.62-2.97c-.83-3.98-1.92-7.94-3.24-11.77l-2.07-6,6.33.44c23.6,1.63,63.64,7.39,66.62,27.74,3.29,22.49-40.47,40.69-66.84,49.53-25.11,8.42-54.84,15.28-85.95,19.83-26.85,3.93-53.21,5.91-76.94,5.82Zm-36.22-64.08c-34.56,13.82-45.9,26.69-44.78,34.34,1.27,8.72,20.42,19.49,70.19,21.14,25.99.86,55.91-1.05,86.54-5.53,30.63-4.48,59.85-11.21,84.5-19.48,47.21-15.83,62.47-31.63,61.2-40.35h0c-1.12-7.66-15.67-16.73-52.74-20.08.35,1.27.68,2.55.99,3.83,11.52,1.69,17.04,4.82,17.8,10,.83,5.69-4.57,10.67-17.51,16.15-20.49,8.67-57.17,17.43-98.12,23.42-40.95,5.99-78.6,8.1-100.71,5.66-13.97-1.55-20.57-4.78-21.4-10.46-.76-5.18,3.64-9.76,14.2-14.68-.07-1.32-.12-2.63-.15-3.95Z"/>
        <g class="cls-23">
          <path class="cls-13" d="m651.8,102.68c-2.25.95-4.71,1.91-7.4,2.87-.17-2.79-.46-5.6-.87-8.41-.07-.44-.14-.87-.2-1.31-.25-1.6-.54-3.18-.87-4.74-.88-4.21-2.01-8.32-3.38-12.29-.16-.48-.34-.95-.51-1.43-2.14-5.9-4.8-11.51-7.93-16.79-5.85-9.87-13.31-18.58-21.98-25.82-21.12-17.64-49.37-26.56-78.75-22.26-19.61,2.87-37.05,11.23-51,23.31,14.93-15.78,35.07-26.84,58.24-30.22,29.37-4.29,57.63,4.62,78.74,22.26,8.67,7.24,16.14,15.95,21.99,25.83,3.13,5.27,5.79,10.89,7.93,16.78.18.48.34.95.51,1.43,1.37,3.98,2.51,8.07,3.38,12.29.33,1.57.62,3.15.87,4.74.07.44.14.87.2,1.31.61,4.18.96,8.33,1.04,12.45Z"/>
        </g>
        <path class="cls-8" d="m474.9,136.28c-7.65-.03-14.46-.36-20.22-.99l-2.83-.31-.76-2.74c-1.15-4.15-2.05-8.43-2.67-12.74-.31-2.1-.55-4.24-.73-6.35-.38-4.4-.47-8.87-.29-13.28,2.12-49.98,39.63-91.51,89.2-98.76,49.58-7.25,97.41,21.81,113.74,69.09,1.44,4.17,2.63,8.48,3.53,12.81.43,2.05.81,4.17,1.12,6.29h0c.63,4.31.99,8.67,1.08,12.97l.06,2.85-2.62,1.11c-20.49,8.67-57.17,17.43-98.12,23.41-30.28,4.43-58.77,6.74-80.49,6.65Zm-16.43-9.06c21.57,1.87,57.76-.35,95.71-5.9,37.94-5.55,73.26-13.79,93.39-21.75-.15-3.02-.45-6.06-.89-9.07-.29-1.95-.63-3.9-1.03-5.79-.83-3.99-1.92-7.95-3.24-11.78-15.02-43.47-59.02-70.18-104.59-63.52-45.58,6.66-80.08,44.85-82.03,90.8-.17,4.05-.08,8.16.26,12.21.16,1.95.39,3.92.67,5.85.44,3.01,1.02,6.01,1.74,8.94Z"/>
      </g>
      <g>
        <g>
          <path class="cls-17" d="m1022.37,337.96c-6.16,9.29-13.41,17.74-21.57,25.17-8.15,7.45-17.2,13.89-26.93,19.16-5.67,3.08-11.58,5.75-17.68,7.99-2.74,1.01-5.53,1.94-8.34,2.77-17.11,5.07-35.51,6.8-54.35,4.54-17.95-2.14-34.65-7.71-49.54-15.96-4.75-2.63-9.3-5.54-13.66-8.69-38.46-27.86-61.09-75.18-55.05-125.67,4.93-41.19,27.89-75.85,60.04-96.98,6.01-3.96,13.72,1.65,11.75,8.56-.66,2.34-1.27,4.7-1.81,7.1-1.03,4.58-1.85,9.27-2.42,14.02-1.2,10.08-1.27,20.01-.29,29.7.18,1.73.39,3.44.62,5.16.59,4.19,1.36,8.32,2.33,12.38.69,2.95,1.49,5.85,2.38,8.73.43,1.39.88,2.78,1.36,4.15,1.19,3.45,2.52,6.84,3.98,10.16.79,1.82,1.63,3.61,2.51,5.39.62,1.25,1.24,2.49,1.9,3.72.77,1.44,1.56,2.87,2.37,4.27,1.74,3.02,3.6,5.97,5.56,8.84.27.39.54.78.81,1.16,1.63,2.32,3.32,4.58,5.09,6.79h0c.41.52.82,1.03,1.24,1.54,1.78,2.17,3.63,4.28,5.54,6.33,1.03,1.11,2.08,2.21,3.16,3.28.23.23.45.46.68.68.16.16.32.32.48.48.34.34.7.68,1.05,1.02,1.87,1.79,3.79,3.53,5.76,5.21.59.51,1.19,1.01,1.79,1.5.65.53,1.3,1.06,1.96,1.59,1.73,1.37,3.5,2.71,5.3,4,2.8,2.02,5.69,3.91,8.65,5.71,3.04,1.84,6.15,3.57,9.34,5.16,4.23,2.13,8.6,4.04,13.09,5.73,4.21,1.58,8.53,2.96,12.96,4.12.9.24,1.81.48,2.72.69,1.96.47,3.94.91,5.94,1.3,3.28.64,6.61,1.17,9.98,1.58.22.03.44.06.66.07,2.66.31,5.32.53,7.96.68,5.34.3,10.64.28,15.87-.04,1.56-.09,3.11-.22,4.66-.37,8.06-.78,15.96-2.27,23.59-4.43,6.89-1.94,12.52,5.76,8.57,11.73Z"/>
          <path class="cls-19" d="m835.28,150.28c-32.15,21.15-55.11,55.8-60.03,96.99-8.86,74.16,44.08,141.47,118.24,150.33,18.84,2.25,37.24.51,54.35-4.55,14.57-4.3,28.22-11.03,40.4-19.75-5.78,2.65-11.76,4.89-17.91,6.71-17.11,5.06-35.51,6.81-54.35,4.55-44.24-5.28-80.93-31.37-101.45-67.31,2.17.02,4.31-.43,6.32-1.4,9.51-4.63,12.53-19.31,6.76-32.79-5.77-13.48-18.17-20.65-27.68-16.02-.7.34-1.36.73-1.98,1.17-1.47-11.03-1.59-22.42-.21-33.98,4.07-34.08,20.49-63.68,44.24-84.86-2.09-.7-4.51-.53-6.7.91Z"/>
          <ellipse class="cls-19" cx="948.26" cy="357.07" rx="13" ry="15.24" transform="translate(304.63 1139.66) rotate(-71.2)"/>
          <ellipse class="cls-17" cx="949.72" cy="362.4" rx="9.24" ry="11.45" transform="translate(551.85 1297.81) rotate(-87.84)"/>
          <path class="cls-17" d="m888.87,367.79c-.42,1.19-.99,2.34-1.73,3.41-5.2,7.6-16.39,8.79-24.99,2.65-6.46-4.61-9.62-12.05-8.59-18.68l35.31,12.62Z"/>
          <path class="cls-8" d="m889.84,368.14c-1.72,10.56-15.16,15.01-24.27,10.73-9.1-3.58-15.87-14.21-12.84-23.81.27-.89,1.66-.67,1.64.26.03,16.63,23.86,28.1,33.52,12.15.53-1.02,2.17-.42,1.95.69h0Z"/>
          <path class="cls-17" d="m816.99,260.41c-4.27-2.19-8.84-3.03-13.31-2.16-8.1,1.58-13.56,8.32-16.03,17.56-1.63,6.06-1.77,13.15-.09,20.45,4.26,18.43,18.58,31.25,32,28.62,4.99-.98,9.15-3.95,12.19-8.26,5.13-7.26,6.6-18.18,3.93-29.75l-18.69-26.46Z"/>
          <path class="cls-8" d="m803.68,258.25c-8.74,2.87-12.99,11.4-14.35,19.84-2.34,16.22,4.45,35.46,19.43,43.38,7.79,4.05,17.15,1.86,22.98-4.84-2.07,4.03-5.68,7.5-10.26,9.19-9.47,3.49-19.94-1.47-26.27-8.59-9.52-10.66-13.62-26.13-10.13-40.03,2.1-8.87,8.84-18.45,18.59-18.93h0Z"/>
          <path class="cls-8" d="m943.12,370.76c-17.82-4.55-17.18-28.38,1.83-30.23,7.41-.6,14.95,2.98,18.72,9.4,4.04,6.12,2.25,15.66-4.43,18.96-.85.47-1.67-.74-.96-1.36,4.5-3.94,5.01-10.51,1.52-15.13-4.63-6.55-15.26-8.78-21.47-3.44-6.98,6.03-1.86,16.46,5.5,19.84,1.09.51.43,2.24-.71,1.94h0Z"/>
          <path class="cls-8" d="m970.3,356.01c2.44,6.54,0,14.48-5.38,18.97-10.95,9.45-29,5.98-37.05-5.48-4.04-5.46-5.41-13.31-2.22-19.42.43-.87,1.81-.34,1.56.59-1.35,5.79.48,11.66,4.29,16.01,10.98,13.47,38.21,10.21,36.79-10.23-.15-1.18,1.66-1.56,2.02-.45h0Z"/>
          <path class="cls-19" d="m859.86,357.35c-.65,3.9,1.4,8.29,5.56,11.02,5.54,3.63,12.72,2.96,16.04-1.51.47-.63.84-1.3,1.1-2.01,3.15-7.75-2.36-13.66-7.93-15.76-6.29-2.37-13-.26-14.78,8.26Z"/>
          <path class="cls-17" d="m860.33,358.01c-.65,3.9,1.4,8.29,5.56,11.02,5.54,3.63,12.72,2.96,16.04-1.51.47-.63.84-1.3,1.1-2.01-.73-3.05-2.79-6-5.96-8.08-5.62-3.69-12.79-3.35-16.74.58Z"/>
          <path class="cls-8" d="m878.39,349.79c12.95,6.99,7.61,26.02-7.55,23.61-6.02-1.07-11.04-5.67-12.48-11.48-1.67-5.61,1.62-12.66,7.5-13.84.91-.23,1.42,1.11.61,1.55-3.94,2.28-5.3,6.93-3.71,10.97,2.49,7.47,14.77,10.97,17.94,2.49,1.28-3.61-.18-8.32-3.5-11.61-.87-.79.19-2.24,1.2-1.68h0Z"/>
          <ellipse class="cls-19" cx="811.75" cy="291.48" rx="18.91" ry="26.02" transform="translate(-50.71 298.84) rotate(-20.24)"/>
          <ellipse class="cls-17" cx="808.14" cy="295.53" rx="13.91" ry="22.06" transform="translate(-49.3 367.78) rotate(-24.9)"/>
          <path class="cls-8" d="m808.06,314.35c15.5,6.24,22.97-11.27,19.94-24.15-1.67-11.53-13.48-27.33-26.12-19.85-7.41,5.16-8.98,15.93-7.71,24.59.19.99-1.36,1.34-1.62.37-5.36-15.36,3.59-37.33,22.82-30.76,19.37,7.5,26.55,41.63,7.12,52.68-2.5,1.17-5.29,1.72-7.98,1.48-1.61-.06-8.93-1.84-7.73-3.95.27-.44.82-.61,1.28-.41h0Z"/>
          <g class="cls-24">
            <path class="cls-13" d="m882.12,292.82c38.47,59.97,122,41.57,129.34,45.77,7.86,4.5-12.14,23.91-12.14,23.91l1.06.74c8.15-7.44,15.41-15.89,21.57-25.18,3.96-5.97-1.68-13.67-8.57-11.73-16.65,4.7-34.49,6.26-52.74,4.08-30.8-3.68-57.95-17.44-78.52-37.59Z"/>
          </g>
          <path class="cls-8" d="m909.12,402.3c-.07,0-.16,0-.25,0-.24,0-.48,0-.73,0l-.15-3.72-.13,3.72-3.97-.11c-.56-.02-1.11-.05-1.67-.08h-.11s-.15-.01-.15-.01l-.02.02-4.79-.38c-.2-.01-.46-.04-.71-.07-.18-.01-.35-.03-.53-.05l-.86-.09c-.07,0-.23-.02-.41-.04l-2.85-.33-.07.07-5.6-.92c-.42-.07-.9-.15-1.39-.24l-3.11-.6-1.52-.32c-.51-.11-1.01-.22-1.52-.34l-1.48-.35c-65.6-15.74-110.29-76.02-106.29-143.33.08-1.34.18-2.66.29-3.99.12-1.33.26-2.67.41-4.01.12-1.04.25-2.08.4-3.11.15-1.04.3-2.06.47-3.09.16-1,.34-1.99.52-2.97l.6-3.08c.11-.53.22-1.04.33-1.56.11-.51.22-1.01.34-1.51l.72-2.96c.13-.51.26-1,.39-1.5l.88-3.15c.13-.45.28-.95.43-1.44.7-2.33,1.49-4.67,2.32-6.96l.37-1.02c.23-.62.46-1.22.69-1.81.11-.29.24-.62.37-.94.78-1.98,1.63-3.99,2.52-5.94l.71-1.55c.17-.38.39-.84.61-1.3.82-1.73,1.72-3.51,2.67-5.28.22-.43.46-.87.71-1.31,1.85-3.39,3.9-6.78,6.07-10.06.52-.78,1.05-1.56,1.58-2.33,1.13-1.62,2.28-3.21,3.46-4.77.24-.32.5-.67.77-1.01,1.2-1.55,2.49-3.15,3.83-4.74.57-.68,1.15-1.34,1.73-2,.82-.94,1.67-1.88,2.53-2.8.43-.47.87-.93,1.31-1.39h0c2.9-3.05,5.99-6.01,9.18-8.8,1.1-.96,2.2-1.89,3.33-2.81.64-.52,1.29-1.04,1.93-1.56.69-.55,1.4-1.09,2.1-1.64,1.28-.98,2.58-1.93,3.89-2.86.88-.62,1.76-1.23,2.65-1.82l1.33-.88c.33-.22.68-.43,1.04-.61.05-.03.14-.08.24-.12.07-.04.15-.07.22-.11l.21-.13.67-.23c.14-.05.27-.09.41-.14l.34-.11c2.22-.65,4.5-.6,6.66.1l.46.15c.46.17.9.37,1.33.59,4.65,2.44,7.05,7.5,5.96,12.6-.05.25-.12.5-.19.76-.19.66-.36,1.3-.53,1.93-.12.43-.22.82-.32,1.21-.18.71-.36,1.4-.52,2.1-.12.47-.21.89-.31,1.32-.57,2.47-1.07,4.98-1.49,7.47-.08.44-.15.86-.21,1.27-.08.46-.14.89-.2,1.32-.16,1.09-.31,2.18-.45,3.28l-.23,1.98c-.06.56-.11.99-.15,1.42l-.21,2.37c-.06.72-.1,1.28-.13,1.84-.04.65-.08,1.28-.11,1.9-.05.86-.07,1.7-.1,2.54l-.05,2.18c-.3,19.6,3.7,38.6,11.88,56.46,13.33,29.09,36.64,52.33,65.62,65.42,6.78,3.07,13.88,5.56,21.09,7.42l1.92.48c.5.13.96.23,1.42.34l.87.19c.79.18,1.57.34,2.36.5,1.02.21,2.04.41,3.05.59l1.81.31c.63.11,1.25.2,1.88.3l.23.03c.6.09,1.19.17,1.79.25l1.82.23c3.28.4,6.64.68,9.97.83l1.64.06c.57.02,1.12.03,1.66.04.56.02,1.1.02,1.64.03,10.16.02,20.38-1.04,30.3-3.31l2.78-.67c.65-.16,1.28-.32,1.92-.5l1.4-.39c1.75-.49,3.38-.6,4.96-.37.28.04.56.1.84.16.41.08.9.23,1.39.41l.83.35c.63.29,1.23.64,1.79,1.04,1.34.96,2.49,2.22,3.33,3.64,1.14,1.95,1.68,4.14,1.58,6.33-.08,1.7-.54,3.33-1.37,4.85-.05.1-.15.29-.26.46-.11.18-.2.33-.3.48-.69,1.05-1.42,2.11-2.16,3.16-.37.52-.74,1.04-1.11,1.56-1.13,1.56-2.29,3.09-3.48,4.6-.8,1.01-1.6,2-2.43,2.98-3.64,4.35-7.57,8.51-11.68,12.35l-1.28,1.18c-.57.52-1.02.92-1.47,1.32l-1.32,1.17c-1.05.91-2.09,1.78-3.15,2.65-1.98,1.61-4.03,3.2-6.11,4.71l-3.1,2.19c-.28.19-.46.32-.64.43l-.63.44c-.2.14-.39.26-.57.38-.22.15-.45.3-.67.45l-.59.38c-.08.06-.22.15-.38.25-.08.06-.17.11-.25.16-.41.26-.84.54-1.28.81l-1.83,1.12c-.48.29-1.02.62-1.57.94l-1.09.63c-.21.12-.46.27-.73.42l-.29.17c-.12.07-.22.12-.32.18h0s-6.67,3.5-6.67,3.5c-.45.22-.9.44-1.34.65l-1.38.65c-.07.04-.23.11-.39.18l-1.89.85c-.39.17-.8.35-1.21.53-.09.04-.3.13-.52.22-.34.15-.79.34-1.25.53l-1.6.65c-.2.08-.49.2-.78.31l-.27.11c-.53.21-1.03.4-1.53.59-.13.05-.33.12-.52.19l-1.47.54c-.06.02-.15.06-.26.09-.15.06-.29.11-.44.15-.28.1-.64.23-1.01.36l-.54.19-1.14.38c-.14.05-.36.12-.59.19-.39.13-.88.29-1.37.44-.24.08-.56.18-.88.27l-4.64,1.33c-1.06.29-2.14.56-3.23.83-1.34.32-2.67.63-4.02.91-.39.09-.82.18-1.26.26l-1.11.22c-.23.05-.51.1-.8.15l-1.41.26c-.49.09-.99.17-1.49.26-.05.01-.17.03-.31.05-.38.06-.77.13-1.15.18-.4.06-.85.13-1.31.2l-.93.13s-.22.03-.4.05c0,0-.18.03-.36.05l-.92.12c-.59.08-1.19.15-1.79.21-.88.1-1.77.19-2.66.27l-2.24.21-.03-.02-1.71.13-.02-.02c-.19.01-.36.02-.54.03l-.58.04c-.31.02-.56.03-.82.04-.12,0-.24.01-.36.01l-2.04.09c-.29.01-.61.02-.93.02h-.59c-.08.02-.32.02-.58.02-.08,0-.28,0-.47,0h-.25c-.12,0-.25.01-.38,0-.04,0-.23,0-.42,0-.1,0-.37,0-.63,0h-.63s-.07,0-.13,0Zm-6.76-7.65h.17c.56.05,1.12.07,1.68.09l3.68.1.24,3.72.07-3.72c.28,0,.48,0,.68,0h.11s.11,0,.11,0h.08s.12,0,.12,0h.43s.29,0,.29,0h.92s.03,0,.03,0h.1s.24,0,.24,0l4.75-.15h.06s6.18-.57,6.18-.57l.15.11c.64-.06,1.27-.13,1.89-.2.56-.06,1.12-.13,1.68-.2l2.48-.34c.43-.06.83-.12,1.23-.18.41-.06.78-.12,1.14-.18l4.64-.85c.44-.08.87-.17,1.3-.27,1.32-.27,2.57-.56,3.83-.87,1.01-.25,2.02-.5,3.02-.78l4.48-1.29c.29-.08.52-.16.75-.23.52-.16.96-.3,1.4-.45l1.92-.64c.39-.13.77-.26,1.16-.4l2.46-.9c.53-.2.98-.37,1.44-.55l.22-.09c.35-.14.58-.22.8-.32l1.5-.61c.46-.19.88-.36,1.29-.54l.36-.15c.49-.21.85-.37,1.21-.53l3.26-1.5,1.8,3.26-1.6-3.36c.41-.19.81-.38,1.21-.58l7.06-3.73c.2-.1.38-.22.57-.33l.59-.34c.18-.11.32-.19.45-.26.51-.3,1.01-.6,1.5-.9l.53-.32,2.11,3.07-1.95-3.17,1.14-.71c.38-.24.76-.48,1.13-.72l1.16-.75c.18-.12.37-.24.55-.36l4.73-3.28c1.98-1.44,3.92-2.93,5.8-4.47,1.01-.82,2-1.65,2.97-2.49l1.27-1.12c.44-.39.86-.77,1.28-1.15l1.32-1.22c3.88-3.63,7.6-7.57,11.05-11.69.78-.93,1.54-1.87,2.29-2.82,1.12-1.42,2.22-2.87,3.29-4.35.35-.49.7-.98,1.05-1.48.7-.99,1.38-1.99,2.06-3.01l.14-.21c.37-.68.53-1.24.56-1.81.04-.75-.16-1.52-.56-2.22-.3-.52-.73-.98-1.22-1.34-.27-.19-.57-.35-.89-.47l-.12-.04c-.11-.04-.21-.07-.32-.09l-.31-.06c-.54-.08-1.11-.04-1.7.13l-1.59.44c-.69.19-1.39.37-2.09.54l-2.91.7c-10.49,2.41-21.24,3.6-32.04,3.5-.59,0-1.18-.01-1.76-.03-.56-.01-1.15-.02-1.73-.05l-1.73-.07c-3.52-.16-7.06-.45-10.53-.87-.64-.08-1.27-.16-1.91-.24-.67-.09-1.34-.19-2.01-.28l-.23-.03c-.64-.1-1.28-.2-1.91-.3l-1.8-.31c-1.19-.22-2.26-.42-3.32-.64-.83-.17-1.67-.34-2.51-.53l-.91-.2c-.5-.12-1.01-.23-1.51-.36l-2.03-.51c-7.6-1.96-15.11-4.6-22.28-7.84-30.62-13.83-55.24-38.37-69.32-69.1-8.65-18.88-12.88-38.96-12.56-59.68l.05-2.31c.03-.89.06-1.78.11-2.67.03-.65.07-1.33.12-2.01.04-.6.08-1.21.13-1.83,0-.04.02-.23.04-.43.03-.36.06-.81.11-1.26l.09-.93c.04-.42.09-.9.14-1.37l.26-2.28c.14-1.11.3-2.25.46-3.39.07-.47.14-.95.22-1.43.07-.43.14-.89.22-1.35.44-2.6.97-5.26,1.57-7.87.11-.47.22-.93.33-1.4.16-.7.35-1.45.54-2.2.11-.43.22-.86.34-1.29.17-.65.36-1.34.56-2.03.02-.08.05-.19.07-.3.48-2.22-.85-3.79-2.13-4.46-.15-.08-.29-.15-.45-.2l-.19-.06c-.51-.17-1.31-.31-2.21-.05l-.84.33c-.09.06-.2.12-.31.19l-1.28.86c-.84.57-1.68,1.14-2.51,1.73-1.23.88-2.47,1.78-3.68,2.7-.67.51-1.33,1.02-1.99,1.54-.62.49-1.24.99-1.85,1.49-1.06.87-2.11,1.76-3.15,2.66-3.01,2.64-5.94,5.44-8.68,8.33h0c-.42.44-.83.88-1.24,1.32-.81.87-1.6,1.75-2.39,2.65-.56.63-1.1,1.26-1.64,1.89-1.27,1.5-2.49,3.02-3.64,4.5-.25.31-.47.61-.7.92-1.14,1.51-2.23,3.01-3.3,4.54-.5.73-1,1.46-1.49,2.2-2.06,3.1-3.99,6.31-5.75,9.53-.23.41-.45.81-.66,1.21-.9,1.69-1.75,3.37-2.54,5.02-.21.43-.4.84-.59,1.25l-.66,1.44c-.83,1.85-1.64,3.75-2.39,5.65l-.34.87c-.23.58-.44,1.13-.64,1.68l-.36.99c-.79,2.17-1.53,4.39-2.2,6.6-.14.46-.28.91-.4,1.36l-.84,3.01c-.12.46-.24.93-.36,1.39l-.69,2.83c-.11.46-.21.93-.31,1.4l-.89,4.39c-.17.93-.33,1.88-.49,2.82-.16.96-.3,1.94-.44,2.92-.13.96-.26,1.95-.38,2.93-.15,1.27-.28,2.54-.39,3.8-.11,1.27-.2,2.53-.28,3.79-3.79,63.7,38.51,120.74,100.58,135.64l7.18,1.51c.47.09.94.17,1.41.25l1.77.29.09-.09,7.9,1.09c.19.02.38.04.58.05l4.55.33h.05Zm8.45.22s0,0,0,0h0Zm43.04-7.68s-.05.02-.08.03l.08-.03Zm.23-.07c-.06.02-.12.03-.18.05l.18-.05Zm-142.54-217.02h.02s-.02,0-.02,0Z"/>
        </g>
        <path class="cls-17" d="m826.46,218.28c1.62-3.33,2.78-7.33,3.29-11.72,1.52-13.19-3.47-24.95-11.15-26.28-7.68-1.32-15.15,8.3-16.67,21.48-1.52,13.19,3.47,24.95,11.15,26.28l13.38-9.76Z"/>
        <path class="cls-8" d="m816.57,181.21c-7.58,2.71-10.76,11.88-12.29,19.21-.24.99-.22,2.36-.17,3.35.28,6.71,1.05,13.46,4.51,19.16,1.13,1.8,2.59,3.32,4.65,4.3.79.34.52,1.61-.32,1.62-5.74.19-10.02-5.16-11.94-10-5.34-12.27.96-36.28,15.07-39.65,1.26-.23,1.72,1.63.49,2h0Z"/>
        <path class="cls-19" d="m808.36,199.04c-.91,3.87-.92,7.85-.19,11.26.85,4,2.71,7.23,5.31,8.61,4.8,2.56,10.3-2.19,12.28-10.6,1.89-8.03-.11-16.5-4.47-19.48-.21-.14-.42-.27-.64-.39-4.8-2.56-10.3,2.19-12.28,10.6Z"/>
        <ellipse class="cls-17" cx="816.18" cy="210.51" rx="7.02" ry="12.61" transform="translate(-19.86 103.24) rotate(-7.15)"/>
        <path class="cls-8" d="m822.77,213.2c1.86-6.53,2.06-16.18-3.3-20.82-1.4-.92-2.69-.76-4.32.55-3.43,3.04-4.88,8.57-5.18,13.22-.12,4.61.53,10.94,5.22,12.99.94.25.67,1.72-.28,1.64-11.13-2.03-11.4-20.25-6.54-28.1,2.54-5.05,9.13-8.65,14.27-4.75,5.32,4.26,6.13,11.58,5.16,17.83-.26,1.65-2.36,9.94-4.62,8.63-.4-.27-.55-.76-.41-1.19h0Z"/>
      </g>
    </g>
  </g>
</svg>