<?xml version="1.0" encoding="UTF-8"?>
<svg id="Calque_2" data-name="Calque 2" xmlns="http://www.w3.org/2000/svg" viewBox="0 0 944.93 1067.47">
  <defs>
    <style>
      .cls-1, .cls-2 {
        opacity: .25;
      }

      .cls-1, .cls-3, .cls-4, .cls-5, .cls-6, .cls-7 {
        stroke-width: 0px;
      }

      .cls-1, .cls-4 {
        fill: #371a45;
      }

      .cls-8 {
        opacity: .2;
      }

      .cls-9 {
        opacity: .35;
      }

      .cls-10 {
        opacity: .5;
      }

      .cls-5 {
        fill: #111a28;
      }

      .cls-6 {
        fill: #fff;
      }

      .cls-7 {
        fill: #0af;
      }
    </style>
  </defs>
  <g id="Layer_1" data-name="Layer 1">
    <g>
      <ellipse class="cls-1" cx="472.47" cy="1031.49" rx="227.78" ry="35.98"/>
      <g>
        <g>
          <path class="cls-6" d="m673.38,773.11h-409.63l7.01-319.52c0-26.95,21.85-48.79,48.79-48.79h312.04c26.95,0,48.79,21.85,48.79,48.79l-7.01,319.52Z"/>
          <g class="cls-8">
            <path class="cls-3" d="m673.38,773.11h-409.63l7.01-319.52c0-26.95,21.85-48.79,48.79-48.79h312.04c26.95,0,48.79,21.85,48.79,48.79l-7.01,319.52Z"/>
          </g>
          <path class="cls-4" d="m673.38,780.12h-409.63c-1.89,0-3.69-.76-5.01-2.11-1.32-1.35-2.04-3.17-2-5.06l7.01-319.52c0-30.62,25.03-55.65,55.8-55.65h312.04c30.77,0,55.8,25.03,55.8,55.8l-7.01,319.67c-.08,3.81-3.2,6.86-7.01,6.86Zm-402.46-14.02h395.6l6.86-312.66c0-22.88-18.75-41.63-41.78-41.63h-312.04c-23.04,0-41.78,18.74-41.78,41.78l-6.86,312.51Z"/>
        </g>
        <g class="cls-8">
          <path class="cls-3" d="m644.89,655.88l-2.59-26.8c-.93-9.58-8.97-16.88-18.59-16.88h-23.35v-11.69c0-19.04-15.43-34.48-34.47-34.48h-191.64c-19.04,0-34.47,15.44-34.47,34.48v11.69h-21.02c-9.62,0-17.67,7.31-18.59,16.88l-2.59,26.8c-.55,5.71,3.94,10.66,9.68,10.66h32.53v30.39c0,19.04,15.43,34.48,34.47,34.48h191.64c19.04,0,34.47-15.44,34.47-34.48v-30.39h34.86c5.74,0,10.23-4.95,9.68-10.66Z"/>
        </g>
        <path class="cls-4" d="m304.08,529.85l3.31,116.69c.14,4.85-3.68,8.9-8.54,9.03-5.32.2-9.66-4.58-8.97-9.85,0,0,14.2-115.87,14.2-115.87h0Z"/>
        <path class="cls-4" d="m623.81,519.33c17.29,39.03,27.27,81.33,31.06,123.99.44,4.83-3.12,9.11-7.95,9.55-4.83.44-9.11-3.12-9.55-7.95.82-21.16.67-42.43-1.64-63.66-2.17-20.81-6.13-41.56-11.92-61.93h0Z"/>
        <g>
          <path class="cls-6" d="m379.16,418.89c-71.36,13.25-125.43,49.71-156.61,116.9-28.13,38.33-56.26,76.67-84.39,115,12.33,6.9,37.28,18.63,70.67,19.34,43.43.92,74.8-17.36,86.58-25.07v76.55c-98.17-10.35-136.43,96.63-42.96,156.15,19.28,12.28,41.32,19.4,64.02,22.09,21.62,2.56,41.23,7.44,58.12,15.62,12.6,6.11,26.39,9.57,40.39,9.02,17.61-.69,32.98-5.55,45.41-15.89,31.4,22.44,71.57,19.25,114.82,7.01,234.03-29.22,192.33-171.51,67.68-199.85v-73.33c6.12,5.28,42.48,35.57,95.4,30.21,49.55-5.02,78.3-37.72,84.05-44.55-37.48-35.45-74.96-70.89-112.44-106.34-27.97-59.9-77.84-92.23-135.13-115.23l-195.6,12.35Z"/>
          <g class="cls-8">
            <path class="cls-4" d="m295.41,645.06v-46.77c-11.78,7.71-43.15,25.99-86.58,25.07-17.43-.37-32.54-3.75-44.77-7.87-8.63,11.77-17.27,23.53-25.9,35.3,12.33,6.9,37.28,18.63,70.67,19.34,43.43.92,74.8-17.36,86.58-25.07Z"/>
            <path class="cls-4" d="m575.2,868.85c-43.26,12.24-83.42,15.42-114.82-7.01-12.43,10.34-27.8,15.19-45.41,15.88-13.99.55-27.78-2.92-40.39-9.02-16.89-8.18-36.5-13.06-58.12-15.62-22.7-2.69-44.74-9.81-64.02-22.09-26.99-17.19-42.98-38.33-49.73-59.47-11.33,33.18,2.06,75.88,49.73,106.23,19.28,12.28,41.32,19.4,64.02,22.09,21.62,2.56,41.23,7.44,58.12,15.62,12.6,6.11,26.39,9.57,40.39,9.02,17.61-.69,32.98-5.55,45.41-15.89,31.4,22.44,71.57,19.25,114.82,7.01,143.19-17.88,183.15-78.08,164.05-128.62-14.26,36.13-63.88,69.35-164.05,81.85Z"/>
            <path class="cls-4" d="m738.28,625.88c-52.92,5.36-89.28-24.93-95.4-30.21v46.77c6.12,5.28,42.48,35.57,95.4,30.21,49.55-5.02,78.3-37.72,84.05-44.55-8.45-7.99-16.91-15.99-25.36-23.98-14.12,9.71-33.77,19.24-58.69,21.76Z"/>
          </g>
          <path class="cls-4" d="m516.16,932.22c-21.68,0-39.75-4.96-55.51-14.99-12.34,8.76-27.58,13.56-45.4,14.26-14.53.58-29.23-2.7-43.72-9.72-15.35-7.43-33.63-12.33-55.88-14.96-24.96-2.95-47.49-10.74-66.96-23.14-46.01-29.29-66.6-74.4-52.45-114.92,12.5-35.79,48.21-56.7,92.16-54.7v-56.64c-17.6,9.58-45.35,20.44-79.71,19.74-25.69-.55-51.26-7.54-73.95-20.23-1.75-.98-3-2.67-3.43-4.63-.43-1.96,0-4.02,1.2-5.63l83.98-114.44c30.66-65.57,84.96-106.02,161.4-120.2.28-.05.56-.09.84-.1l195.6-12.35c1.04-.07,2.08.1,3.05.49,70.47,28.29,113.18,64.58,138.3,117.55l111.47,105.42c2.7,2.55,2.94,6.77.55,9.61-10.52,12.5-40.22,42.1-88.71,47.01-40.47,4.09-71.95-11.56-89.1-23.1v53.73c60.93,15.74,103,58.76,100.76,103.84-.88,17.78-9.18,43.85-43.69,67.09-30.2,20.33-74.06,34.23-130.37,41.32-22.97,6.46-42.89,9.72-60.44,9.72Zm-55.78-30.63c1.42,0,2.85.43,4.07,1.3,25.5,18.22,59.06,20.05,108.84,5.97.34-.1.69-.17,1.04-.21,99.29-12.4,159.96-48,162.31-95.25,1.97-39.61-38.12-77.79-95.32-90.8-3.19-.73-5.46-3.56-5.46-6.84v-73.33c0-2.74,1.6-5.23,4.09-6.37,2.49-1.14,5.42-.73,7.5,1.06,9.18,7.91,42.79,33.33,90.12,28.55,37.88-3.83,62.96-24.53,74.98-37.17l-107.48-101.64c-.64-.61-1.16-1.33-1.54-2.13-23.25-49.8-63.35-84.1-129.92-111.09l-193.59,12.22c-72.75,13.61-122.19,50.54-151.12,112.88-.2.42-.43.82-.71,1.2l-79.57,108.43c14.5,7.09,35.2,14.22,60.34,14.76,38.85.88,68.4-14.64,82.59-23.93,2.16-1.41,4.91-1.52,7.18-.3,2.27,1.22,3.68,3.59,3.68,6.17v76.55c0,1.99-.84,3.88-2.32,5.21-1.48,1.33-3.44,1.97-5.43,1.76-40.75-4.31-74.19,13.28-85.19,44.79-11.93,34.15,6.42,72.8,46.74,98.47,17.68,11.26,38.23,18.34,61.08,21.04,23.83,2.82,43.57,8.14,60.35,16.27,12.39,6.01,24.86,8.82,37.06,8.33,16.98-.67,30.46-5.33,41.2-14.27,1.3-1.08,2.89-1.62,4.49-1.62Zm-237.83-365.8h.02-.02Z"/>
          <path class="cls-4" d="m642.88,746.16c-11.26,5.7-23.51,8.36-35.66,10.82-11.79,2.54-23.42,5.59-34.86,9.25-23.04,7.27-45.11,16.82-67.1,26.97-2.41,1.31-5.31,1.08-7.42-.41-14.38-9.96-31.58-18.75-49.03-18.72-13.9-.2-24.38,7.95-26.62,21.19-3.65,20.1,5.39,43.13,14.22,61.21,8.3,16.73,18.5,32.7,29.64,48.02,2.28,3.13,1.59,7.51-1.54,9.78-3.13,2.28-7.51,1.59-9.79-1.54-11.47-15.78-22.07-32.33-30.88-50.06-9.91-20.46-18.47-42.77-16.05-66.14,2.32-22.03,18.78-36.58,40.82-36.47,21.39.04,40.37,9.65,57.29,21.28,0,0-7.41-.41-7.41-.41,10.58-6.83,21.76-12.78,33.34-17.89,23.1-10.35,47.9-17.22,73.03-20.26,12.72-1.65,25.92-1.48,38.01,3.38h0Z"/>
          <path class="cls-4" d="m290.33,761.35c12.53-6.74,27.99-2.71,38.88,5.59,0,0-3.24-1.86-3.24-1.86l90.79,23.3c8.86,2.55,5.61,15.61-3.49,13.58,0,0-90.79-23.3-90.79-23.3-1.28-.29-2.42-.95-3.24-1.86-5.99-10.01-16.88-16.98-28.91-15.45h0Z"/>
          <path class="cls-4" d="m507.06,787.84c-4.97,20.08-2.94,41.56,4.15,61.16-10.61-18.86-16.24-40.8-14.55-62.72.79-7.54,11.86-5.88,10.4,1.57h0Z"/>
          <path class="cls-4" d="m295.4,903.01c-3.3,0-6.24-2.34-6.88-5.7-9.07-47.48.76-89.88,30.06-129.61,2.3-3.12,6.69-3.78,9.8-1.48,3.12,2.3,3.78,6.69,1.48,9.8-26.85,36.41-35.87,75.22-27.57,118.65.73,3.8-1.77,7.48-5.57,8.2-.44.08-.89.12-1.32.12Z"/>
          <path class="cls-4" d="m637,910.78c-.05,0-.11,0-.16,0-3.87-.09-6.94-3.3-6.85-7.17,1.53-66.93-13.98-114.31-47.43-144.84-2.86-2.61-3.06-7.04-.45-9.9,2.61-2.86,7.05-3.06,9.91-.45,36.62,33.42,53.63,84.29,52,155.51-.09,3.82-3.21,6.85-7.01,6.85Z"/>
          <g class="cls-2">
            <path class="cls-4" d="m316.54,765.49c97.07-2.84,209.31-6.17,295.65-16.58-47.76,3.78-84.9,14.61-106.23,35.94-40.07-21.82-75.9-32.68-90.94,10.32l-98.48-29.68Z"/>
          </g>
        </g>
        <path class="cls-6" d="m340.89,646.13h-32.53c-5.74,0-10.23-4.95-9.68-10.66l2.59-26.8c.93-9.58,8.98-16.88,18.6-16.88h21.02v54.34Z"/>
        <g class="cls-8">
          <path class="cls-3" d="m644.57,620.15c-1.72,2.69-4.72,4.51-8.19,4.51h-34.87v21.47h34.87c5.74,0,10.23-4.95,9.68-10.66l-1.48-15.32Z"/>
        </g>
        <circle class="cls-7" cx="532.56" cy="603.47" r="27.46"/>
        <g>
          <g class="cls-2">
            <path class="cls-4" d="m300.16,620.15l-1.48,15.32c-.55,5.71,3.94,10.66,9.68,10.66h32.53v-21.47h-32.53c-3.47,0-6.48-1.82-8.19-4.51Z"/>
          </g>
          <path class="cls-6" d="m601.51,646.13h34.87c5.74,0,10.23-4.95,9.68-10.66l-2.59-26.8c-.93-9.58-8.98-16.88-18.6-16.88h-23.36v54.34Z"/>
          <rect class="cls-6" x="340.89" y="545.62" width="260.62" height="165.37" rx="34.48" ry="34.48"/>
          <g class="cls-2">
            <path class="cls-4" d="m567.03,664.54h-191.67c-19.04,0-34.48-15.44-34.48-34.48v46.46c0,19.04,15.44,34.48,34.48,34.48h191.67c19.04,0,34.48-15.44,34.48-34.48v-46.46c0,19.04-15.44,34.48-34.48,34.48Z"/>
          </g>
          <g>
            <g class="cls-2">
              <ellipse class="cls-4" cx="531.39" cy="629.99" rx="32.72" ry="29.3"/>
            </g>
            <circle class="cls-7" cx="532.56" cy="619.25" r="27.46"/>
            <g class="cls-2">
              <path class="cls-4" d="m532.56,634.74c-13.11,0-24.05-9.19-26.79-21.47-.43,1.93-.67,3.93-.67,5.99,0,15.17,12.3,27.46,27.46,27.46s27.46-12.3,27.46-27.46c0-2.06-.24-4.06-.67-5.99-2.74,12.28-13.68,21.47-26.79,21.47Z"/>
            </g>
            <path class="cls-4" d="m532.56,651.97c-18.04,0-32.72-14.68-32.72-32.72s14.68-32.72,32.72-32.72,32.72,14.68,32.72,32.72-14.68,32.72-32.72,32.72Zm0-54.93c-12.24,0-22.21,9.96-22.21,22.21s9.96,22.21,22.21,22.21,22.21-9.96,22.21-22.21-9.96-22.21-22.21-22.21Z"/>
          </g>
          <path class="cls-4" d="m567.03,718h-191.67c-22.88,0-41.49-18.61-41.49-41.49v-96.42c0-22.88,18.61-41.49,41.49-41.49h191.67c22.88,0,41.49,18.61,41.49,41.49v96.42c0,22.88-18.61,41.49-41.49,41.49Zm-191.67-165.37c-15.14,0-27.47,12.32-27.47,27.47v96.42c0,15.15,12.32,27.47,27.47,27.47h191.67c15.14,0,27.46-12.32,27.46-27.47v-96.42c0-15.15-12.32-27.47-27.46-27.47h-191.67Z"/>
          <path class="cls-4" d="m455.82,718c-3.85,0-6.99-3.11-7.01-6.97l-.42-67.11-31.15-15.47c-2.38-1.19-3.89-3.62-3.89-6.28v-76.55c0-3.87,3.14-7.01,7.01-7.01s7.01,3.14,7.01,7.01v72.2l31.12,15.46c2.37,1.18,3.88,3.59,3.89,6.24l.44,71.43c.02,3.87-3.1,7.03-6.97,7.05h-.04Z"/>
          <path class="cls-4" d="m340.89,653.14h-32.53c-4.71,0-9.22-2-12.39-5.48-3.17-3.49-4.72-8.18-4.27-12.86l2.59-26.8c1.28-13.24,12.28-23.22,25.58-23.22h21.02c3.87,0,7.01,3.14,7.01,7.01v54.35c0,3.87-3.14,7.01-7.01,7.01Zm-21.02-54.35c-6.04,0-11.04,4.54-11.62,10.55l-2.59,26.8c-.1,1.04.39,1.75.69,2.09.3.33.96.89,2.01.89h25.52v-40.32h-14.01Z"/>
          <path class="cls-4" d="m636.38,653.14h-34.87c-3.87,0-7.01-3.14-7.01-7.01v-54.35c0-3.87,3.14-7.01,7.01-7.01h23.36c13.3,0,24.29,9.98,25.58,23.22l2.59,26.8c.45,4.69-1.1,9.37-4.27,12.86-3.17,3.49-7.68,5.48-12.39,5.48Zm-27.86-14.02h27.86c1.04,0,1.71-.56,2.01-.89.3-.33.79-1.05.69-2.09l-2.59-26.8c-.58-6.01-5.58-10.55-11.62-10.55h-16.35v40.32Z"/>
          <circle class="cls-6" cx="539.57" cy="613.26" r="9.35"/>
        </g>
        <path class="cls-6" d="m164.4,662.34c40.65-24.08,48.86-65.86,45.7-113.86l-61.1-32.03c-2.45-1.28-4.26-3.51-5.03-6.16l-13.12-45.3c-3.34-11.52-11.15-21.22-21.68-26.93l-15.62-8.47c-8.3-4.51-18.68-1.78-23.7,6.22h0c-4.93,7.87-3.02,18.21,4.4,23.8l11.66,8.78c5.36,4.04,7.06,11.33,4.04,17.32l-7.5,14.87c-7.55-16.47-19.26-19.12-33.73-12.61l-1.46-10.6c-.67-4.88.77-9.82,3.98-13.57l3.81-4.45c5.34-6.24,4.45-15.66-1.96-20.79h0c-5.73-4.59-13.99-4.19-19.24.94l-16.42,16.02c-7.86,7.67-11.88,18.71-9.91,29.52,1.78,9.77,7.64,16.4,19.15,18.7-18.26,53.23-4.87,86.03,47.59,93.61,28.72,29.51,58.38,53.53,90.15,65Z"/>
        <g class="cls-2">
          <path class="cls-4" d="m185.31,636.79c-31.78-11.48-61.43-35.49-90.15-65-52.32-7.56-65.77-40.21-47.73-93.19l-.07-.47c-11.37-2.34-17.18-8.94-18.94-18.65-.98-5.4-.47-10.87,1.27-15.94l-12.27,11.97c-7.86,7.67-11.88,18.71-9.91,29.52,1.78,9.77,7.64,16.4,19.15,18.7-18.26,53.23-4.87,86.03,47.59,93.61,28.72,29.51,58.38,53.53,90.15,65,15.37-9.1,26.09-20.73,33.33-34.27-3.76,3.12-7.88,6.04-12.42,8.73Z"/>
        </g>
        <path class="cls-4" d="m164.4,669.35c-.8,0-1.61-.14-2.38-.42-28.85-10.42-57.85-31.1-91.15-65.03-24.5-3.97-41.6-13.67-50.87-28.84-9.92-16.24-10.66-38.67-2.2-66.74-9.37-3.96-15.26-11.47-17.19-22.06-2.34-12.86,2.11-26.24,11.91-35.8l16.42-16.02c7.78-7.59,20.04-8.18,28.52-1.39,1.52,1.22,2.85,2.61,3.96,4.14.61-1.76,1.44-3.49,2.47-5.14,6.97-11.11,21.45-14.92,32.98-8.66l15.62,8.47c12.1,6.57,21.24,17.92,25.07,31.15l13.12,45.3c.24.81.8,1.51,1.55,1.9l61.1,32.03c2.16,1.13,3.58,3.31,3.74,5.75,2.49,37.71.1,91.2-49.12,120.35-1.09.65-2.33.98-3.57.98Zm-120.41-226.98c-1.91,0-3.81.72-5.26,2.13l-16.42,16.02c-6.46,6.29-9.41,14.98-7.91,23.24,1.35,7.44,5.55,11.47,13.62,13.08,1.98.4,3.7,1.63,4.71,3.38,1.01,1.75,1.21,3.85.55,5.77-9.32,27.16-9.76,47.94-1.32,61.76,7.28,11.92,21.84,19.53,43.28,22.63,1.53.22,2.94.94,4.02,2.05,31.21,32.07,58.12,51.9,84.38,62.13,30.01-19.18,42.35-50.82,39.68-101.72l-57.59-30.19c-4.11-2.16-7.22-5.95-8.51-10.42l-13.13-45.3c-2.8-9.65-9.46-17.93-18.29-22.72l-15.62-8.47c-5.03-2.73-11.37-1.07-14.41,3.79-3.03,4.83-1.88,11.05,2.67,14.47l11.66,8.78c8.07,6.08,10.63,17.05,6.08,26.07l-7.5,14.87c-1.21,2.41-3.73,3.87-6.39,3.85-2.69-.05-5.12-1.64-6.24-4.09-5.44-11.87-12.53-14.52-24.47-9.14-2.01.9-4.34.81-6.27-.26-1.93-1.07-3.25-2.99-3.55-5.18l-1.46-10.6c-.95-6.86,1.09-13.82,5.59-19.08l3.81-4.45c1.34-1.56,1.96-3.55,1.77-5.6-.19-2.05-1.18-3.88-2.79-5.17-1.38-1.11-3.04-1.65-4.71-1.65Zm18.05,35.31c7.62,0,14.26,2.98,19.62,8.85l2.01-3.99c1.49-2.96.65-6.56-2-8.56l-11.66-8.78c-2.55-1.92-4.64-4.23-6.23-6.78-.85,1.96-2,3.8-3.43,5.47l-3.81,4.45c-1.9,2.22-2.76,5.16-2.36,8.05l.3,2.19c2.61-.6,5.12-.9,7.54-.9Z"/>
        <path class="cls-4" d="m24.9,501.24c16.13-27.28,50.99-18.56,66.55,4.45,11.68,17.13,5.39,40.29-9.83,52.79-4.46,4.14-9.69,7.2-14.93,9.86,3.92-4.45,7.83-8.69,10.93-13.41,9.37-12.82,12.17-29.12,3.92-43.16-9.31-17.8-36.86-25.94-48.08-5.57-3.31,6.12-12.25.96-8.57-4.96h0Z"/>
        <g>
          <path class="cls-6" d="m780.53,662.34c-40.65-24.08-48.86-65.86-45.7-113.86l61.1-32.03c2.45-1.28,4.26-3.51,5.03-6.16l13.12-45.3c3.34-11.52,11.15-21.22,21.68-26.93l15.62-8.47c8.3-4.51,18.68-1.78,23.7,6.22h0c4.93,7.87,3.02,18.21-4.4,23.8l-11.66,8.78c-5.36,4.04-7.06,11.33-4.04,17.32l7.5,14.87c7.55-16.47,19.26-19.12,33.73-12.61l1.46-10.6c.67-4.88-.77-9.82-3.98-13.57l-3.81-4.45c-5.34-6.24-4.45-15.66,1.96-20.79h0c5.73-4.59,13.99-4.19,19.24.94l16.42,16.02c7.86,7.67,11.88,18.71,9.91,29.52-1.78,9.77-7.64,16.4-19.15,18.7,18.26,53.23,4.87,86.03-47.59,93.61-28.72,29.51-58.37,53.53-90.15,65Z"/>
          <g class="cls-2">
            <path class="cls-4" d="m759.63,636.79c31.78-11.48,61.43-35.49,90.15-65,52.32-7.56,65.77-40.21,47.73-93.19l.07-.47c11.37-2.34,17.18-8.94,18.94-18.65.98-5.4.47-10.87-1.27-15.94l12.27,11.97c7.86,7.67,11.88,18.71,9.91,29.52-1.78,9.77-7.64,16.4-19.15,18.7,18.26,53.23,4.87,86.03-47.59,93.61-28.72,29.51-58.37,53.53-90.15,65-15.37-9.1-26.09-20.73-33.33-34.27,3.76,3.12,7.88,6.04,12.42,8.73Z"/>
          </g>
          <path class="cls-4" d="m780.53,669.35c-1.24,0-2.48-.33-3.57-.98-49.22-29.15-51.61-82.65-49.12-120.35.16-2.44,1.58-4.61,3.74-5.75l61.1-32.03c.75-.39,1.32-1.09,1.55-1.9l13.12-45.3c3.83-13.23,12.97-24.58,25.07-31.15l15.62-8.47c11.53-6.26,26.02-2.45,32.98,8.66,1.04,1.65,1.86,3.37,2.47,5.14,1.12-1.53,2.44-2.92,3.96-4.14,8.48-6.8,20.74-6.2,28.52,1.39l16.42,16.02c9.8,9.56,14.25,22.94,11.91,35.8-1.93,10.58-7.82,18.09-17.19,22.06,8.46,28.06,7.72,50.49-2.2,66.74-9.27,15.17-26.37,24.86-50.87,28.84-33.29,33.92-62.3,54.61-91.15,65.03-.77.28-1.58.42-2.38.42Zm-38.93-116.5c-2.67,50.9,9.67,82.54,39.68,101.72,26.25-10.23,53.17-30.06,84.38-62.13,1.08-1.11,2.49-1.83,4.02-2.05,21.44-3.1,36-10.71,43.28-22.63,8.44-13.82,8-34.6-1.32-61.76-.66-1.91-.45-4.02.55-5.77,1.01-1.75,2.72-2.99,4.71-3.38,8.07-1.61,12.27-5.64,13.62-13.08,1.5-8.26-1.45-16.95-7.91-23.24l-16.42-16.02c-2.72-2.65-7-2.86-9.96-.48-1.6,1.28-2.59,3.12-2.79,5.17-.19,2.05.44,4.03,1.77,5.59l3.81,4.45c4.5,5.27,6.54,12.22,5.59,19.08l-1.46,10.6c-.3,2.19-1.62,4.11-3.55,5.18-1.93,1.07-4.26,1.16-6.27.26-11.94-5.38-19.03-2.73-24.47,9.14-1.12,2.45-3.55,4.04-6.24,4.09-2.65.02-5.18-1.45-6.39-3.85l-7.5-14.87c-4.55-9.03-1.99-19.99,6.08-26.07l11.66-8.78c4.55-3.43,5.7-9.65,2.67-14.47-3.04-4.86-9.38-6.52-14.41-3.79l-15.62,8.47c-8.83,4.79-15.5,13.07-18.29,22.72l-13.12,45.3c-1.29,4.46-4.4,8.26-8.51,10.42l-57.59,30.19Zm139.54-94.42c-1.59,2.55-3.67,4.86-6.23,6.78l-11.66,8.78c-2.65,2-3.49,5.6-2,8.56l2.01,3.99c7.07-7.72,16.34-10.45,27.17-7.95l.3-2.19c.4-2.89-.46-5.83-2.36-8.05l-3.81-4.45c-1.43-1.67-2.58-3.52-3.42-5.47Z"/>
          <path class="cls-4" d="m911.47,506.21c-7.74-14.59-25.92-14.98-38.15-5.76-8.1,5.98-13.22,15.34-14.59,25.12-2.34,16.6,8.77,31.1,19.52,42.77-16.72-7.87-31.54-23.9-30.84-43.64.62-26.37,33.67-48.91,58.08-37.27,3.09,1.4,5.91,3.65,8.41,5.89,1.15,1.23,2.27,2.51,3.36,3.79l2.78,4.14c3.67,5.93-5.23,11.08-8.57,4.96h0Z"/>
        </g>
        <g class="cls-2">
          <path class="cls-4" d="m628.99,432.42c-42.02,42.86-101.12,69.54-166.56,69.54-58.66,0-112.23-21.46-152.95-56.78,21.67-11.97,46.07-20.25,72.91-25.23l195.6-12.34c17.86,7.17,35.03,15.25,51,24.81Z"/>
        </g>
        <g>
          <g>
            <path class="cls-6" d="m686.59,167.34h0c27.3,0,49.47,22.17,49.47,49.47v46.32c0,27.3-22.17,49.47-49.47,49.47h0c-2.6,0-4.72-2.11-4.72-4.72v-135.82c0-2.6,2.11-4.72,4.72-4.72Z" transform="translate(.96 -2.82) rotate(.23)"/>
            <path class="cls-4" d="m690.74,313.87c-.06,0-.12,0-.19,0l-4.66-.02c-3.12-.01-5.65-2.56-5.64-5.68l.54-136.63c.01-3.11,2.55-5.64,5.66-5.64h.02l4.66.02c12.44.05,24.11,4.94,32.87,13.77,8.76,8.83,13.56,20.54,13.51,32.98l-.22,54.83c-.1,25.61-20.97,46.38-46.56,46.38Zm-.18-2.7h.18c24.11,0,43.76-19.56,43.86-43.69l.22-54.83c.05-11.72-4.47-22.75-12.72-31.07-8.25-8.32-19.25-12.92-30.96-12.97l-4.66-.02h-.01c-1.63,0-2.95,1.32-2.96,2.95l-.54,136.63c0,1.63,1.32,2.97,2.95,2.97l4.66.02Z"/>
          </g>
          <g class="cls-2">
            <path class="cls-4" d="m736.06,241.51l-.08,21.72c-.11,27.31-22.35,49.38-49.67,49.28-2.6,0-4.7-2.14-4.7-4.74l.13-36.11c.72,1.65,2.37,2.79,4.28,2.81h3.22c21.59.09,40.02-13.67,46.82-32.96Z"/>
          </g>
          <path class="cls-4" d="m690.75,320.04c-.07,0-.14,0-.21,0l-4.66-.02c-6.52-.03-11.8-5.35-11.78-11.87l.54-136.63c.01-3.16,1.25-6.12,3.5-8.35,2.24-2.22,5.2-3.37,8.37-3.43l4.66.02c14.08.06,27.3,5.59,37.22,15.59,9.92,10,15.35,23.26,15.29,37.34l-.22,54.83c-.12,29-23.75,52.52-52.72,52.52Zm-.15-15.03s.1,0,.15,0c20.72,0,37.61-16.81,37.7-37.55l.22-54.83c.04-10.07-3.84-19.55-10.93-26.7-7.09-7.15-16.54-11.11-26.61-11.15h-1.46s-.52,130.22-.52,130.22h1.46Z"/>
          <g>
            <path class="cls-6" d="m234.31,165.45l4.66.02c2.38,0,4.3,1.95,4.29,4.33l-.54,136.63c0,2.38-1.95,4.3-4.33,4.29l-4.66-.02c-24.97-.1-45.13-20.42-45.03-45.39l.22-54.83c.1-24.97,20.42-45.13,45.39-45.03Z"/>
            <path class="cls-4" d="m238.41,312.07h-.03l-4.66-.02c-12.44-.05-24.11-4.94-32.87-13.77-8.76-8.83-13.56-20.54-13.51-32.98l.22-54.83c.05-12.44,4.94-24.11,13.77-32.87,8.78-8.71,20.42-13.51,32.79-13.51.06,0,.13,0,.19,0l4.66.02c3.12.01,5.65,2.56,5.64,5.68l-.54,136.63c0,1.51-.6,2.93-1.67,4-1.07,1.06-2.48,1.64-3.98,1.64Zm-4.29-145.27c-11.65,0-22.61,4.51-30.89,12.72-8.32,8.25-12.92,19.25-12.97,30.96l-.22,54.83c-.05,11.72,4.47,22.75,12.72,31.07,8.25,8.32,19.25,12.92,30.96,12.97l4.66.02h.01c.79,0,1.52-.3,2.08-.86.56-.56.87-1.3.88-2.09l.54-136.63c0-1.63-1.32-2.96-2.95-2.97l-4.66-.02h-.18Z"/>
          </g>
          <g class="cls-2">
            <path class="cls-4" d="m242.88,268.34l-.15,37.68c0,2.6-2.14,4.7-4.74,4.7-14.34-.06-27.24-6.21-36.24-16.01-8.13-8.85-13.07-20.68-13.02-33.65l.08-19.52c7.69,17.15,24.92,29.15,44.95,29.23l4.96.02c1.81,0,3.35-.99,4.18-2.46Z"/>
          </g>
          <path class="cls-4" d="m238.41,318.24s-.04,0-.05,0l-4.66-.02c-14.08-.06-27.3-5.59-37.22-15.59-9.92-10-15.35-23.26-15.29-37.34l.22-54.83c.06-14.08,5.59-27.3,15.59-37.22,9.95-9.87,23.13-15.29,37.13-15.29.07,0,.14,0,.22,0l4.66.02c6.52.03,11.8,5.35,11.78,11.87l-.54,136.63c-.01,3.16-1.25,6.12-3.5,8.35-2.23,2.21-5.18,3.43-8.32,3.43Zm0-15.03h0,0Zm-4.3-130.24c-10.01,0-19.43,3.88-26.55,10.94-7.15,7.09-11.11,16.54-11.15,26.61l-.22,54.83c-.04,10.07,3.84,19.55,10.93,26.7,7.09,7.15,16.54,11.11,26.61,11.15h1.46s.52-130.22.52-130.22h-1.46c-.05,0-.1,0-.15,0Z"/>
          <g>
            <circle class="cls-6" cx="462.46" cy="238.99" r="231.45" transform="translate(-33.54 397.01) rotate(-45)"/>
            <path class="cls-4" d="m462.63,471.8c-5.83,0-11.69-.22-17.6-.66-128.01-9.62-224.33-121.58-214.71-249.59,4.66-62.01,33.18-118.49,80.33-159.05C357.78,21.95,417.9,2.18,479.9,6.84c62.01,4.66,118.49,33.18,159.05,80.33,40.55,47.14,60.32,107.25,55.67,169.26-9.17,122.1-111.47,215.37-231.99,215.37Zm-.52-462.93c-54.99,0-107.58,19.45-149.7,55.68-46.59,40.08-74.79,95.91-79.39,157.2-9.5,126.52,85.7,237.19,212.22,246.69,5.83.44,11.64.65,17.4.65,119.13,0,220.23-92.19,229.3-212.88,4.6-61.29-14.94-120.71-55.02-167.3-40.08-46.59-95.91-74.79-157.2-79.39-5.88-.44-11.76-.66-17.6-.66Z"/>
          </g>
          <g class="cls-9">
            <path class="cls-4" d="m693.46,224.21c.69,10.55.63,21.27-.18,32.12-9.59,127.46-120.68,223.04-248.15,213.47-127.46-9.59-223.04-120.68-213.47-248.15.27-3.67.63-7.33,1.08-10.93,7.12,113.52,97.03,207.27,213.66,216.03,123.8,9.29,232.13-80.59,247.07-202.55Z"/>
          </g>
          <path class="cls-4" d="m462.63,477.96c-5.98,0-12-.22-18.07-.68-131.4-9.87-230.27-124.8-220.4-256.19,4.78-63.65,34.06-121.63,82.45-163.26C355.01,16.2,416.71-4.1,480.36.69c63.65,4.78,121.63,34.06,163.26,82.45,41.63,48.39,61.92,110.09,57.14,173.74-9.41,125.33-114.42,221.08-238.13,221.08Zm-.52-462.93c-53.52,0-104.7,18.93-145.69,54.19-45.35,39.01-72.79,93.34-77.27,152.99-9.25,123.13,83.4,230.83,206.54,240.09,5.67.42,11.33.64,16.93.64,115.94,0,214.33-89.72,223.15-207.18,4.48-59.65-14.54-117.47-53.55-162.82-39.01-45.35-93.34-72.79-152.99-77.27-5.73-.43-11.44-.64-17.12-.64Z"/>
          <path class="cls-4" d="m692.08,262.19c-2.71,45.21-19.9,86.31-47.08,119.53-20.38,24.91-100.46,65.84-196.03,60.97-88.61-4.51-166.37-56.56-183.62-83.73-23.02-36.23-35.18-79.09-32.47-124.3,7.17-119.64,112.94-163.08,239.75-155.48,126.81,7.6,226.63,63.36,219.46,183Z"/>
          <g class="cls-10">
            <ellipse class="cls-6" cx="620.34" cy="243.38" rx="40.96" ry="29.68" transform="translate(236.96 788.43) rotate(-76.3)"/>
          </g>
          <g class="cls-10">
            <ellipse class="cls-6" cx="579.2" cy="322.19" rx="18.8" ry="16.13" transform="translate(66.1 741.73) rotate(-68.36)"/>
          </g>
          <g class="cls-9">
            <path class="cls-5" d="m654.12,147.9c26.46,28.47,40.84,66.23,37.96,114.28-2.71,45.22-19.91,86.31-47.07,119.54-20.38,24.91-100.48,65.84-196.04,60.98-33.75-1.71-65.9-10.32-93.76-21.84,117.6,3.47,215.18-46.81,240.46-77.71,34.5-42.17,56.32-94.33,59.75-151.7.93-15.33.44-29.84-1.29-43.55Z"/>
          </g>
          <path class="cls-4" d="m673.48,161.56l-.7-.66-.54-.85c-35.37-56.45-108.23-91.99-199.9-97.48-92.17-5.54-168.73,22.06-210.06,75.67l-.6.69c-2.85,2.92-7.53,3.04-10.52.23-2.92-2.74-3.17-7.25-.64-10.28,44.44-57.49,125.61-87.13,222.71-81.31,96.58,5.79,173.76,43.88,211.74,104.5l-6.34,4.02-5.15,5.47Z"/>
          <g class="cls-10">
            <path class="cls-6" d="m282.08,310.85s-29.98-120.25,36.45-163.47c66.43-43.22,157.93-37.55,155.44-31.81,0,0-102.78,18.45-147.22,96.17-34.27,59.93-44.66,99.1-44.66,99.1Z"/>
          </g>
        </g>
      </g>
    </g>
  </g>
</svg>